{
.appVersion = "3343";
.formatVersion = 3;
DisplayStrings = (
"rr skriver colour. "
);
axes = (
{
hidden = 1;
name = Colour;
tag = COLR;
}
);
classes = (
{
automatic = 1;
code = "A Adieresis Aring B C D E F G H I J K L M N O Odieresis P Q R S T U V W X Y Z";
name = Uppercase;
}
);
customParameters = (
{
name = "Use Typo Metrics";
value = 1;
}
);
date = "2025-08-05 20:27:25 +0000";
familyName = "RR Skriver Colour";
featurePrefixes = (
{
automatic = 1;
code = "languagesystem DFLT dflt;
";
name = Languagesystems;
}
);
fontMaster = (
{
axesValues = (
100
);
customParameters = (
{
name = unitizerUnit;
value = "16";
},
{
name = "Master Icon Glyph Name";
value = A;
},
{
name = "Master Color";
value = (241,231,210,255);
},
{
name = "Master Color Dark";
value = (243,235,221,255);
},
{
name = winAscent;
value = 1700;
},
{
name = winDescent;
value = 400;
},
{
name = typoAscender;
value = 1700;
},
{
name = typoDescender;
value = -400;
},
{
name = typoLineGap;
value = 0;
},
{
name = hheaAscender;
value = 1700;
},
{
name = hheaDescender;
value = -400;
},
{
name = hheaLineGap;
value = 0;
}
);
iconName = Light_Condensed;
id = "3FC41B90-652D-4B27-AC2B-1ACF7BE26A9E";
metricValues = (
{
over = 20;
pos = 1700;
},
{
over = 16;
pos = 1400;
},
{
over = -20;
},
{
over = -20;
pos = -400;
},
{
over = 20;
pos = 1280;
},
{
}
);
name = Top;
userData = {
GSCornerRadius = 15;
};
visible = 1;
},
{
axesValues = (
200
);
customParameters = (
{
name = "Master Icon Glyph Name";
value = A;
},
{
name = "Master Color";
value = (147,43,43,255);
},
{
name = "Master Color Dark";
value = (154,68,61,255);
},
{
name = "Link Metrics With Master";
value = "3FC41B90-652D-4B27-AC2B-1ACF7BE26A9E";
},
{
name = winAscent;
value = 1700;
},
{
name = winDescent;
value = 400;
},
{
name = typoAscender;
value = 1700;
},
{
name = typoDescender;
value = -400;
},
{
name = typoLineGap;
value = 0;
},
{
name = hheaAscender;
value = 1700;
},
{
name = hheaDescender;
value = -400;
},
{
name = hheaLineGap;
value = 0;
}
);

glyphs = (
{
glyphname = A;
lastChange = "2025-08-22 13:15:18 +0000";
layers = (
{
layerId = "6F666F4F-1A96-4FED-ADB4-134214B8A633";
name = Thin;
shapes = (
{
attr = {
strokePos = "1";
};
closed = 1;
nodes = (
(190,-62,o),
(225,-32,o),
(225,14,cs),
(225,860,l),
(351,860,l),
(351,14,ls),
(351,-32,o),
(386,-62,o),
(432,-62,cs),
(478,-62,o),
(513,-32,o),
(513,14,cs),
(513,1256,ls),
(513,1409,o),
(433,1476,o),
(288,1476,cs),
(142,1476,o),
(63,1409,o),
(63,1256,cs),
(63,14,ls),
(63,-32,o),
(98,-62,o),
(144,-62,cs)
);
},
{
attr = {
strokePos = "1";
};
closed = 1;
nodes = (
(225,1256,ls),
(225,1321,o),
(230,1326,o),
(288,1326,cs),
(346,1326,o),
(351,1321,o),
(351,1256,cs),
(351,1010,l),
(225,1010,l)
);
}
);
width = 576;
},
{
layerId = "5B8359BC-834E-43C0-95AC-1478E595F26B";
name = Thin;
shapes = (
{
closed = 1;
nodes = (
(459,1420,ls),
(422,1457,o),
(363,1476,o),
(288,1476,cs),
(142,1476,o),
(63,1409,o),
(63,1256,cs),
(63,14,ls),
(63,-8,o),
(72,-27,o),
(84,-39,cs),
(282,-237,ls),
(294,-249,o),
(318,-260,o),
(342,-260,cs),
(386,-260,o),
(423,-230,o),
(423,-184,cs),
(423,-90,l),
(570,-237,ls),
(582,-249,o),
(606,-260,o),
(630,-260,cs),
(674,-260,o),
(711,-230,o),
(711,-184,cs),
(711,1058,ls),
(711,1130,o),
(694,1185,o),
(657,1222,cs)
);
}
);
width = 774;
},
{
layerId = "3FC41B90-652D-4B27-AC2B-1ACF7BE26A9E";
name = Thin;
shapes = (
{
attr = {
strokePos = "1";
};
closed = 1;
nodes = (
(156,-2,o),
(160,2,o),
(160,14,cs),
(160,920,l),
(416,920,l),
(416,14,ls),
(416,2,o),
(420,-2,o),
(432,-2,cs),
(444,-2,o),
(448,2,o),
(448,14,cs),
(448,1256,ls),
(448,1370,o),
(402,1416,o),
(288,1416,cs),
(174,1416,o),
(128,1370,o),
(128,1256,cs),
(128,14,ls),
(128,2,o),
(132,-2,o),
(144,-2,cs)
);
},
{
attr = {
strokePos = "1";
};
closed = 1;
nodes = (
(160,1256,ls),
(160,1354,o),
(192,1386,o),
(288,1386,cs),
(384,1386,o),
(416,1354,o),
(416,1256,cs),
(416,950,l),
(160,950,l)
);
}
);
width = 576;
},
{
layerId = "C167734A-3797-41AB-93B1-2512951510F4";
name = Thin;
shapes = (
{
closed = 1;
nodes = (
(186,-342,l),
(186,-353,ls),
(186,-399,o),
(221,-429,o),
(267,-429,cs),
(281,-429,o),
(295,-426,o),
(306,-421,cs),
(669,-252,ls),
(694,-240,o),
(711,-215,o),
(711,-184,cs),
(711,1058,ls),
(711,1209,o),
(631,1278,o),
(486,1278,cs),
(439,1278,o),
(395,1270,o),
(363,1255,cs),
(0,1086,ls),
(-67,1055,o),
(-102,991,o),
(-102,889,cs),
(-102,-353,ls),
(-102,-399,o),
(-67,-429,o),
(-21,-429,cs),
(-7,-429,o),
(7,-426,o),
(18,-421,cs)
);
}
);
width = 609;
},
{
layerId = "1B23468A-8BB0-4287-A942-E04502FA5EAD";
name = Thin;
shapes = (
{
attr = {
strokePos = "1";
};
closed = 1;
nodes = (
(181,-47,o),
(205,-22,o),
(205,14,cs),
(205,875,l),
(371,875,l),
(371,14,ls),
(371,-22,o),
(395,-47,o),
(432,-47,cs),
(469,-47,o),
(493,-22,o),
(493,14,cs),
(493,1256,ls),
(493,1395,o),
(427,1461,o),
(288,1461,cs),
(149,1461,o),
(83,1395,o),
(83,1256,cs),
(83,14,ls),
(83,-22,o),
(107,-47,o),
(144,-47,cs)
);
},
{
attr = {
strokePos = "1";
};
closed = 1;
nodes = (
(205,1256,ls),
(205,1328,o),
(218,1341,o),
(288,1341,cs),
(358,1341,o),
(371,1328,o),
(371,1256,cs),
(371,995,l),
(205,995,l)
);
}
);
width = 576;
}
);
metricLeft = O;
metricRight = "=|";
unicode = (65,97);
},
{
glyphname = Adieresis;
lastChange = "2025-07-16 14:24:14 +0000";
layers = (
{
layerId = "3FC41B90-652D-4B27-AC2B-1ACF7BE26A9E";
shapes = (
{
attr = {
identifier = ID0x13be34680;
strokePos = "1";
};
closed = 1;
nodes = (
(156,-2,o),
(160,2,o),
(160,14,cs),
(160,920,l),
(416,920,l),
(416,14,ls),
(416,2,o),
(420,-2,o),
(432,-2,cs),
(444,-2,o),
(448,2,o),
(448,14,cs),
(448,1256,ls),
(448,1370,o),
(402,1416,o),
(288,1416,cs),
(174,1416,o),
(128,1370,o),
(128,1256,cs),
(128,14,ls),
(128,2,o),
(132,-2,o),
(144,-2,cs)
);
},
{
closed = 1;
nodes = (
(416,1541,ls),
(416,1530,o),
(420,1526,o),
(432,1526,cs),
(444,1526,o),
(448,1530,o),
(448,1541,cs),
(448,1745,ls),
(448,1756,o),
(444,1760,o),
(432,1760,cs),
(420,1760,o),
(416,1756,o),
(416,1745,cs)
);
},
{
closed = 1;
nodes = (
(128,1541,ls),
(128,1530,o),
(132,1526,o),
(144,1526,cs),
(156,1526,o),
(160,1530,o),
(160,1541,cs),
(160,1745,ls),
(160,1756,o),
(156,1760,o),
(144,1760,cs),
(132,1760,o),
(128,1756,o),
(128,1745,cs)
);
},
{
attr = {
identifier = ID0x13be34680;
strokePos = "1";
};
closed = 1;
nodes = (
(160,1256,ls),
(160,1354,o),
(192,1386,o),
(288,1386,cs),
(384,1386,o),
(416,1354,o),
(416,1256,cs),
(416,950,l),
(160,950,l)
);
}
);
width = 576;
},
{
layerId = "6F666F4F-1A96-4FED-ADB4-134214B8A633";
shapes = (
{
attr = {
identifier = ID0x13be34680;
strokePos = "1";
};
closed = 1;
nodes = (
(190,-62,o),
(225,-32,o),
(225,14,cs),
(225,860,l),
(351,860,l),
(351,14,ls),
(351,-32,o),
(386,-62,o),
(432,-62,cs),
(478,-62,o),
(513,-32,o),
(513,14,cs),
(513,1256,ls),
(513,1409,o),
(433,1476,o),
(288,1476,cs),
(142,1476,o),
(63,1409,o),
(63,1256,cs),
(63,14,ls),
(63,-32,o),
(98,-62,o),
(144,-62,cs)
);
},
{
closed = 1;
nodes = (
(351,1541,ls),
(351,1496,o),
(386,1466,o),
(432,1466,cs),
(478,1466,o),
(513,1496,o),
(513,1541,cs),
(513,1745,ls),
(513,1790,o),
(478,1820,o),
(432,1820,cs),
(386,1820,o),
(351,1790,o),
(351,1745,cs)
);
},
{
closed = 1;
nodes = (
(63,1541,ls),
(63,1496,o),
(98,1466,o),
(144,1466,cs),
(190,1466,o),
(225,1496,o),
(225,1541,cs),
(225,1745,ls),
(225,1790,o),
(190,1820,o),
(144,1820,cs),
(98,1820,o),
(63,1790,o),
(63,1745,cs)
);
},
{
attr = {
identifier = ID0x13be34680;
strokePos = "1";
};
closed = 1;
nodes = (
(225,1256,ls),
(225,1321,o),
(230,1326,o),
(288,1326,cs),
(346,1326,o),
(351,1321,o),
(351,1256,cs),
(351,1010,l),
(225,1010,l)
);
}
);
width = 576;
},
{
layerId = "5B8359BC-834E-43C0-95AC-1478E595F26B";
shapes = (
{
closed = 1;
nodes = (
(608,1271,l),
(614,1269,o),
(623,1268,o),
(630,1268,cs),
(675,1268,o),
(711,1298,o),
(711,1343,cs),
(711,1547,ls),
(711,1567,o),
(703,1587,o),
(691,1599,cs),
(493,1797,ls),
(480,1810,o),
(457,1820,o),
(432,1820,cs),
(386,1820,o),
(351,1790,o),
(351,1745,cs),
(351,1650,l),
(205,1797,ls),
(191,1812,o),
(169,1820,o),
(144,1820,cs),
(98,1820,o),
(63,1789,o),
(63,1745,cs),
(63,1541,ls),
(63,1521,o),
(73,1500,o),
(84,1489,cs),
(137,1437,l),
(89,1402,o),
(63,1343,o),
(63,1256,cs),
(63,14,ls),
(63,-8,o),
(72,-27,o),
(84,-39,cs),
(282,-237,ls),
(296,-251,o),
(318,-260,o),
(342,-260,cs),
(387,-260,o),
(423,-230,o),
(423,-184,cs),
(423,-90,l),
(570,-237,ls),
(584,-251,o),
(606,-260,o),
(630,-260,cs),
(675,-260,o),
(711,-230,o),
(711,-184,cs),
(711,1058,ls),
(711,1131,o),
(694,1185,o),
(657,1222,cs)
);
}
);
width = 576;
},
{
layerId = "C167734A-3797-41AB-93B1-2512951510F4";
shapes = (
{
closed = 1;
nodes = (
(186,-342,l),
(186,-353,ls),
(186,-399,o),
(221,-429,o),
(267,-429,cs),
(281,-429,o),
(295,-426,o),
(306,-421,cs),
(669,-252,ls),
(694,-240,o),
(711,-215,o),
(711,-184,cs),
(711,1058,ls),
(711,1155,o),
(678,1219,o),
(616,1252,c),
(669,1277,ls),
(694,1289,o),
(711,1312,o),
(711,1343,cs),
(711,1547,ls),
(711,1590,o),
(676,1622,o),
(630,1622,cs),
(617,1622,o),
(602,1619,o),
(591,1614,cs),
(423,1536,l),
(423,1547,ls),
(423,1590,o),
(388,1622,o),
(342,1622,cs),
(329,1622,o),
(314,1619,o),
(303,1614,cs),
(-60,1445,ls),
(-87,1433,o),
(-102,1409,o),
(-102,1378,cs),
(-102,1174,ls),
(-102,1129,o),
(-67,1099,o),
(-21,1099,cs),
(-6,1099,o),
(7,1102,o),
(18,1107,cs),
(186,1186,l),
(186,1173,l),
(0,1086,ls),
(-67,1055,o),
(-102,991,o),
(-102,889,cs),
(-102,-353,ls),
(-102,-399,o),
(-67,-429,o),
(-21,-429,cs),
(-7,-429,o),
(7,-426,o),
(18,-421,cs)
);
}
);
width = 576;
},
{
layerId = "1B23468A-8BB0-4287-A942-E04502FA5EAD";
shapes = (
{
attr = {
identifier = ID0x13be34680;
strokePos = "1";
};
closed = 1;
nodes = (
(181,-47,o),
(205,-22,o),
(205,14,cs),
(205,875,l),
(371,875,l),
(371,14,ls),
(371,-22,o),
(395,-47,o),
(432,-47,cs),
(469,-47,o),
(493,-22,o),
(493,14,cs),
(493,1256,ls),
(493,1395,o),
(427,1461,o),
(288,1461,cs),
(149,1461,o),
(83,1395,o),
(83,1256,cs),
(83,14,ls),
(83,-22,o),
(107,-47,o),
(144,-47,cs)
);
},
{
closed = 1;
nodes = (
(371,1541,ls),
(371,1501,o),
(399,1481,o),
(432,1481,cs),
(465,1481,o),
(493,1501,o),
(493,1541,cs),
(493,1745,ls),
(493,1785,o),
(465,1805,o),
(432,1805,cs),
(399,1805,o),
(371,1785,o),
(371,1745,cs)
);
},
{
closed = 1;
nodes = (
(83,1541,ls),
(83,1501,o),
(111,1481,o),
(144,1481,cs),
(177,1481,o),
(205,1501,o),
(205,1541,cs),
(205,1745,ls),
(205,1785,o),
(177,1805,o),
(144,1805,cs),
(111,1805,o),
(83,1785,o),
(83,1745,cs)
);
},
{
attr = {
identifier = ID0x13be34680;
strokePos = "1";
};
closed = 1;
nodes = (
(205,1256,ls),
(205,1328,o),
(218,1341,o),
(288,1341,cs),
(358,1341,o),
(371,1328,o),
(371,1256,cs),
(371,995,l),
(205,995,l)
);
}
);
width = 576;
}
);
unicode = (196,228);
},
{
glyphname = Aring;
lastChange = "2025-08-22 13:15:18 +0000";
layers = (
{
layerId = "6F666F4F-1A96-4FED-ADB4-134214B8A633";
shapes = (
{
attr = {
identifier = ID0x128cb1cc0;
strokePos = "1";
};
closed = 1;
nodes = (
(190,-62,o),
(225,-32,o),
(225,14,cs),
(225,860,l),
(351,860,l),
(351,14,ls),
(351,-32,o),
(386,-62,o),
(432,-62,cs),
(478,-62,o),
(513,-32,o),
(513,14,cs),
(513,1256,ls),
(513,1317,o),
(501,1365,o),
(471,1400,c),
(500,1435,o),
(513,1483,o),
(513,1546,cs),
(513,1699,o),
(433,1766,o),
(288,1766,cs),
(142,1766,o),
(63,1699,o),
(63,1546,cs),
(63,1483,o),
(76,1435,o),
(105,1400,c),
(75,1365,o),
(63,1317,o),
(63,1256,cs),
(63,14,ls),
(63,-32,o),
(98,-62,o),
(144,-62,cs)
);
},
{
attr = {
identifier = ID0x128ce6610;
strokePos = "1";
};
closed = 1;
nodes = (
(230,1476,o),
(225,1481,o),
(225,1546,cs),
(225,1611,o),
(230,1616,o),
(288,1616,cs),
(346,1616,o),
(351,1611,o),
(351,1546,cs),
(351,1481,o),
(346,1476,o),
(288,1476,cs)
);
},
{
attr = {
identifier = ID0x128cb1cc0;
strokePos = "1";
};
closed = 1;
nodes = (
(225,1256,ls),
(225,1321,o),
(230,1326,o),
(288,1326,cs),
(346,1326,o),
(351,1321,o),
(351,1256,cs),
(351,1010,l),
(225,1010,l)
);
}
);
width = 576;
},
{
layerId = "5B8359BC-834E-43C0-95AC-1478E595F26B";
shapes = (
{
closed = 1;
nodes = (
(459,1710,ls),
(422,1747,o),
(363,1766,o),
(288,1766,cs),
(142,1766,o),
(63,1699,o),
(63,1546,cs),
(63,1483,o),
(77,1434,o),
(105,1401,c),
(75,1365,o),
(63,1318,o),
(63,1256,cs),
(63,14,ls),
(63,-8,o),
(72,-27,o),
(84,-39,cs),
(282,-237,ls),
(296,-251,o),
(318,-260,o),
(342,-260,cs),
(387,-260,o),
(423,-230,o),
(423,-184,cs),
(423,-90,l),
(570,-237,ls),
(584,-251,o),
(606,-260,o),
(630,-260,cs),
(675,-260,o),
(711,-230,o),
(711,-184,cs),
(711,1058,ls),
(711,1119,o),
(699,1168,o),
(669,1203,c),
(698,1237,o),
(711,1285,o),
(711,1348,cs),
(711,1421,o),
(694,1475,o),
(657,1512,cs)
);
}
);
width = 774;
},
{
layerId = "3FC41B90-652D-4B27-AC2B-1ACF7BE26A9E";
shapes = (
{
attr = {
identifier = ID0x128cb1cc0;
strokePos = "1";
};
closed = 1;
nodes = (
(156,-2,o),
(160,2,o),
(160,14,cs),
(160,920,l),
(416,920,l),
(416,14,ls),
(416,2,o),
(420,-2,o),
(432,-2,cs),
(444,-2,o),
(448,2,o),
(448,14,cs),
(448,1256,ls),
(448,1330,o),
(433,1383,o),
(348,1398,c),
(348,1402,l),
(428,1415,o),
(448,1465,o),
(448,1546,cs),
(448,1660,o),
(402,1706,o),
(288,1706,cs),
(174,1706,o),
(128,1660,o),
(128,1546,cs),
(128,1465,o),
(148,1415,o),
(228,1402,c),
(228,1398,l),
(143,1383,o),
(128,1330,o),
(128,1256,cs),
(128,14,ls),
(128,2,o),
(132,-2,o),
(144,-2,cs)
);
},
{
attr = {
identifier = ID0x128ce6610;
strokePos = "1";
};
closed = 1;
nodes = (
(192,1416,o),
(160,1448,o),
(160,1546,cs),
(160,1644,o),
(192,1676,o),
(288,1676,cs),
(384,1676,o),
(416,1644,o),
(416,1546,cs),
(416,1448,o),
(384,1416,o),
(288,1416,cs)
);
},
{
attr = {
identifier = ID0x128cb1cc0;
strokePos = "1";
};
closed = 1;
nodes = (
(160,1256,ls),
(160,1354,o),
(192,1386,o),
(288,1386,cs),
(384,1386,o),
(416,1354,o),
(416,1256,cs),
(416,950,l),
(160,950,l)
);
}
);
width = 576;
},
{
layerId = "C167734A-3797-41AB-93B1-2512951510F4";
shapes = (
{
closed = 1;
nodes = (
(186,-342,l),
(186,-353,ls),
(186,-399,o),
(221,-429,o),
(267,-429,cs),
(281,-429,o),
(295,-426,o),
(306,-421,cs),
(669,-252,ls),
(694,-240,o),
(711,-215,o),
(711,-184,cs),
(711,1058,ls),
(711,1118,o),
(699,1167,o),
(669,1203,c),
(697,1237,o),
(711,1285,o),
(711,1348,cs),
(711,1499,o),
(631,1568,o),
(486,1568,cs),
(439,1568,o),
(395,1560,o),
(363,1545,cs),
(0,1376,ls),
(-67,1345,o),
(-102,1281,o),
(-102,1179,cs),
(-102,1116,o),
(-88,1067,o),
(-60,1034,c),
(-89,999,o),
(-102,951,o),
(-102,889,cs),
(-102,-353,ls),
(-102,-399,o),
(-67,-429,o),
(-21,-429,cs),
(-7,-429,o),
(7,-426,o),
(18,-421,cs)
);
}
);
width = 609;
},
{
layerId = "1B23468A-8BB0-4287-A942-E04502FA5EAD";
shapes = (
{
attr = {
identifier = ID0x128cb1cc0;
strokePos = "1";
};
closed = 1;
nodes = (
(181,-47,o),
(205,-22,o),
(205,14,cs),
(205,875,l),
(371,875,l),
(371,14,ls),
(371,-22,o),
(395,-47,o),
(432,-47,cs),
(469,-47,o),
(493,-22,o),
(493,14,cs),
(493,1256,ls),
(493,1311,o),
(484,1364,o),
(447,1400,c),
(482,1435,o),
(493,1487,o),
(493,1546,cs),
(493,1685,o),
(427,1751,o),
(288,1751,cs),
(149,1751,o),
(83,1685,o),
(83,1546,cs),
(83,1487,o),
(94,1435,o),
(129,1400,c),
(92,1364,o),
(83,1311,o),
(83,1256,cs),
(83,14,ls),
(83,-22,o),
(107,-47,o),
(144,-47,cs)
);
},
{
attr = {
identifier = ID0x128ce6610;
strokePos = "1";
};
closed = 1;
nodes = (
(218,1461,o),
(205,1474,o),
(205,1546,cs),
(205,1618,o),
(218,1631,o),
(288,1631,cs),
(358,1631,o),
(371,1618,o),
(371,1546,cs),
(371,1474,o),
(358,1461,o),
(288,1461,cs)
);
},
{
attr = {
identifier = ID0x128cb1cc0;
strokePos = "1";
};
closed = 1;
nodes = (
(205,1256,ls),
(205,1328,o),
(218,1341,o),
(288,1341,cs),
(358,1341,o),
(371,1328,o),
(371,1256,cs),
(371,995,l),
(205,995,l)
);
}
);
width = 576;
}
);
metricLeft = O;
metricRight = "=|";
unicode = (197,229);
},
{
glyphname = B;
lastChange = "2025-08-22 13:15:18 +0000";
layers = (
{
layerId = "6F666F4F-1A96-4FED-ADB4-134214B8A633";
name = Regular;
shapes = (
{
attr = {
strokePos = "1";
};
closed = 1;
nodes = (
(225,545,o),
(230,550,o),
(288,550,cs),
(346,550,o),
(351,545,o),
(351,480,cs),
(351,140,ls),
(351,75,o),
(346,70,o),
(288,70,cs),
(230,70,o),
(225,75,o),
(225,140,cs),
(225,480,ls)
);
},
{
attr = {
strokePos = "1";
};
closed = 1;
nodes = (
(63,-13,o),
(142,-80,o),
(288,-80,cs),
(433,-80,o),
(513,-13,o),
(513,140,cs),
(513,480,ls),
(513,633,o),
(433,700,o),
(288,700,cs),
(266,700,o),
(245,698,o),
(225,694,c),
(225,902,l),
(245,898,o),
(265,896,o),
(288,896,cs),
(433,896,o),
(513,963,o),
(513,1116,cs),
(513,1256,ls),
(513,1409,o),
(433,1476,o),
(288,1476,cs),
(142,1476,o),
(63,1409,o),
(63,1256,cs),
(63,140,ls)
);
},
{
attr = {
strokePos = "1";
};
closed = 1;
nodes = (
(225,1256,ls),
(225,1321,o),
(230,1326,o),
(288,1326,cs),
(346,1326,o),
(351,1321,o),
(351,1256,cs),
(351,1116,ls),
(351,1051,o),
(346,1046,o),
(288,1046,cs),
(230,1046,o),
(225,1051,o),
(225,1116,cs)
);
}
);
width = 560;
},
{
layerId = "5B8359BC-834E-43C0-95AC-1478E595F26B";
name = Regular;
shapes = (
{
closed = 1;
nodes = (
(316,-222,ls),
(353,-259,o),
(411,-278,o),
(486,-278,cs),
(629,-278,o),
(711,-211,o),
(711,-58,cs),
(711,282,ls),
(711,354,o),
(694,409,o),
(657,446,cs),
(459,644,ls),
(448,654,o),
(436,664,o),
(423,671,c),
(423,704,l),
(444,700,o),
(463,698,o),
(486,698,cs),
(629,698,o),
(711,765,o),
(711,918,cs),
(711,1058,ls),
(711,1130,o),
(694,1185,o),
(657,1222,cs),
(459,1420,ls),
(422,1457,o),
(363,1476,o),
(288,1476,cs),
(142,1476,o),
(63,1409,o),
(63,1256,cs),
(63,140,ls),
(63,66,o),
(83,11,o),
(118,-24,cs)
);
}
);
width = 758;
},
{
layerId = "3FC41B90-652D-4B27-AC2B-1ACF7BE26A9E";
name = Regular;
shapes = (
{
attr = {
strokePos = "1";
};
closed = 1;
nodes = (
(160,578,o),
(192,610,o),
(288,610,cs),
(384,610,o),
(416,578,o),
(416,480,cs),
(416,140,ls),
(416,42,o),
(384,10,o),
(288,10,cs),
(192,10,o),
(160,42,o),
(160,140,cs),
(160,480,ls)
);
},
{
attr = {
strokePos = "1";
};
closed = 1;
nodes = (
(128,26,o),
(174,-20,o),
(288,-20,cs),
(402,-20,o),
(448,26,o),
(448,140,cs),
(448,480,ls),
(448,594,o),
(402,640,o),
(288,640,cs),
(220,640,o),
(178,621,o),
(156,578,c),
(154,579,l),
(160,638,o),
(160,697,o),
(160,755,cs),
(160,839,ls),
(160,897,o),
(160,956,o),
(154,1015,c),
(157,1016,l),
(180,973,o),
(222,956,o),
(288,956,cs),
(402,956,o),
(448,1002,o),
(448,1116,cs),
(448,1256,ls),
(448,1370,o),
(402,1416,o),
(288,1416,cs),
(174,1416,o),
(128,1370,o),
(128,1256,cs),
(128,140,ls)
);
},
{
attr = {
strokePos = "1";
};
closed = 1;
nodes = (
(160,1256,ls),
(160,1354,o),
(192,1386,o),
(288,1386,cs),
(384,1386,o),
(416,1354,o),
(416,1256,cs),
(416,1116,ls),
(416,1018,o),
(384,986,o),
(288,986,cs),
(192,986,o),
(160,1018,o),
(160,1116,cs)
);
}
);
width = 560;
},
{
layerId = "C167734A-3797-41AB-93B1-2512951510F4";
name = Regular;
shapes = (
{
closed = 1;
nodes = (
(608,-255,ls),
(675,-224,o),
(711,-160,o),
(711,-58,cs),
(711,282,ls),
(711,433,o),
(631,502,o),
(486,502,cs),
(465,502,o),
(442,500,o),
(423,496,c),
(423,635,l),
(608,721,ls),
(675,752,o),
(711,816,o),
(711,918,cs),
(711,1058,ls),
(711,1209,o),
(631,1278,o),
(486,1278,cs),
(439,1278,o),
(395,1270,o),
(363,1255,cs),
(0,1086,ls),
(-67,1055,o),
(-102,991,o),
(-102,889,cs),
(-102,-227,ls),
(-102,-380,o),
(-23,-447,o),
(123,-447,cs),
(171,-447,o),
(212,-440,o),
(246,-424,cs)
);
}
);
width = 593;
},
{
layerId = "1B23468A-8BB0-4287-A942-E04502FA5EAD";
name = Regular;
shapes = (
{
attr = {
strokePos = "1";
};
closed = 1;
nodes = (
(205,552,o),
(218,565,o),
(288,565,cs),
(358,565,o),
(371,552,o),
(371,480,cs),
(371,140,ls),
(371,68,o),
(358,55,o),
(288,55,cs),
(218,55,o),
(205,68,o),
(205,140,cs),
(205,480,ls)
);
},
{
attr = {
strokePos = "1";
};
closed = 1;
nodes = (
(83,1,o),
(149,-65,o),
(288,-65,cs),
(427,-65,o),
(493,1,o),
(493,140,cs),
(493,480,ls),
(493,619,o),
(427,685,o),
(288,685,cs),
(257,685,o),
(228,681,o),
(204,673,c),
(205,700,o),
(205,728,o),
(205,755,cs),
(205,839,ls),
(205,867,o),
(205,894,o),
(204,922,c),
(229,914,o),
(257,911,o),
(288,911,cs),
(427,911,o),
(493,977,o),
(493,1116,cs),
(493,1256,ls),
(493,1395,o),
(427,1461,o),
(288,1461,cs),
(149,1461,o),
(83,1395,o),
(83,1256,cs),
(83,140,ls)
);
},
{
attr = {
strokePos = "1";
};
closed = 1;
nodes = (
(205,1256,ls),
(205,1328,o),
(218,1341,o),
(288,1341,cs),
(358,1341,o),
(371,1328,o),
(371,1256,cs),
(371,1116,ls),
(371,1044,o),
(358,1031,o),
(288,1031,cs),
(218,1031,o),
(205,1044,o),
(205,1116,cs)
);
}
);
width = 560;
}
);
metricLeft = O;
metricRight = "=|-16";
unicode = (66,98);
},
{
glyphname = C;
lastChange = "2025-08-22 13:15:21 +0000";
layers = (
{
layerId = "6F666F4F-1A96-4FED-ADB4-134214B8A633";
shapes = (
{
attr = {
strokePos = 1;
};
closed = 1;
nodes = (
(351,140,ls),
(351,75,o),
(346,70,o),
(288,70,cs),
(230,70,o),
(225,75,o),
(225,140,cs),
(225,1256,ls),
(225,1321,o),
(230,1326,o),
(288,1326,cs),
(346,1326,o),
(351,1321,o),
(351,1256,cs),
(351,972,ls),
(351,926,o),
(386,896,o),
(432,896,cs),
(478,896,o),
(513,926,o),
(513,972,cs),
(513,1256,ls),
(513,1409,o),
(433,1476,o),
(288,1476,cs),
(142,1476,o),
(63,1409,o),
(63,1256,cs),
(63,140,ls),
(63,-13,o),
(142,-80,o),
(288,-80,cs),
(433,-80,o),
(513,-13,o),
(513,140,cs),
(513,238,ls),
(513,284,o),
(478,314,o),
(432,314,cs),
(386,314,o),
(351,284,o),
(351,238,cs)
);
}
);
width = 560;
},
{
layerId = "5B8359BC-834E-43C0-95AC-1478E595F26B";
shapes = (
{
closed = 1;
nodes = (
(459,1420,ls),
(422,1457,o),
(363,1476,o),
(288,1476,cs),
(142,1476,o),
(63,1409,o),
(63,1256,cs),
(63,140,ls),
(63,66,o),
(83,11,o),
(118,-24,cs),
(316,-222,ls),
(353,-259,o),
(411,-278,o),
(486,-278,cs),
(629,-278,o),
(711,-211,o),
(711,-58,cs),
(711,40,ls),
(711,60,o),
(700,83,o),
(690,93,cs),
(492,291,ls),
(479,304,o),
(456,314,o),
(432,314,cs),
(423,314,l),
(423,868,l),
(570,721,ls),
(583,708,o),
(606,698,o),
(630,698,cs),
(674,698,o),
(711,728,o),
(711,774,cs),
(711,1058,ls),
(711,1130,o),
(694,1185,o),
(657,1222,cs)
);
}
);
width = 758;
},
{
layerId = "3FC41B90-652D-4B27-AC2B-1ACF7BE26A9E";
shapes = (
{
attr = {
strokePos = 1;
};
closed = 1;
nodes = (
(416,140,ls),
(416,42,o),
(384,10,o),
(288,10,cs),
(192,10,o),
(160,42,o),
(160,140,cs),
(160,1256,ls),
(160,1354,o),
(192,1386,o),
(288,1386,cs),
(384,1386,o),
(416,1354,o),
(416,1256,cs),
(416,972,ls),
(416,960,o),
(420,956,o),
(432,956,cs),
(444,956,o),
(448,960,o),
(448,972,cs),
(448,1256,ls),
(448,1370,o),
(402,1416,o),
(288,1416,cs),
(174,1416,o),
(128,1370,o),
(128,1256,cs),
(128,140,ls),
(128,26,o),
(174,-20,o),
(288,-20,cs),
(402,-20,o),
(448,26,o),
(448,140,cs),
(448,238,ls),
(448,250,o),
(444,254,o),
(432,254,cs),
(420,254,o),
(416,250,o),
(416,238,cs)
);
}
);
width = 560;
},
{
layerId = "C167734A-3797-41AB-93B1-2512951510F4";
shapes = (
{
closed = 1;
nodes = (
(0,1086,ls),
(-67,1055,o),
(-102,991,o),
(-102,889,cs),
(-102,-227,ls),
(-102,-380,o),
(-23,-447,o),
(123,-447,cs),
(171,-447,o),
(212,-440,o),
(246,-424,cs),
(608,-255,ls),
(675,-224,o),
(711,-160,o),
(711,-58,cs),
(711,40,ls),
(711,84,o),
(676,116,o),
(630,116,cs),
(617,116,o),
(602,113,o),
(591,108,cs),
(423,30,l),
(423,592,l),
(669,706,ls),
(694,718,o),
(711,743,o),
(711,774,cs),
(711,1058,ls),
(711,1209,o),
(631,1278,o),
(486,1278,cs),
(439,1278,o),
(395,1270,o),
(363,1255,cs)
);
}
);
width = 593;
},
{
layerId = "1B23468A-8BB0-4287-A942-E04502FA5EAD";
shapes = (
{
attr = {
strokePos = 1;
};
closed = 1;
nodes = (
(371,140,ls),
(371,68,o),
(358,55,o),
(288,55,cs),
(218,55,o),
(205,68,o),
(205,140,cs),
(205,1256,ls),
(205,1328,o),
(218,1341,o),
(288,1341,cs),
(358,1341,o),
(371,1328,o),
(371,1256,cs),
(371,972,ls),
(371,935,o),
(395,911,o),
(432,911,cs),
(469,911,o),
(493,935,o),
(493,972,cs),
(493,1256,ls),
(493,1395,o),
(427,1461,o),
(288,1461,cs),
(149,1461,o),
(83,1395,o),
(83,1256,cs),
(83,140,ls),
(83,1,o),
(149,-65,o),
(288,-65,cs),
(427,-65,o),
(493,1,o),
(493,140,cs),
(493,238,ls),
(493,275,o),
(469,299,o),
(432,299,cs),
(395,299,o),
(371,275,o),
(371,238,cs)
);
}
);
width = 560;
}
);
metricLeft = "=O";
metricRight = "=O-16";
unicode = (67,99);
},
{
glyphname = D;
lastChange = "2025-08-22 13:15:18 +0000";
layers = (
{
layerId = "6F666F4F-1A96-4FED-ADB4-134214B8A633";
name = Thin;
shapes = (
{
attr = {
strokePos = "1";
};
closed = 1;
nodes = (
(351,1474,l),
(331,1478,o),
(311,1480,o),
(288,1480,cs),
(142,1480,o),
(63,1413,o),
(63,1260,cs),
(63,144,ls),
(63,-9,o),
(142,-76,o),
(288,-76,cs),
(433,-76,o),
(513,-9,o),
(513,144,cs),
(513,1560,ls),
(513,1606,o),
(478,1636,o),
(432,1636,cs),
(386,1636,o),
(351,1606,o),
(351,1560,cs)
);
},
{
attr = {
strokePos = "1";
};
closed = 1;
nodes = (
(225,1260,ls),
(225,1325,o),
(230,1330,o),
(288,1330,cs),
(346,1330,o),
(351,1325,o),
(351,1260,cs),
(351,144,ls),
(351,79,o),
(346,74,o),
(288,74,cs),
(230,74,o),
(225,79,o),
(225,144,cs)
);
}
);
width = 576;
},
{
layerId = "5B8359BC-834E-43C0-95AC-1478E595F26B";
name = Thin;
shapes = (
{
closed = 1;
nodes = (
(316,-218,ls),
(353,-255,o),
(411,-274,o),
(486,-274,cs),
(629,-274,o),
(711,-207,o),
(711,-54,cs),
(711,1362,ls),
(711,1382,o),
(702,1403,o),
(690,1415,cs),
(492,1613,ls),
(480,1625,o),
(456,1636,o),
(432,1636,cs),
(386,1636,o),
(351,1606,o),
(351,1560,cs),
(351,1475,l),
(330,1478,o),
(311,1480,o),
(288,1480,cs),
(142,1480,o),
(63,1413,o),
(63,1260,cs),
(63,144,ls),
(63,70,o),
(83,15,o),
(118,-20,cs)
);
}
);
width = 774;
},
{
layerId = "3FC41B90-652D-4B27-AC2B-1ACF7BE26A9E";
name = Thin;
shapes = (
{
attr = {
strokePos = "1";
};
closed = 1;
nodes = (
(416,1474,ls),
(416,1434,o),
(417,1399,o),
(422,1361,c),
(419,1360,l),
(396,1403,o),
(354,1420,o),
(288,1420,cs),
(174,1420,o),
(128,1374,o),
(128,1260,cs),
(128,144,ls),
(128,30,o),
(174,-16,o),
(288,-16,cs),
(402,-16,o),
(448,30,o),
(448,144,cs),
(448,1560,ls),
(448,1572,o),
(444,1576,o),
(432,1576,cs),
(420,1576,o),
(416,1572,o),
(416,1560,cs)
);
},
{
attr = {
strokePos = "1";
};
closed = 1;
nodes = (
(160,1260,ls),
(160,1358,o),
(192,1390,o),
(288,1390,cs),
(384,1390,o),
(416,1358,o),
(416,1260,cs),
(416,144,ls),
(416,46,o),
(384,14,o),
(288,14,cs),
(192,14,o),
(160,46,o),
(160,144,cs)
);
}
);
width = 576;
},
{
layerId = "C167734A-3797-41AB-93B1-2512951510F4";
name = Thin;
shapes = (
{
closed = 1;
nodes = (
(608,-251,ls),
(675,-220,o),
(711,-156,o),
(711,-54,cs),
(711,1362,ls),
(711,1406,o),
(676,1438,o),
(630,1438,cs),
(617,1438,o),
(602,1435,o),
(591,1430,cs),
(228,1261,ls),
(201,1249,o),
(186,1225,o),
(186,1193,cs),
(186,1177,l),
(0,1090,ls),
(-67,1059,o),
(-102,995,o),
(-102,893,cs),
(-102,-223,ls),
(-102,-376,o),
(-23,-443,o),
(123,-443,cs),
(171,-443,o),
(212,-436,o),
(246,-420,cs)
);
}
);
width = 609;
},
{
layerId = "1B23468A-8BB0-4287-A942-E04502FA5EAD";
name = Thin;
shapes = (
{
attr = {
strokePos = "1";
};
closed = 1;
nodes = (
(371,1454,l),
(346,1462,o),
(319,1465,o),
(288,1465,cs),
(149,1465,o),
(83,1399,o),
(83,1260,cs),
(83,144,ls),
(83,5,o),
(149,-61,o),
(288,-61,cs),
(427,-61,o),
(493,5,o),
(493,144,cs),
(493,1560,ls),
(493,1597,o),
(469,1621,o),
(432,1621,cs),
(395,1621,o),
(371,1597,o),
(371,1560,cs)
);
},
{
attr = {
strokePos = "1";
};
closed = 1;
nodes = (
(205,1260,ls),
(205,1332,o),
(218,1345,o),
(288,1345,cs),
(358,1345,o),
(371,1332,o),
(371,1260,cs),
(371,144,ls),
(371,72,o),
(358,59,o),
(288,59,cs),
(218,59,o),
(205,72,o),
(205,144,cs)
);
}
);
width = 576;
}
);
metricLeft = "=O";
metricRight = "=|";
unicode = (68,100);
},
{
glyphname = E;
lastChange = "2025-08-22 13:15:21 +0000";
layers = (
{
layerId = "6F666F4F-1A96-4FED-ADB4-134214B8A633";
shapes = (
{
attr = {
strokePos = "1";
};
closed = 1;
nodes = (
(431,-80,o),
(513,2,o),
(513,140,cs),
(513,252,ls),
(513,298,o),
(478,328,o),
(432,328,cs),
(386,328,o),
(351,298,o),
(351,252,cs),
(351,140,ls),
(351,83,o),
(339,70,o),
(288,70,cs),
(237,70,o),
(225,83,o),
(225,140,cs),
(225,718,ls),
(225,775,o),
(237,788,o),
(288,788,cs),
(366,788,ls),
(410,788,o),
(445,818,o),
(445,862,cs),
(445,864,ls),
(445,908,o),
(410,938,o),
(366,938,cs),
(288,938,ls),
(230,938,o),
(225,943,o),
(225,1008,cs),
(225,1256,ls),
(225,1321,o),
(230,1326,o),
(288,1326,cs),
(346,1326,o),
(351,1321,o),
(351,1256,cs),
(351,1158,ls),
(351,1112,o),
(386,1082,o),
(432,1082,cs),
(478,1082,o),
(513,1112,o),
(513,1158,cs),
(513,1256,ls),
(513,1409,o),
(433,1476,o),
(288,1476,cs),
(142,1476,o),
(63,1409,o),
(63,1256,cs),
(63,1008,ls),
(63,943,o),
(76,894,o),
(106,860,c),
(76,824,o),
(63,775,o),
(63,718,cs),
(63,140,ls),
(63,2,o),
(144,-80,o),
(288,-80,cs)
);
}
);
width = 560;
},
{
layerId = "5B8359BC-834E-43C0-95AC-1478E595F26B";
shapes = (
{
closed = 1;
nodes = (
(492,305,ls),
(479,318,o),
(456,328,o),
(432,328,cs),
(423,328,l),
(423,520,ls),
(423,575,o),
(435,590,o),
(486,590,cs),
(564,590,ls),
(606,590,o),
(643,620,o),
(643,664,cs),
(643,666,ls),
(643,685,o),
(635,705,o),
(623,717,cs),
(423,917,l),
(423,1054,l),
(570,907,ls),
(583,894,o),
(606,884,o),
(630,884,cs),
(674,884,o),
(711,914,o),
(711,960,cs),
(711,1058,ls),
(711,1130,o),
(694,1185,o),
(657,1222,cs),
(459,1420,ls),
(422,1457,o),
(363,1476,o),
(288,1476,cs),
(142,1476,o),
(63,1409,o),
(63,1256,cs),
(63,1008,ls),
(63,943,o),
(76,894,o),
(106,860,c),
(76,824,o),
(63,775,o),
(63,718,cs),
(63,140,ls),
(63,72,o),
(86,14,o),
(121,-21,cs),
(319,-219,ls),
(354,-254,o),
(414,-278,o),
(486,-278,cs),
(627,-278,o),
(711,-196,o),
(711,-58,cs),
(711,54,ls),
(711,74,o),
(700,97,o),
(690,107,cs)
);
}
);
width = 758;
},
{
layerId = "3FC41B90-652D-4B27-AC2B-1ACF7BE26A9E";
shapes = (
{
attr = {
strokePos = "1";
};
closed = 1;
nodes = (
(394,-20,o),
(448,34,o),
(448,140,cs),
(448,252,ls),
(448,264,o),
(444,268,o),
(432,268,cs),
(420,268,o),
(416,264,o),
(416,252,cs),
(416,140,ls),
(416,50,o),
(376,10,o),
(288,10,cs),
(200,10,o),
(160,50,o),
(160,140,cs),
(160,718,ls),
(160,808,o),
(200,848,o),
(288,848,cs),
(366,848,ls),
(376,848,o),
(380,852,o),
(380,862,cs),
(380,864,ls),
(380,874,o),
(376,878,o),
(366,878,cs),
(288,878,ls),
(192,878,o),
(160,910,o),
(160,1008,cs),
(160,1256,ls),
(160,1354,o),
(192,1386,o),
(288,1386,cs),
(384,1386,o),
(416,1354,o),
(416,1256,cs),
(416,1158,ls),
(416,1146,o),
(420,1142,o),
(432,1142,cs),
(444,1142,o),
(448,1146,o),
(448,1158,cs),
(448,1256,ls),
(448,1370,o),
(402,1416,o),
(288,1416,cs),
(174,1416,o),
(128,1370,o),
(128,1256,cs),
(128,1008,ls),
(128,928,o),
(144,878,o),
(228,864,c),
(228,860,l),
(144,844,o),
(128,786,o),
(128,718,cs),
(128,140,ls),
(128,34,o),
(182,-20,o),
(288,-20,cs)
);
}
);
width = 560;
},
{
layerId = "C167734A-3797-41AB-93B1-2512951510F4";
shapes = (
{
closed = 1;
nodes = (
(600,-255,ls),
(671,-222,o),
(711,-153,o),
(711,-58,cs),
(711,54,ls),
(711,98,o),
(676,130,o),
(630,130,cs),
(617,130,o),
(602,127,o),
(591,122,cs),
(423,44,l),
(423,515,l),
(601,598,ls),
(625,609,o),
(643,634,o),
(643,664,cs),
(643,666,ls),
(643,708,o),
(608,740,o),
(564,740,cs),
(486,740,ls),
(441,740,o),
(427,744,o),
(424,778,c),
(669,892,ls),
(694,904,o),
(711,929,o),
(711,960,cs),
(711,1058,ls),
(711,1209,o),
(631,1278,o),
(486,1278,cs),
(439,1278,o),
(395,1270,o),
(363,1255,cs),
(0,1086,ls),
(-67,1055,o),
(-102,991,o),
(-102,889,cs),
(-102,641,ls),
(-102,576,o),
(-89,527,o),
(-59,493,c),
(-89,457,o),
(-102,408,o),
(-102,351,cs),
(-102,-227,ls),
(-102,-365,o),
(-21,-447,o),
(123,-447,cs),
(167,-447,o),
(205,-439,o),
(238,-424,cs)
);
}
);
width = 593;
},
{
layerId = "1B23468A-8BB0-4287-A942-E04502FA5EAD";
shapes = (
{
attr = {
strokePos = "1";
};
closed = 1;
nodes = (
(419,-65,o),
(493,9,o),
(493,140,cs),
(493,252,ls),
(493,289,o),
(469,313,o),
(432,313,cs),
(395,313,o),
(371,289,o),
(371,252,cs),
(371,140,ls),
(371,75,o),
(351,55,o),
(288,55,cs),
(225,55,o),
(205,75,o),
(205,140,cs),
(205,718,ls),
(205,783,o),
(225,803,o),
(288,803,cs),
(366,803,ls),
(401,803,o),
(425,827,o),
(425,862,cs),
(425,864,ls),
(425,899,o),
(401,923,o),
(366,923,cs),
(288,923,ls),
(218,923,o),
(205,936,o),
(205,1008,cs),
(205,1256,ls),
(205,1328,o),
(218,1341,o),
(288,1341,cs),
(358,1341,o),
(371,1328,o),
(371,1256,cs),
(371,1158,ls),
(371,1121,o),
(395,1097,o),
(432,1097,cs),
(469,1097,o),
(493,1121,o),
(493,1158,cs),
(493,1256,ls),
(493,1395,o),
(427,1461,o),
(288,1461,cs),
(149,1461,o),
(83,1395,o),
(83,1256,cs),
(83,1008,ls),
(83,949,o),
(93,896,o),
(130,861,c),
(93,824,o),
(83,769,o),
(83,718,cs),
(83,140,ls),
(83,9,o),
(157,-65,o),
(288,-65,cs)
);
}
);
width = 560;
}
);
metricLeft = O;
metricRight = "=O-16";
unicode = (69,101);
},
{
glyphname = F;
kernLeft = P;
kernRight = P;
lastChange = "2025-08-22 13:15:21 +0000";
layers = (
{
layerId = "6F666F4F-1A96-4FED-ADB4-134214B8A633";
name = Thin;
shapes = (
{
attr = {
strokePos = 0;
};
closed = 1;
nodes = (
(157,-76,o),
(193,-45,o),
(193,0,cs),
(193,827,l),
(368,827,ls),
(413,827,o),
(448,857,o),
(448,902,cs),
(448,947,o),
(413,977,o),
(368,977,cs),
(193,977,l),
(193,1256,ls),
(193,1321,o),
(198,1326,o),
(256,1326,cs),
(314,1326,o),
(319,1321,o),
(319,1256,cs),
(319,1158,ls),
(319,1113,o),
(355,1082,o),
(400,1082,cs),
(445,1082,o),
(481,1113,o),
(481,1158,cs),
(481,1256,ls),
(481,1409,o),
(401,1476,o),
(256,1476,cs),
(221,1476,o),
(189,1472,o),
(160,1463,c),
(149,1473,o),
(136,1483,o),
(108,1483,cs),
(65,1483,o),
(25,1446,o),
(25,1405,cs),
(25,1386,o),
(32,1370,o),
(46,1355,c),
(36,1327,o),
(31,1296,o),
(31,1256,cs),
(31,0,ls),
(31,-45,o),
(67,-76,o),
(112,-76,cs)
);
}
);
width = 480;
},
{
layerId = "5B8359BC-834E-43C0-95AC-1478E595F26B";
name = Thin;
shapes = (
{
closed = 1;
nodes = (
(427,954,ls),
(419,962,o),
(406,970,o),
(391,974,c),
(391,1055,l),
(538,908,ls),
(552,894,o),
(574,884,o),
(598,884,cs),
(641,884,o),
(679,915,o),
(679,960,cs),
(679,1058,ls),
(679,1130,o),
(662,1185,o),
(625,1222,cs),
(427,1420,ls),
(390,1457,o),
(331,1476,o),
(256,1476,cs),
(221,1476,o),
(189,1472,o),
(160,1463,c),
(149,1473,o),
(136,1483,o),
(108,1483,cs),
(65,1483,o),
(25,1446,o),
(25,1405,cs),
(25,1386,o),
(32,1370,o),
(46,1355,c),
(36,1327,o),
(31,1296,o),
(31,1256,cs),
(31,0,ls),
(31,-21,o),
(39,-39,o),
(52,-52,cs),
(250,-250,ls),
(264,-264,o),
(286,-274,o),
(310,-274,cs),
(353,-274,o),
(391,-243,o),
(391,-198,cs),
(391,629,l),
(566,629,ls),
(609,629,o),
(646,659,o),
(646,704,cs),
(646,724,o),
(638,743,o),
(625,756,cs)
);
}
);
width = 678;
},
{
background = {
shapes = (
{
closed = 0;
nodes = (
(96,1393,ls),
(92,1397,o),
(90,1401,o),
(90,1405,cs),
(90,1408,o),
(92,1412,o),
(96,1416,cs),
(100,1420,o),
(104,1422,o),
(108,1422,cs),
(111,1422,o),
(115,1420,o),
(119,1416,cs)
);
}
);
};
layerId = "3FC41B90-652D-4B27-AC2B-1ACF7BE26A9E";
name = Thin;
shapes = (
{
attr = {
strokePos = 0;
};
closed = 1;
nodes = (
(123,-16,o),
(128,-11,o),
(128,0,cs),
(128,887,l),
(368,887,ls),
(379,887,o),
(383,891,o),
(383,902,cs),
(383,913,o),
(379,917,o),
(368,917,cs),
(128,917,l),
(128,1256,ls),
(128,1354,o),
(160,1386,o),
(256,1386,cs),
(352,1386,o),
(384,1354,o),
(384,1256,cs),
(384,1158,ls),
(384,1147,o),
(389,1142,o),
(400,1142,cs),
(411,1142,o),
(416,1147,o),
(416,1158,cs),
(416,1256,ls),
(416,1370,o),
(370,1416,o),
(256,1416,cs),
(207,1416,o),
(171,1407,o),
(146,1389,c),
(119,1416,ls),
(115,1420,o),
(112,1422,o),
(108,1422,cs),
(104,1422,o),
(101,1421,o),
(96,1416,cs),
(91,1411,o),
(90,1408,o),
(90,1405,cs),
(90,1400,o),
(91,1398,o),
(96,1393,cs),
(123,1366,l),
(105,1341,o),
(96,1305,o),
(96,1256,cs),
(96,0,ls),
(96,-11,o),
(101,-16,o),
(112,-16,cs)
);
}
);
width = 480;
},
{
layerId = "C167734A-3797-41AB-93B1-2512951510F4";
name = Thin;
shapes = (
{
closed = 1;
nodes = (
(348,-266,ls),
(373,-254,o),
(391,-229,o),
(391,-198,cs),
(391,538,l),
(604,637,ls),
(628,648,o),
(646,673,o),
(646,704,cs),
(646,747,o),
(611,779,o),
(566,779,cs),
(393,779,l),
(636,892,ls),
(661,904,o),
(679,929,o),
(679,960,cs),
(679,1058,ls),
(679,1209,o),
(599,1278,o),
(454,1278,cs),
(420,1278,o),
(387,1274,o),
(358,1265,c),
(345,1274,o),
(326,1284,o),
(306,1284,cs),
(296,1284,o),
(282,1281,o),
(271,1276,cs),
(-91,1107,ls),
(-102,1101,o),
(-112,1094,o),
(-115,1091,cs),
(-125,1081,o),
(-140,1058,o),
(-140,1038,cs),
(-140,1019,o),
(-131,1002,o),
(-119,988,c),
(-129,960,o),
(-134,929,o),
(-134,889,cs),
(-134,-367,ls),
(-134,-412,o),
(-98,-443,o),
(-53,-443,cs),
(-39,-443,o),
(-26,-440,o),
(-15,-435,cs)
);
}
);
width = 513;
},
{
layerId = "1B23468A-8BB0-4287-A942-E04502FA5EAD";
name = Thin;
shapes = (
{
attr = {
strokePos = 0;
};
closed = 1;
nodes = (
(148,-61,o),
(173,-36,o),
(173,0,cs),
(173,842,l),
(368,842,ls),
(404,842,o),
(428,866,o),
(428,902,cs),
(428,938,o),
(404,962,o),
(368,962,cs),
(173,962,l),
(173,1256,ls),
(173,1328,o),
(186,1341,o),
(256,1341,cs),
(326,1341,o),
(339,1328,o),
(339,1256,cs),
(339,1158,ls),
(339,1122,o),
(364,1097,o),
(400,1097,cs),
(436,1097,o),
(461,1122,o),
(461,1158,cs),
(461,1256,ls),
(461,1395,o),
(395,1461,o),
(256,1461,cs),
(217,1461,o),
(184,1456,o),
(154,1444,c),
(135,1464,o),
(125,1467,o),
(108,1467,cs),
(75,1467,o),
(45,1438,o),
(45,1405,cs),
(45,1386,o),
(48,1376,o),
(68,1358,c),
(56,1328,o),
(51,1295,o),
(51,1256,cs),
(51,0,ls),
(51,-36,o),
(76,-61,o),
(112,-61,cs)
);
}
);
width = 480;
}
);
metricRight = "=O-64";
unicode = (70,102);
},
{
glyphname = G;
lastChange = "2025-08-08 05:37:41 +0000";
layers = (
{
layerId = "6F666F4F-1A96-4FED-ADB4-134214B8A633";
shapes = (
{
attr = {
strokePos = "1";
};
closed = 1;
nodes = (
(433,-80,o),
(513,-13,o),
(513,140,cs),
(513,558,ls),
(513,711,o),
(433,778,o),
(288,778,cs),
(252,778,l),
(299,904,l),
(433,904,o),
(513,971,o),
(513,1124,cs),
(513,1256,ls),
(513,1296,o),
(508,1327,o),
(498,1355,c),
(512,1368,o),
(518,1382,o),
(518,1405,cs),
(518,1449,o),
(473,1483,o),
(436,1483,cs),
(412,1483,o),
(396,1474,o),
(384,1463,c),
(355,1472,o),
(323,1476,o),
(288,1476,cs),
(142,1476,o),
(63,1409,o),
(63,1256,cs),
(63,1124,ls),
(63,1031,o),
(92,973,o),
(142,940,c),
(68,748,ls),
(64,737,o),
(61,724,o),
(61,712,cs),
(61,659,o),
(107,628,o),
(156,628,cs),
(288,628,ls),
(346,628,o),
(351,623,o),
(351,558,cs),
(351,140,ls),
(351,75,o),
(346,70,o),
(288,70,cs),
(230,70,o),
(225,75,o),
(225,140,cs),
(225,460,ls),
(225,505,o),
(189,536,o),
(144,536,cs),
(99,536,o),
(63,505,o),
(63,460,cs),
(63,140,ls),
(63,-13,o),
(142,-80,o),
(288,-80,cs)
);
},
{
attr = {
strokePos = "1";
};
closed = 1;
nodes = (
(225,1256,ls),
(225,1321,o),
(230,1326,o),
(288,1326,cs),
(346,1326,o),
(351,1321,o),
(351,1256,cs),
(351,1124,ls),
(351,1059,o),
(346,1054,o),
(288,1054,cs),
(230,1054,o),
(225,1059,o),
(225,1124,cs)
);
}
);
width = 576;
},
{
layerId = "5B8359BC-834E-43C0-95AC-1478E595F26B";
shapes = (
{
closed = 1;
nodes = (
(491,690,l),
(497,708,l),
(635,708,o),
(711,777,o),
(711,926,cs),
(711,1058,ls),
(711,1096,o),
(706,1129,o),
(696,1157,c),
(710,1172,o),
(717,1188,o),
(717,1207,cs),
(717,1225,o),
(708,1244,o),
(692,1260,cs),
(495,1457,ls),
(483,1469,o),
(460,1483,o),
(436,1483,cs),
(412,1483,o),
(396,1474,o),
(384,1463,c),
(355,1472,o),
(323,1476,o),
(288,1476,cs),
(142,1476,o),
(63,1409,o),
(63,1256,cs),
(63,1124,ls),
(63,1048,o),
(85,993,o),
(118,960,cs),
(141,937,l),
(68,748,ls),
(64,737,o),
(61,722,o),
(61,712,cs),
(61,689,o),
(70,670,o),
(84,656,cs),
(282,458,ls),
(298,442,o),
(324,431,o),
(351,430,c),
(351,366,l),
(204,513,ls),
(192,525,o),
(168,536,o),
(144,536,cs),
(99,536,o),
(63,505,o),
(63,460,cs),
(63,140,ls),
(63,66,o),
(83,11,o),
(118,-24,cs),
(316,-222,ls),
(353,-259,o),
(411,-278,o),
(486,-278,cs),
(629,-278,o),
(711,-211,o),
(711,-58,cs),
(711,360,ls),
(711,432,o),
(694,487,o),
(657,524,cs)
);
}
);
width = 576;
},
{
layerId = "3FC41B90-652D-4B27-AC2B-1ACF7BE26A9E";
shapes = (
{
attr = {
strokePos = "1";
};
closed = 1;
nodes = (
(402,-20,o),
(448,26,o),
(448,140,cs),
(448,558,ls),
(448,672,o),
(402,718,o),
(288,718,cs),
(160,718,l),
(254,966,l),
(264,965,o),
(276,964,o),
(288,964,cs),
(402,964,o),
(448,1010,o),
(448,1124,cs),
(448,1256,ls),
(448,1305,o),
(439,1341,o),
(421,1366,c),
(448,1393,ls),
(452,1397,o),
(454,1401,o),
(454,1405,cs),
(454,1408,o),
(452,1412,o),
(448,1416,cs),
(444,1420,o),
(440,1422,o),
(436,1422,cs),
(433,1422,o),
(429,1420,o),
(425,1416,cs),
(398,1389,l),
(373,1407,o),
(337,1416,o),
(288,1416,cs),
(174,1416,o),
(128,1370,o),
(128,1256,cs),
(128,1124,ls),
(128,1035,o),
(155,988,o),
(223,971,c),
(129,726,ls),
(127,721,o),
(126,716,o),
(126,712,cs),
(126,697,o),
(137,688,o),
(156,688,cs),
(288,688,ls),
(384,688,o),
(416,656,o),
(416,558,cs),
(416,140,ls),
(416,42,o),
(384,10,o),
(288,10,cs),
(192,10,o),
(160,42,o),
(160,140,cs),
(160,460,ls),
(160,471,o),
(155,476,o),
(144,476,cs),
(133,476,o),
(128,471,o),
(128,460,cs),
(128,140,ls),
(128,26,o),
(174,-20,o),
(288,-20,cs)
);
},
{
attr = {
strokePos = "1";
};
closed = 1;
nodes = (
(160,1256,ls),
(160,1354,o),
(192,1386,o),
(288,1386,cs),
(384,1386,o),
(416,1354,o),
(416,1256,cs),
(416,1124,ls),
(416,1026,o),
(384,994,o),
(288,994,cs),
(192,994,o),
(160,1026,o),
(160,1124,cs)
);
}
);
width = 576;
},
{
layerId = "C167734A-3797-41AB-93B1-2512951510F4";
shapes = (
{
closed = 1;
nodes = (
(608,-255,ls),
(675,-224,o),
(711,-160,o),
(711,-58,cs),
(711,360,ls),
(711,511,o),
(631,580,o),
(486,580,cs),
(450,580,l),
(484,671,l),
(608,729,ls),
(675,760,o),
(711,824,o),
(711,926,cs),
(711,1058,ls),
(711,1096,o),
(706,1129,o),
(696,1157,c),
(707,1170,o),
(717,1188,o),
(717,1207,cs),
(717,1225,o),
(708,1244,o),
(692,1260,cs),
(681,1271,o),
(655,1284,o),
(634,1284,cs),
(624,1284,o),
(611,1281,o),
(600,1276,cs),
(579,1266,l),
(551,1275,o),
(520,1278,o),
(486,1278,cs),
(439,1278,o),
(395,1270,o),
(363,1255,cs),
(0,1086,ls),
(-67,1055,o),
(-102,991,o),
(-102,889,cs),
(-102,757,ls),
(-102,664,o),
(-73,606,o),
(-23,573,c),
(-97,381,ls),
(-101,370,o),
(-104,357,o),
(-104,345,cs),
(-104,292,o),
(-58,261,o),
(-9,261,cs),
(123,261,ls),
(136,261,o),
(146,261,o),
(154,260,c),
(-59,161,ls),
(-85,149,o),
(-102,125,o),
(-102,93,cs),
(-102,-227,ls),
(-102,-380,o),
(-23,-447,o),
(123,-447,cs),
(171,-447,o),
(212,-440,o),
(246,-424,cs)
);
}
);
width = 576;
},
{
layerId = "1B23468A-8BB0-4287-A942-E04502FA5EAD";
shapes = (
{
attr = {
strokePos = "1";
};
closed = 1;
nodes = (
(427,-65,o),
(493,1,o),
(493,140,cs),
(493,558,ls),
(493,697,o),
(427,763,o),
(288,763,cs),
(225,763,l),
(284,919,l),
(288,919,ls),
(427,919,o),
(493,985,o),
(493,1124,cs),
(493,1256,ls),
(493,1295,o),
(488,1328,o),
(476,1358,c),
(496,1376,o),
(499,1386,o),
(499,1405,cs),
(499,1438,o),
(469,1467,o),
(436,1467,cs),
(419,1467,o),
(409,1464,o),
(390,1444,c),
(360,1456,o),
(327,1461,o),
(288,1461,cs),
(149,1461,o),
(83,1395,o),
(83,1256,cs),
(83,1124,ls),
(83,1038,o),
(108,978,o),
(165,946,c),
(87,742,ls),
(83,732,o),
(81,721,o),
(81,712,cs),
(81,672,o),
(112,643,o),
(156,643,cs),
(288,643,ls),
(358,643,o),
(371,630,o),
(371,558,cs),
(371,140,ls),
(371,68,o),
(358,55,o),
(288,55,cs),
(218,55,o),
(205,68,o),
(205,140,cs),
(205,460,ls),
(205,496,o),
(180,521,o),
(144,521,cs),
(108,521,o),
(83,496,o),
(83,460,cs),
(83,140,ls),
(83,1,o),
(149,-65,o),
(288,-65,cs)
);
},
{
attr = {
strokePos = "1";
};
closed = 1;
nodes = (
(205,1256,ls),
(205,1328,o),
(218,1341,o),
(288,1341,cs),
(358,1341,o),
(371,1328,o),
(371,1256,cs),
(371,1124,ls),
(371,1052,o),
(358,1039,o),
(288,1039,cs),
(218,1039,o),
(205,1052,o),
(205,1124,cs)
);
}
);
width = 576;
}
);
unicode = (71,103);
},
{
glyphname = H;
lastChange = "2025-08-22 13:15:18 +0000";
layers = (
{
layerId = "6F666F4F-1A96-4FED-ADB4-134214B8A633";
shapes = (
{
attr = {
strokePos = "1";
};
closed = 1;
nodes = (
(478,-62,o),
(513,-32,o),
(513,14,cs),
(513,1386,ls),
(513,1432,o),
(478,1462,o),
(432,1462,cs),
(386,1462,o),
(351,1432,o),
(351,1386,cs),
(351,1042,l),
(225,1042,l),
(225,1386,ls),
(225,1432,o),
(190,1462,o),
(144,1462,cs),
(98,1462,o),
(63,1432,o),
(63,1386,cs),
(63,14,ls),
(63,-32,o),
(98,-62,o),
(144,-62,cs),
(190,-62,o),
(225,-32,o),
(225,14,cs),
(225,892,l),
(351,892,l),
(351,14,ls),
(351,-32,o),
(386,-62,o),
(432,-62,cs)
);
}
);
width = 576;
},
{
layerId = "5B8359BC-834E-43C0-95AC-1478E595F26B";
shapes = (
{
closed = 1;
nodes = (
(492,1439,ls),
(480,1451,o),
(456,1462,o),
(432,1462,cs),
(386,1462,o),
(351,1432,o),
(351,1386,cs),
(351,1292,l),
(204,1439,ls),
(192,1451,o),
(168,1462,o),
(144,1462,cs),
(98,1462,o),
(63,1432,o),
(63,1386,cs),
(63,14,ls),
(63,-8,o),
(72,-27,o),
(84,-39,cs),
(282,-237,ls),
(294,-249,o),
(318,-260,o),
(342,-260,cs),
(386,-260,o),
(423,-230,o),
(423,-184,cs),
(423,-90,l),
(570,-237,ls),
(582,-249,o),
(606,-260,o),
(630,-260,cs),
(674,-260,o),
(711,-230,o),
(711,-184,cs),
(711,1188,ls),
(711,1208,o),
(702,1229,o),
(690,1241,cs)
);
}
);
width = 774;
},
{
layerId = "3FC41B90-652D-4B27-AC2B-1ACF7BE26A9E";
shapes = (
{
attr = {
strokePos = "1";
};
closed = 1;
nodes = (
(444,-2,o),
(448,2,o),
(448,14,cs),
(448,1386,ls),
(448,1398,o),
(444,1402,o),
(432,1402,cs),
(420,1402,o),
(416,1398,o),
(416,1386,cs),
(416,982,l),
(160,982,l),
(160,1386,ls),
(160,1398,o),
(156,1402,o),
(144,1402,cs),
(132,1402,o),
(128,1398,o),
(128,1386,cs),
(128,14,ls),
(128,2,o),
(132,-2,o),
(144,-2,cs),
(156,-2,o),
(160,2,o),
(160,14,cs),
(160,952,l),
(416,952,l),
(416,14,ls),
(416,2,o),
(420,-2,o),
(432,-2,cs)
);
}
);
width = 576;
},
{
layerId = "C167734A-3797-41AB-93B1-2512951510F4";
shapes = (
{
closed = 1;
nodes = (
(668,-252,ls),
(694,-240,o),
(711,-215,o),
(711,-184,cs),
(711,1188,ls),
(711,1232,o),
(676,1264,o),
(630,1264,cs),
(617,1264,o),
(602,1261,o),
(591,1256,cs),
(423,1177,l),
(423,1188,ls),
(423,1232,o),
(388,1264,o),
(342,1264,cs),
(329,1264,o),
(314,1261,o),
(303,1256,cs),
(-60,1087,ls),
(-87,1075,o),
(-102,1051,o),
(-102,1019,cs),
(-102,-353,ls),
(-102,-399,o),
(-67,-429,o),
(-21,-429,cs),
(-7,-429,o),
(7,-426,o),
(18,-421,cs),
(186,-342,l),
(186,-353,ls),
(186,-399,o),
(221,-429,o),
(267,-429,cs),
(281,-429,o),
(295,-426,o),
(306,-421,cs)
);
}
);
width = 609;
},
{
layerId = "1B23468A-8BB0-4287-A942-E04502FA5EAD";
shapes = (
{
attr = {
strokePos = "1";
};
closed = 1;
nodes = (
(469,-47,o),
(493,-22,o),
(493,14,cs),
(493,1386,ls),
(493,1423,o),
(469,1447,o),
(432,1447,cs),
(395,1447,o),
(371,1423,o),
(371,1386,cs),
(371,1027,l),
(205,1027,l),
(205,1386,ls),
(205,1423,o),
(181,1447,o),
(144,1447,cs),
(107,1447,o),
(83,1423,o),
(83,1386,cs),
(83,14,ls),
(83,-22,o),
(107,-47,o),
(144,-47,cs),
(181,-47,o),
(205,-22,o),
(205,14,cs),
(205,907,l),
(371,907,l),
(371,14,ls),
(371,-22,o),
(395,-47,o),
(432,-47,cs)
);
}
);
width = 576;
}
);
metricRight = "=|";
unicode = (72,104);
},
{
glyphname = I;
lastChange = "2025-08-22 13:15:18 +0000";
layers = (
{
layerId = "6F666F4F-1A96-4FED-ADB4-134214B8A633";
shapes = (
{
closed = 1;
nodes = (
(63,14,ls),
(63,-32,o),
(98,-62,o),
(144,-62,cs),
(190,-62,o),
(225,-32,o),
(225,14,cs),
(225,1386,ls),
(225,1432,o),
(190,1462,o),
(144,1462,cs),
(98,1462,o),
(63,1432,o),
(63,1386,cs)
);
}
);
width = 288;
},
{
layerId = "5B8359BC-834E-43C0-95AC-1478E595F26B";
shapes = (
{
closed = 1;
nodes = (
(282,-237,ls),
(294,-249,o),
(318,-260,o),
(342,-260,cs),
(386,-260,o),
(423,-230,o),
(423,-184,cs),
(423,1188,ls),
(423,1208,o),
(414,1229,o),
(402,1241,cs),
(204,1439,ls),
(192,1451,o),
(168,1462,o),
(144,1462,cs),
(98,1462,o),
(63,1432,o),
(63,1386,cs),
(63,14,ls),
(63,-8,o),
(72,-27,o),
(84,-39,cs)
);
}
);
width = 486;
},
{
layerId = "3FC41B90-652D-4B27-AC2B-1ACF7BE26A9E";
shapes = (
{
closed = 1;
nodes = (
(128,14,ls),
(128,2,o),
(132,-2,o),
(144,-2,cs),
(156,-2,o),
(160,2,o),
(160,14,cs),
(160,1386,ls),
(160,1398,o),
(156,1402,o),
(144,1402,cs),
(132,1402,o),
(128,1398,o),
(128,1386,cs)
);
}
);
width = 288;
},
{
layerId = "C167734A-3797-41AB-93B1-2512951510F4";
shapes = (
{
closed = 1;
nodes = (
(380,-252,ls),
(406,-240,o),
(423,-215,o),
(423,-184,cs),
(423,1188,ls),
(423,1232,o),
(388,1264,o),
(342,1264,cs),
(329,1264,o),
(314,1261,o),
(303,1256,cs),
(-60,1087,ls),
(-87,1075,o),
(-102,1051,o),
(-102,1019,cs),
(-102,-353,ls),
(-102,-399,o),
(-67,-429,o),
(-21,-429,cs),
(-7,-429,o),
(7,-426,o),
(18,-421,cs)
);
}
);
width = 321;
},
{
layerId = "1B23468A-8BB0-4287-A942-E04502FA5EAD";
shapes = (
{
closed = 1;
nodes = (
(83,14,ls),
(83,-22,o),
(107,-47,o),
(144,-47,cs),
(181,-47,o),
(205,-22,o),
(205,14,cs),
(205,1386,ls),
(205,1423,o),
(181,1447,o),
(144,1447,cs),
(107,1447,o),
(83,1423,o),
(83,1386,cs)
);
}
);
width = 288;
}
);
metricLeft = H;
metricRight = "=|";
unicode = (73,105);
},
{
glyphname = J;
kernLeft = J;
lastChange = "2025-08-22 13:15:21 +0000";
layers = (
{
layerId = "6F666F4F-1A96-4FED-ADB4-134214B8A633";
shapes = (
{
attr = {
strokePos = "1";
};
closed = 1;
nodes = (
(295,-80,o),
(369,-22,o),
(369,108,cs),
(369,1386,ls),
(369,1431,o),
(333,1462,o),
(288,1462,cs),
(243,1462,o),
(207,1431,o),
(207,1386,cs),
(207,108,ls),
(207,70,o),
(207,70,o),
(176,70,cs),
(145,70,o),
(145,70,o),
(145,108,cs),
(145,153,o),
(109,184,o),
(64,184,cs),
(19,184,o),
(-17,153,o),
(-17,108,cs),
(-17,-22,o),
(57,-80,o),
(176,-80,cs)
);
}
);
width = 432;
},
{
layerId = "5B8359BC-834E-43C0-95AC-1478E595F26B";
shapes = (
{
closed = 1;
nodes = (
(348,1439,ls),
(336,1451,o),
(312,1462,o),
(288,1462,cs),
(243,1462,o),
(207,1431,o),
(207,1386,cs),
(207,108,ls),
(207,94,o),
(207,84,o),
(206,79,c),
(124,161,ls),
(111,174,o),
(88,184,o),
(64,184,cs),
(19,184,o),
(-17,153,o),
(-17,108,cs),
(-17,46,o),
(1,-1,o),
(31,-31,cs),
(229,-229,ls),
(260,-260,o),
(312,-278,o),
(374,-278,cs),
(491,-278,o),
(567,-220,o),
(567,-90,cs),
(567,1188,ls),
(567,1208,o),
(558,1229,o),
(546,1241,cs)
);
}
);
width = 630;
},
{
layerId = "3FC41B90-652D-4B27-AC2B-1ACF7BE26A9E";
shapes = (
{
attr = {
strokePos = "1";
};
closed = 1;
nodes = (
(266,-20,o),
(304,18,o),
(304,108,cs),
(304,1386,ls),
(304,1397,o),
(299,1402,o),
(288,1402,cs),
(277,1402,o),
(272,1397,o),
(272,1386,cs),
(272,108,ls),
(272,34,o),
(248,10,o),
(176,10,cs),
(104,10,o),
(80,34,o),
(80,108,cs),
(80,119,o),
(75,124,o),
(64,124,cs),
(53,124,o),
(48,119,o),
(48,108,cs),
(48,18,o),
(86,-20,o),
(176,-20,cs)
);
}
);
width = 432;
},
{
layerId = "C167734A-3797-41AB-93B1-2512951510F4";
shapes = (
{
closed = 1;
nodes = (
(476,-258,ls),
(533,-231,o),
(567,-177,o),
(567,-90,cs),
(567,1188,ls),
(567,1231,o),
(531,1264,o),
(486,1264,cs),
(474,1264,o),
(459,1261,o),
(448,1256,cs),
(85,1087,ls),
(59,1075,o),
(42,1051,o),
(42,1019,cs),
(42,-107,l),
(-139,-191,ls),
(-165,-203,o),
(-182,-227,o),
(-182,-259,cs),
(-182,-389,o),
(-108,-447,o),
(11,-447,cs),
(51,-447,o),
(85,-440,o),
(114,-427,cs)
);
}
);
width = 465;
},
{
layerId = "1B23468A-8BB0-4287-A942-E04502FA5EAD";
shapes = (
{
attr = {
strokePos = "1";
};
closed = 1;
nodes = (
(291,-65,o),
(349,-8,o),
(349,108,cs),
(349,1386,ls),
(349,1422,o),
(324,1447,o),
(288,1447,cs),
(252,1447,o),
(227,1422,o),
(227,1386,cs),
(227,108,ls),
(227,60,o),
(222,55,o),
(176,55,cs),
(130,55,o),
(125,60,o),
(125,108,cs),
(125,144,o),
(100,169,o),
(64,169,cs),
(28,169,o),
(3,144,o),
(3,108,cs),
(3,-8,o),
(60,-65,o),
(176,-65,cs)
);
}
);
width = 432;
}
);
metricRight = "=O";
unicode = (74,106);
},
{
glyphname = K;
lastChange = "2025-08-08 05:16:29 +0000";
layers = (
{
layerId = "6F666F4F-1A96-4FED-ADB4-134214B8A633";
shapes = (
{
attr = {
strokePos = "1";
};
closed = 1;
nodes = (
(433,896,o),
(513,963,o),
(513,1116,cs),
(513,1386,ls),
(513,1431,o),
(477,1462,o),
(432,1462,cs),
(387,1462,o),
(351,1431,o),
(351,1386,cs),
(351,1116,ls),
(351,1051,o),
(346,1046,o),
(288,1046,cs),
(230,1046,o),
(225,1051,o),
(225,1116,cs),
(225,1386,ls),
(225,1431,o),
(189,1462,o),
(144,1462,cs),
(99,1462,o),
(63,1431,o),
(63,1386,cs),
(63,14,ls),
(63,-32,o),
(99,-62,o),
(144,-62,cs),
(189,-62,o),
(225,-32,o),
(225,14,cs),
(225,569,l),
(257,569,ls),
(308,569,o),
(309,569,o),
(315,527,cs),
(396,-4,ls),
(402,-45,o),
(435,-70,o),
(475,-70,cs),
(527,-70,o),
(565,-31,o),
(557,19,cs),
(473,556,ls),
(456,667,o),
(383,720,o),
(256,720,cs),
(225,720,l),
(225,902,l),
(245,898,o),
(265,896,o),
(288,896,cs)
);
}
);
width = 560;
},
{
layerId = "5B8359BC-834E-43C0-95AC-1478E595F26B";
shapes = (
{
closed = 1;
nodes = (
(492,1439,ls),
(480,1451,o),
(456,1462,o),
(432,1462,cs),
(387,1462,o),
(351,1431,o),
(351,1386,cs),
(351,1292,l),
(204,1439,ls),
(192,1451,o),
(168,1462,o),
(144,1462,cs),
(99,1462,o),
(63,1430,o),
(63,1386,cs),
(63,14,ls),
(63,-7,o),
(71,-26,o),
(84,-39,cs),
(282,-237,ls),
(294,-249,o),
(318,-260,o),
(342,-260,cs),
(385,-260,o),
(423,-230,o),
(423,-184,cs),
(423,-53,l),
(615,-245,ls),
(632,-262,o),
(650,-268,o),
(673,-268,cs),
(723,-268,o),
(763,-229,o),
(755,-179,cs),
(671,358,ls),
(664,404,o),
(646,441,o),
(620,467,cs),
(423,664,l),
(423,704,l),
(444,700,o),
(463,698,o),
(486,698,cs),
(629,698,o),
(711,765,o),
(711,918,cs),
(711,1188,ls),
(711,1208,o),
(702,1229,o),
(690,1241,cs)
);
}
);
width = 560;
},
{
layerId = "3FC41B90-652D-4B27-AC2B-1ACF7BE26A9E";
shapes = (
{
attr = {
strokePos = "1";
};
closed = 1;
nodes = (
(402,956,o),
(448,1002,o),
(448,1116,cs),
(448,1386,ls),
(448,1397,o),
(443,1402,o),
(432,1402,cs),
(421,1402,o),
(416,1397,o),
(416,1386,cs),
(416,1116,ls),
(416,1018,o),
(384,986,o),
(288,986,cs),
(192,986,o),
(160,1018,o),
(160,1116,cs),
(160,1386,ls),
(160,1397,o),
(155,1402,o),
(144,1402,cs),
(133,1402,o),
(128,1397,o),
(128,1386,cs),
(128,14,ls),
(128,3,o),
(133,-2,o),
(144,-2,cs),
(155,-2,o),
(160,3,o),
(160,14,cs),
(160,629,l),
(257,629,ls),
(347,629,o),
(368,606,o),
(379,536,cs),
(461,3,ls),
(462,-6,o),
(467,-10,o),
(475,-10,cs),
(489,-10,o),
(495,-3,o),
(493,8,cs),
(409,547,ls),
(397,627,o),
(352,660,o),
(256,660,cs),
(160,660,l),
(160,839,ls),
(160,897,o),
(160,956,o),
(154,1015,c),
(157,1016,l),
(179,974,o),
(221,956,o),
(288,956,cs)
);
}
);
width = 560;
},
{
layerId = "C167734A-3797-41AB-93B1-2512951510F4";
shapes = (
{
closed = 1;
nodes = (
(423,1177,l),
(423,1188,ls),
(423,1231,o),
(387,1264,o),
(342,1264,cs),
(330,1264,o),
(315,1261,o),
(304,1256,cs),
(-59,1087,ls),
(-85,1075,o),
(-102,1051,o),
(-102,1019,cs),
(-102,-353,ls),
(-102,-399,o),
(-66,-429,o),
(-21,-429,cs),
(-7,-429,o),
(6,-426,o),
(18,-421,cs),
(224,-324,l),
(231,-371,ls),
(237,-412,o),
(270,-437,o),
(310,-437,cs),
(325,-437,o),
(337,-434,o),
(350,-428,cs),
(707,-262,ls),
(731,-251,o),
(762,-225,o),
(755,-179,cs),
(671,358,ls),
(653,470,o),
(581,522,o),
(454,522,cs),
(423,522,l),
(423,635,l),
(608,721,ls),
(675,752,o),
(711,816,o),
(711,918,cs),
(711,1188,ls),
(711,1231,o),
(675,1264,o),
(630,1264,cs),
(618,1264,o),
(603,1261,o),
(592,1256,cs)
);
}
);
width = 560;
},
{
layerId = "1B23468A-8BB0-4287-A942-E04502FA5EAD";
shapes = (
{
attr = {
strokePos = "1";
};
closed = 1;
nodes = (
(427,911,o),
(493,977,o),
(493,1116,cs),
(493,1386,ls),
(493,1422,o),
(468,1447,o),
(432,1447,cs),
(396,1447,o),
(371,1422,o),
(371,1386,cs),
(371,1116,ls),
(371,1044,o),
(358,1031,o),
(288,1031,cs),
(218,1031,o),
(205,1044,o),
(205,1116,cs),
(205,1386,ls),
(205,1422,o),
(180,1447,o),
(144,1447,cs),
(108,1447,o),
(83,1422,o),
(83,1386,cs),
(83,14,ls),
(83,-22,o),
(108,-47,o),
(144,-47,cs),
(180,-47,o),
(205,-22,o),
(205,14,cs),
(205,584,l),
(257,584,ls),
(321,584,o),
(327,580,o),
(335,529,cs),
(416,-3,ls),
(421,-34,o),
(445,-55,o),
(475,-55,cs),
(517,-55,o),
(543,-24,o),
(537,15,cs),
(453,554,ls),
(437,659,o),
(373,705,o),
(256,705,cs),
(205,705,l),
(205,838,ls),
(205,866,o),
(205,895,o),
(204,923,c),
(228,915,o),
(257,911,o),
(288,911,cs)
);
}
);
width = 560;
}
);
metricLeft = "=H";
unicode = (75,107);
},
{
glyphname = L;
kernRight = L;
lastChange = "2025-07-16 14:24:14 +0000";
layers = (
{
layerId = "6F666F4F-1A96-4FED-ADB4-134214B8A633";
name = Thin;
shapes = (
{
attr = {
strokePos = "1";
};
closed = 1;
nodes = (
(240,90,ls),
(225,90,o),
(225,90,o),
(225,112,cs),
(225,1386,ls),
(225,1432,o),
(190,1462,o),
(144,1462,cs),
(98,1462,o),
(63,1432,o),
(63,1386,cs),
(63,112,ls),
(63,-4,o),
(127,-60,o),
(240,-60,cs),
(384,-60,ls),
(430,-60,o),
(465,-30,o),
(465,14,cs),
(465,16,ls),
(465,60,o),
(430,90,o),
(384,90,cs)
);
}
);
width = 416;
},
{
layerId = "5B8359BC-834E-43C0-95AC-1478E595F26B";
name = Thin;
shapes = (
{
closed = 1;
nodes = (
(204,1439,ls),
(192,1451,o),
(168,1462,o),
(144,1462,cs),
(98,1462,o),
(63,1432,o),
(63,1386,cs),
(63,112,ls),
(63,56,o),
(81,11,o),
(107,-15,cs),
(305,-213,ls),
(333,-241,o),
(380,-258,o),
(438,-258,cs),
(582,-258,ls),
(626,-258,o),
(663,-228,o),
(663,-184,cs),
(663,-182,ls),
(663,-163,o),
(653,-141,o),
(643,-131,cs),
(445,67,ls),
(441,71,o),
(431,78,o),
(423,82,c),
(423,1188,ls),
(423,1208,o),
(414,1229,o),
(402,1241,cs)
);
}
);
width = 416;
},
{
layerId = "3FC41B90-652D-4B27-AC2B-1ACF7BE26A9E";
name = Thin;
shapes = (
{
attr = {
strokePos = "1";
};
closed = 1;
nodes = (
(240,30,ls),
(178,30,o),
(160,48,o),
(160,112,cs),
(160,1386,ls),
(160,1398,o),
(156,1402,o),
(144,1402,cs),
(132,1402,o),
(128,1398,o),
(128,1386,cs),
(128,112,ls),
(128,32,o),
(160,0,o),
(240,0,cs),
(384,0,ls),
(396,0,o),
(400,4,o),
(400,14,cs),
(400,16,ls),
(400,26,o),
(396,30,o),
(384,30,cs)
);
}
);
width = 416;
},
{
layerId = "C167734A-3797-41AB-93B1-2512951510F4";
name = Thin;
shapes = (
{
closed = 1;
nodes = (
(-60,1087,ls),
(-87,1075,o),
(-102,1051,o),
(-102,1019,cs),
(-102,-255,ls),
(-102,-371,o),
(-38,-427,o),
(75,-427,cs),
(219,-427,ls),
(234,-427,o),
(246,-424,o),
(258,-418,cs),
(621,-249,ls),
(647,-237,o),
(663,-214,o),
(663,-184,cs),
(663,-182,ls),
(663,-140,o),
(628,-108,o),
(582,-108,cs),
(438,-108,ls),
(424,-108,o),
(423,-108,o),
(423,-86,cs),
(423,1188,ls),
(423,1232,o),
(388,1264,o),
(342,1264,cs),
(329,1264,o),
(314,1261,o),
(303,1256,cs)
);
}
);
width = 416;
},
{
layerId = "1B23468A-8BB0-4287-A942-E04502FA5EAD";
name = Thin;
shapes = (
{
attr = {
strokePos = "1";
};
closed = 1;
nodes = (
(240,75,ls),
(205,75,o),
(205,75,o),
(205,112,cs),
(205,1386,ls),
(205,1423,o),
(181,1447,o),
(144,1447,cs),
(107,1447,o),
(83,1423,o),
(83,1386,cs),
(83,112,ls),
(83,7,o),
(135,-45,o),
(240,-45,cs),
(384,-45,ls),
(418,-45,o),
(445,-24,o),
(445,14,cs),
(445,16,ls),
(445,54,o),
(418,75,o),
(384,75,cs)
);
}
);
width = 416;
}
);
metricLeft = O;
unicode = (76,108);
},
{
glyphname = M;
lastChange = "2025-08-08 05:40:19 +0000";
layers = (
{
layerId = "6F666F4F-1A96-4FED-ADB4-134214B8A633";
shapes = (
{
attr = {
strokePos = "1";
};
closed = 1;
nodes = (
(190,-62,o),
(225,-32,o),
(225,14,cs),
(225,1272,ls),
(225,1325,o),
(226,1326,o),
(272,1326,cs),
(318,1326,o),
(319,1325,o),
(319,1272,cs),
(319,14,ls),
(319,-32,o),
(354,-62,o),
(400,-62,cs),
(446,-62,o),
(481,-32,o),
(481,14,cs),
(481,1272,ls),
(481,1325,o),
(482,1326,o),
(528,1326,cs),
(574,1326,o),
(575,1325,o),
(575,1272,cs),
(575,14,ls),
(575,-32,o),
(610,-62,o),
(656,-62,cs),
(702,-62,o),
(737,-32,o),
(737,14,cs),
(737,1272,ls),
(737,1411,o),
(663,1476,o),
(528,1476,cs),
(472,1476,o),
(431,1463,o),
(400,1442,c),
(369,1463,o),
(328,1476,o),
(272,1476,cs),
(242,1476,o),
(214,1473,o),
(189,1466,c),
(182,1473,o),
(165,1483,o),
(140,1483,cs),
(99,1483,o),
(57,1445,o),
(57,1405,cs),
(57,1384,o),
(66,1367,o),
(75,1358,c),
(67,1334,o),
(63,1299,o),
(63,1272,cs),
(63,14,ls),
(63,-32,o),
(98,-62,o),
(144,-62,cs)
);
}
);
width = 800;
},
{
layerId = "5B8359BC-834E-43C0-95AC-1478E595F26B";
shapes = (
{
closed = 1;
nodes = (
(686,1424,ls),
(653,1457,o),
(597,1476,o),
(528,1476,cs),
(472,1476,o),
(430,1463,o),
(400,1443,c),
(368,1463,o),
(329,1476,o),
(272,1476,cs),
(242,1476,o),
(214,1473,o),
(189,1466,c),
(182,1473,o),
(165,1483,o),
(140,1483,cs),
(99,1483,o),
(57,1445,o),
(57,1405,cs),
(57,1384,o),
(66,1367,o),
(75,1358,c),
(67,1334,o),
(63,1307,o),
(63,1272,cs),
(63,14,ls),
(63,-8,o),
(72,-27,o),
(84,-39,cs),
(282,-237,ls),
(294,-249,o),
(318,-260,o),
(342,-260,cs),
(386,-260,o),
(423,-230,o),
(423,-184,cs),
(423,-122,l),
(538,-237,ls),
(550,-249,o),
(574,-260,o),
(598,-260,cs),
(642,-260,o),
(679,-230,o),
(679,-184,cs),
(679,-122,l),
(794,-237,ls),
(806,-249,o),
(830,-260,o),
(854,-260,cs),
(898,-260,o),
(935,-230,o),
(935,-184,cs),
(935,1074,ls),
(935,1140,o),
(917,1193,o),
(884,1226,cs)
);
}
);
width = 800;
},
{
layerId = "3FC41B90-652D-4B27-AC2B-1ACF7BE26A9E";
shapes = (
{
attr = {
strokePos = "1";
};
closed = 1;
nodes = (
(156,-2,o),
(160,2,o),
(160,14,cs),
(160,1272,ls),
(160,1358,o),
(188,1386,o),
(272,1386,cs),
(356,1386,o),
(384,1358,o),
(384,1272,cs),
(384,14,ls),
(384,2,o),
(388,-2,o),
(400,-2,cs),
(412,-2,o),
(416,2,o),
(416,14,cs),
(416,1272,ls),
(416,1358,o),
(444,1386,o),
(528,1386,cs),
(612,1386,o),
(640,1358,o),
(640,1272,cs),
(640,14,ls),
(640,2,o),
(644,-2,o),
(656,-2,cs),
(668,-2,o),
(672,2,o),
(672,14,cs),
(672,1272,ls),
(672,1374,o),
(630,1416,o),
(528,1416,cs),
(442,1416,o),
(410,1378,o),
(402,1338,c),
(398,1338,l),
(390,1378,o),
(358,1416,o),
(272,1416,cs),
(229,1416,o),
(197,1409,o),
(174,1393,c),
(151,1416,ls),
(147,1420,o),
(143,1422,o),
(140,1422,cs),
(136,1422,o),
(132,1420,o),
(128,1416,cs),
(125,1413,o),
(122,1408,o),
(122,1405,cs),
(122,1401,o),
(125,1396,o),
(128,1393,cs),
(151,1370,l),
(135,1347,o),
(128,1315,o),
(128,1272,cs),
(128,14,ls),
(128,2,o),
(132,-2,o),
(144,-2,cs)
);
}
);
width = 800;
},
{
layerId = "C167734A-3797-41AB-93B1-2512951510F4";
shapes = (
{
closed = 1;
nodes = (
(154,-357,l),
(156,-403,o),
(191,-429,o),
(235,-429,cs),
(249,-429,o),
(263,-426,o),
(274,-421,cs),
(410,-357,l),
(412,-403,o),
(447,-429,o),
(491,-429,cs),
(505,-429,o),
(519,-426,o),
(530,-421,cs),
(893,-252,ls),
(918,-240,o),
(935,-215,o),
(935,-184,cs),
(935,1074,ls),
(935,1211,o),
(861,1278,o),
(726,1278,cs),
(684,1278,o),
(647,1270,o),
(621,1258,cs),
(596,1246,l),
(567,1265,o),
(525,1278,o),
(470,1278,cs),
(441,1278,o),
(412,1275,o),
(387,1268,c),
(373,1277,o),
(354,1284,o),
(338,1284,cs),
(328,1284,o),
(314,1281,o),
(303,1276,cs),
(-60,1107,ls),
(-68,1103,o),
(-78,1096,o),
(-83,1091,cs),
(-94,1080,o),
(-108,1058,o),
(-108,1038,cs),
(-108,1021,o),
(-99,1004,o),
(-89,991,c),
(-98,967,o),
(-102,940,o),
(-102,905,cs),
(-102,-353,ls),
(-102,-399,o),
(-67,-429,o),
(-21,-429,cs),
(-7,-429,o),
(7,-426,o),
(18,-421,cs)
);
}
);
width = 800;
},
{
layerId = "1B23468A-8BB0-4287-A942-E04502FA5EAD";
shapes = (
{
attr = {
strokePos = "1";
};
closed = 1;
nodes = (
(181,-47,o),
(205,-22,o),
(205,14,cs),
(205,1272,ls),
(205,1332,o),
(214,1341,o),
(272,1341,cs),
(330,1341,o),
(339,1332,o),
(339,1272,cs),
(339,14,ls),
(339,-22,o),
(363,-47,o),
(400,-47,cs),
(437,-47,o),
(461,-22,o),
(461,14,cs),
(461,1272,ls),
(461,1332,o),
(470,1341,o),
(528,1341,cs),
(586,1341,o),
(595,1332,o),
(595,1272,cs),
(595,14,ls),
(595,-22,o),
(619,-47,o),
(656,-47,cs),
(693,-47,o),
(717,-22,o),
(717,14,cs),
(717,1272,ls),
(717,1399,o),
(655,1461,o),
(528,1461,cs),
(469,1461,o),
(427,1444,o),
(400,1420,c),
(373,1444,o),
(331,1461,o),
(272,1461,cs),
(239,1461,o),
(208,1457,o),
(183,1448,c),
(172,1459,o),
(155,1467,o),
(140,1467,cs),
(105,1467,o),
(77,1434,o),
(77,1405,cs),
(77,1388,o),
(84,1372,o),
(96,1361,c),
(87,1336,o),
(83,1305,o),
(83,1272,cs),
(83,14,ls),
(83,-22,o),
(107,-47,o),
(144,-47,cs)
);
}
);
width = 800;
}
);
metricLeft = N;
metricRight = "=N";
unicode = (77,109);
},
{
glyphname = N;
lastChange = "2025-08-22 13:15:21 +0000";
layers = (
{
layerId = "6F666F4F-1A96-4FED-ADB4-134214B8A633";
shapes = (
{
attr = {
strokePos = "1";
};
closed = 1;
nodes = (
(190,-62,o),
(225,-32,o),
(225,14,cs),
(225,1256,ls),
(225,1321,o),
(230,1326,o),
(288,1326,cs),
(346,1326,o),
(351,1321,o),
(351,1256,cs),
(351,14,ls),
(351,-32,o),
(386,-62,o),
(432,-62,cs),
(478,-62,o),
(513,-32,o),
(513,14,cs),
(513,1256,ls),
(513,1409,o),
(433,1476,o),
(288,1476,cs),
(253,1476,o),
(221,1472,o),
(192,1463,c),
(181,1474,o),
(165,1483,o),
(140,1483,cs),
(99,1483,o),
(57,1448,o),
(57,1405,cs),
(57,1378,o),
(70,1363,o),
(78,1355,c),
(68,1327,o),
(63,1296,o),
(63,1256,cs),
(63,14,ls),
(63,-32,o),
(98,-62,o),
(144,-62,cs)
);
}
);
width = 576;
},
{
layerId = "5B8359BC-834E-43C0-95AC-1478E595F26B";
shapes = (
{
closed = 1;
nodes = (
(459,1420,ls),
(422,1457,o),
(363,1476,o),
(288,1476,cs),
(253,1476,o),
(221,1472,o),
(192,1463,c),
(181,1474,o),
(165,1483,o),
(140,1483,cs),
(99,1483,o),
(57,1448,o),
(57,1405,cs),
(57,1378,o),
(70,1363,o),
(78,1355,c),
(68,1327,o),
(63,1296,o),
(63,1256,cs),
(63,14,ls),
(63,-8,o),
(72,-27,o),
(84,-39,cs),
(282,-237,ls),
(294,-249,o),
(318,-260,o),
(342,-260,cs),
(386,-260,o),
(423,-230,o),
(423,-184,cs),
(423,-90,l),
(570,-237,ls),
(582,-249,o),
(606,-260,o),
(630,-260,cs),
(674,-260,o),
(711,-230,o),
(711,-184,cs),
(711,1058,ls),
(711,1130,o),
(694,1185,o),
(657,1222,cs)
);
}
);
width = 774;
},
{
layerId = "3FC41B90-652D-4B27-AC2B-1ACF7BE26A9E";
shapes = (
{
attr = {
strokePos = "1";
};
closed = 1;
nodes = (
(156,-2,o),
(160,2,o),
(160,14,cs),
(160,1256,ls),
(160,1354,o),
(192,1386,o),
(288,1386,cs),
(384,1386,o),
(416,1354,o),
(416,1256,cs),
(416,14,ls),
(416,2,o),
(420,-2,o),
(432,-2,cs),
(444,-2,o),
(448,2,o),
(448,14,cs),
(448,1256,ls),
(448,1370,o),
(402,1416,o),
(288,1416,cs),
(239,1416,o),
(203,1407,o),
(178,1389,c),
(151,1416,ls),
(147,1420,o),
(143,1422,o),
(140,1422,cs),
(136,1422,o),
(132,1420,o),
(128,1416,cs),
(125,1413,o),
(122,1408,o),
(122,1405,cs),
(122,1401,o),
(125,1396,o),
(128,1393,cs),
(155,1366,l),
(137,1341,o),
(128,1305,o),
(128,1256,cs),
(128,14,ls),
(128,2,o),
(132,-2,o),
(144,-2,cs)
);
}
);
width = 576;
},
{
layerId = "C167734A-3797-41AB-93B1-2512951510F4";
shapes = (
{
closed = 1;
nodes = (
(186,-342,l),
(186,-353,ls),
(186,-399,o),
(221,-429,o),
(267,-429,cs),
(281,-429,o),
(295,-426,o),
(306,-421,cs),
(669,-252,ls),
(694,-240,o),
(711,-215,o),
(711,-184,cs),
(711,1058,ls),
(711,1209,o),
(631,1278,o),
(486,1278,cs),
(452,1278,o),
(419,1274,o),
(390,1265,c),
(375,1276,o),
(355,1284,o),
(338,1284,cs),
(328,1284,o),
(314,1281,o),
(303,1276,cs),
(-60,1107,ls),
(-68,1103,o),
(-78,1096,o),
(-83,1091,cs),
(-94,1080,o),
(-108,1058,o),
(-108,1038,cs),
(-108,1019,o),
(-99,1002,o),
(-87,988,c),
(-97,960,o),
(-102,929,o),
(-102,889,cs),
(-102,-353,ls),
(-102,-399,o),
(-67,-429,o),
(-21,-429,cs),
(-7,-429,o),
(7,-426,o),
(18,-421,cs)
);
}
);
width = 609;
},
{
layerId = "1B23468A-8BB0-4287-A942-E04502FA5EAD";
shapes = (
{
attr = {
strokePos = "1";
};
closed = 1;
nodes = (
(181,-47,o),
(205,-22,o),
(205,14,cs),
(205,1256,ls),
(205,1328,o),
(218,1341,o),
(288,1341,cs),
(358,1341,o),
(371,1328,o),
(371,1256,cs),
(371,14,ls),
(371,-22,o),
(395,-47,o),
(432,-47,cs),
(469,-47,o),
(493,-22,o),
(493,14,cs),
(493,1256,ls),
(493,1395,o),
(427,1461,o),
(288,1461,cs),
(249,1461,o),
(216,1456,o),
(186,1444,c),
(168,1464,o),
(156,1467,o),
(140,1467,cs),
(105,1467,o),
(77,1434,o),
(77,1405,cs),
(77,1389,o),
(81,1375,o),
(100,1358,c),
(88,1328,o),
(83,1295,o),
(83,1256,cs),
(83,14,ls),
(83,-22,o),
(107,-47,o),
(144,-47,cs)
);
}
);
width = 576;
}
);
metricRight = O;
unicode = (78,110);
},
{
glyphname = O;
lastChange = "2025-08-22 13:15:18 +0000";
layers = (
{
layerId = "6F666F4F-1A96-4FED-ADB4-134214B8A633";
shapes = (
{
attr = {
strokePos = "1";
};
closed = 1;
nodes = (
(225,1321,o),
(230,1326,o),
(288,1326,cs),
(346,1326,o),
(351,1321,o),
(351,1256,cs),
(351,140,ls),
(351,75,o),
(346,70,o),
(288,70,cs),
(230,70,o),
(225,75,o),
(225,140,cs),
(225,1256,ls)
);
},
{
attr = {
strokePos = "1";
};
closed = 1;
nodes = (
(63,140,ls),
(63,-13,o),
(142,-80,o),
(288,-80,cs),
(433,-80,o),
(513,-13,o),
(513,140,cs),
(513,1256,ls),
(513,1409,o),
(433,1476,o),
(288,1476,cs),
(142,1476,o),
(63,1409,o),
(63,1256,cs)
);
}
);
width = 576;
},
{
layerId = "5B8359BC-834E-43C0-95AC-1478E595F26B";
shapes = (
{
closed = 1;
nodes = (
(316,-222,ls),
(353,-259,o),
(411,-278,o),
(486,-278,cs),
(629,-278,o),
(711,-211,o),
(711,-58,cs),
(711,1058,ls),
(711,1130,o),
(694,1185,o),
(657,1222,cs),
(459,1420,ls),
(422,1457,o),
(363,1476,o),
(288,1476,cs),
(142,1476,o),
(63,1409,o),
(63,1256,cs),
(63,140,ls),
(63,66,o),
(83,11,o),
(118,-24,cs)
);
}
);
width = 774;
},
{
layerId = "3FC41B90-652D-4B27-AC2B-1ACF7BE26A9E";
shapes = (
{
attr = {
strokePos = "1";
};
closed = 1;
nodes = (
(160,1354,o),
(192,1386,o),
(288,1386,cs),
(384,1386,o),
(416,1354,o),
(416,1256,cs),
(416,140,ls),
(416,42,o),
(384,10,o),
(288,10,cs),
(192,10,o),
(160,42,o),
(160,140,cs),
(160,1256,ls)
);
},
{
attr = {
strokePos = "1";
};
closed = 1;
nodes = (
(128,140,ls),
(128,26,o),
(174,-20,o),
(288,-20,cs),
(402,-20,o),
(448,26,o),
(448,140,cs),
(448,1256,ls),
(448,1370,o),
(402,1416,o),
(288,1416,cs),
(174,1416,o),
(128,1370,o),
(128,1256,cs)
);
}
);
width = 576;
},
{
layerId = "C167734A-3797-41AB-93B1-2512951510F4";
shapes = (
{
closed = 1;
nodes = (
(608,-255,ls),
(675,-224,o),
(711,-160,o),
(711,-58,cs),
(711,1058,ls),
(711,1209,o),
(631,1278,o),
(486,1278,cs),
(439,1278,o),
(395,1270,o),
(363,1255,cs),
(0,1086,ls),
(-67,1055,o),
(-102,991,o),
(-102,889,cs),
(-102,-227,ls),
(-102,-380,o),
(-23,-447,o),
(123,-447,cs),
(171,-447,o),
(212,-440,o),
(246,-424,cs)
);
}
);
width = 609;
},
{
layerId = "1B23468A-8BB0-4287-A942-E04502FA5EAD";
shapes = (
{
attr = {
strokePos = "1";
};
closed = 1;
nodes = (
(205,1328,o),
(218,1341,o),
(288,1341,cs),
(358,1341,o),
(371,1328,o),
(371,1256,cs),
(371,140,ls),
(371,68,o),
(358,55,o),
(288,55,cs),
(218,55,o),
(205,68,o),
(205,140,cs),
(205,1256,ls)
);
},
{
attr = {
strokePos = "1";
};
closed = 1;
nodes = (
(83,140,ls),
(83,1,o),
(149,-65,o),
(288,-65,cs),
(427,-65,o),
(493,1,o),
(493,140,cs),
(493,1256,ls),
(493,1395,o),
(427,1461,o),
(288,1461,cs),
(149,1461,o),
(83,1395,o),
(83,1256,cs)
);
}
);
width = 576;
}
);
metricLeft = H;
metricRight = "=|";
unicode = (79,111);
},
{
glyphname = Odieresis;
lastChange = "2025-08-08 05:22:08 +0000";
layers = (
{
layerId = "6F666F4F-1A96-4FED-ADB4-134214B8A633";
shapes = (
{
attr = {
identifier = ID0x31ee9e660;
strokePos = "1";
};
closed = 1;
nodes = (
(225,1321,o),
(230,1326,o),
(288,1326,cs),
(346,1326,o),
(351,1321,o),
(351,1256,cs),
(351,140,ls),
(351,75,o),
(346,70,o),
(288,70,cs),
(230,70,o),
(225,75,o),
(225,140,cs),
(225,1256,ls)
);
},
{
attr = {
identifier = ID0x31ee9e660;
strokePos = "1";
};
closed = 1;
nodes = (
(63,140,ls),
(63,-13,o),
(142,-80,o),
(288,-80,cs),
(433,-80,o),
(513,-13,o),
(513,140,cs),
(513,1256,ls),
(513,1409,o),
(433,1476,o),
(288,1476,cs),
(142,1476,o),
(63,1409,o),
(63,1256,cs)
);
},
{
closed = 1;
nodes = (
(351,1541,ls),
(351,1496,o),
(386,1466,o),
(432,1466,cs),
(478,1466,o),
(513,1496,o),
(513,1541,cs),
(513,1745,ls),
(513,1790,o),
(478,1820,o),
(432,1820,cs),
(386,1820,o),
(351,1790,o),
(351,1745,cs)
);
},
{
closed = 1;
nodes = (
(63,1541,ls),
(63,1496,o),
(98,1466,o),
(144,1466,cs),
(190,1466,o),
(225,1496,o),
(225,1541,cs),
(225,1745,ls),
(225,1790,o),
(190,1820,o),
(144,1820,cs),
(98,1820,o),
(63,1790,o),
(63,1745,cs)
);
}
);
width = 576;
},
{
layerId = "5B8359BC-834E-43C0-95AC-1478E595F26B";
shapes = (
{
closed = 1;
nodes = (
(316,-222,ls),
(353,-259,o),
(411,-278,o),
(486,-278,cs),
(630,-278,o),
(711,-211,o),
(711,-58,cs),
(711,1058,ls),
(711,1131,o),
(694,1185,o),
(657,1222,cs),
(608,1271,l),
(614,1269,o),
(623,1268,o),
(630,1268,cs),
(675,1268,o),
(711,1298,o),
(711,1343,cs),
(711,1547,ls),
(711,1567,o),
(703,1587,o),
(691,1599,cs),
(493,1797,ls),
(480,1810,o),
(457,1820,o),
(432,1820,cs),
(386,1820,o),
(351,1790,o),
(351,1745,cs),
(351,1650,l),
(205,1797,ls),
(191,1812,o),
(169,1820,o),
(144,1820,cs),
(98,1820,o),
(63,1789,o),
(63,1745,cs),
(63,1541,ls),
(63,1521,o),
(73,1500,o),
(84,1489,cs),
(137,1437,l),
(89,1402,o),
(63,1343,o),
(63,1256,cs),
(63,140,ls),
(63,66,o),
(83,11,o),
(118,-24,cs)
);
}
);
width = 576;
},
{
layerId = "3FC41B90-652D-4B27-AC2B-1ACF7BE26A9E";
shapes = (
{
attr = {
identifier = ID0x31ee9e660;
strokePos = "1";
};
closed = 1;
nodes = (
(160,1354,o),
(192,1386,o),
(288,1386,cs),
(384,1386,o),
(416,1354,o),
(416,1256,cs),
(416,140,ls),
(416,42,o),
(384,10,o),
(288,10,cs),
(192,10,o),
(160,42,o),
(160,140,cs),
(160,1256,ls)
);
},
{
attr = {
identifier = ID0x31ee9e660;
strokePos = "1";
};
closed = 1;
nodes = (
(128,140,ls),
(128,26,o),
(174,-20,o),
(288,-20,cs),
(402,-20,o),
(448,26,o),
(448,140,cs),
(448,1256,ls),
(448,1370,o),
(402,1416,o),
(288,1416,cs),
(174,1416,o),
(128,1370,o),
(128,1256,cs)
);
},
{
closed = 1;
nodes = (
(416,1541,ls),
(416,1530,o),
(420,1526,o),
(432,1526,cs),
(444,1526,o),
(448,1530,o),
(448,1541,cs),
(448,1745,ls),
(448,1756,o),
(444,1760,o),
(432,1760,cs),
(420,1760,o),
(416,1756,o),
(416,1745,cs)
);
},
{
closed = 1;
nodes = (
(128,1541,ls),
(128,1530,o),
(132,1526,o),
(144,1526,cs),
(156,1526,o),
(160,1530,o),
(160,1541,cs),
(160,1745,ls),
(160,1756,o),
(156,1760,o),
(144,1760,cs),
(132,1760,o),
(128,1756,o),
(128,1745,cs)
);
}
);
width = 576;
},
{
layerId = "C167734A-3797-41AB-93B1-2512951510F4";
shapes = (
{
closed = 1;
nodes = (
(608,-255,ls),
(675,-224,o),
(711,-160,o),
(711,-58,cs),
(711,1058,ls),
(711,1155,o),
(678,1219,o),
(616,1252,c),
(669,1277,ls),
(694,1289,o),
(711,1312,o),
(711,1343,cs),
(711,1547,ls),
(711,1590,o),
(676,1622,o),
(630,1622,cs),
(617,1622,o),
(602,1619,o),
(591,1614,cs),
(423,1536,l),
(423,1547,ls),
(423,1590,o),
(388,1622,o),
(342,1622,cs),
(329,1622,o),
(314,1619,o),
(303,1614,cs),
(-60,1445,ls),
(-87,1433,o),
(-102,1409,o),
(-102,1378,cs),
(-102,1174,ls),
(-102,1129,o),
(-67,1099,o),
(-21,1099,cs),
(-6,1099,o),
(7,1102,o),
(18,1107,cs),
(186,1186,l),
(186,1173,l),
(0,1086,ls),
(-67,1055,o),
(-102,991,o),
(-102,889,cs),
(-102,-227,ls),
(-102,-380,o),
(-23,-447,o),
(123,-447,cs),
(171,-447,o),
(212,-440,o),
(246,-424,cs)
);
}
);
width = 576;
},
{
layerId = "1B23468A-8BB0-4287-A942-E04502FA5EAD";
shapes = (
{
attr = {
identifier = ID0x31ee9e660;
strokePos = "1";
};
closed = 1;
nodes = (
(205,1328,o),
(218,1341,o),
(288,1341,cs),
(358,1341,o),
(371,1328,o),
(371,1256,cs),
(371,140,ls),
(371,68,o),
(358,55,o),
(288,55,cs),
(218,55,o),
(205,68,o),
(205,140,cs),
(205,1256,ls)
);
},
{
attr = {
identifier = ID0x31ee9e660;
strokePos = "1";
};
closed = 1;
nodes = (
(83,140,ls),
(83,1,o),
(149,-65,o),
(288,-65,cs),
(427,-65,o),
(493,1,o),
(493,140,cs),
(493,1256,ls),
(493,1395,o),
(427,1461,o),
(288,1461,cs),
(149,1461,o),
(83,1395,o),
(83,1256,cs)
);
},
{
closed = 1;
nodes = (
(371,1541,ls),
(371,1501,o),
(399,1481,o),
(432,1481,cs),
(465,1481,o),
(493,1501,o),
(493,1541,cs),
(493,1745,ls),
(493,1785,o),
(465,1805,o),
(432,1805,cs),
(399,1805,o),
(371,1785,o),
(371,1745,cs)
);
},
{
closed = 1;
nodes = (
(83,1541,ls),
(83,1501,o),
(111,1481,o),
(144,1481,cs),
(177,1481,o),
(205,1501,o),
(205,1541,cs),
(205,1745,ls),
(205,1785,o),
(177,1805,o),
(144,1805,cs),
(111,1805,o),
(83,1785,o),
(83,1745,cs)
);
}
);
width = 576;
}
);
unicode = (214,246);
},
{
glyphname = P;
kernLeft = P;
kernRight = P;
lastChange = "2025-08-22 13:15:18 +0000";
layers = (
{
layerId = "6F666F4F-1A96-4FED-ADB4-134214B8A633";
metricRight = "=O-48";
shapes = (
{
attr = {
strokePos = "1";
};
closed = 1;
nodes = (
(190,-62,o),
(225,-32,o),
(225,14,cs),
(225,902,l),
(245,898,o),
(265,896,o),
(288,896,cs),
(433,896,o),
(513,963,o),
(513,1116,cs),
(513,1256,ls),
(513,1409,o),
(433,1476,o),
(288,1476,cs),
(253,1476,o),
(221,1472,o),
(192,1463,c),
(185,1470,o),
(170,1483,o),
(140,1483,cs),
(99,1483,o),
(57,1445,o),
(57,1405,cs),
(57,1379,o),
(67,1367,o),
(78,1355,c),
(68,1327,o),
(63,1296,o),
(63,1256,cs),
(63,14,ls),
(63,-32,o),
(98,-62,o),
(144,-62,cs)
);
},
{
attr = {
strokePos = "1";
};
closed = 1;
nodes = (
(225,1256,ls),
(225,1321,o),
(230,1326,o),
(288,1326,cs),
(346,1326,o),
(351,1321,o),
(351,1256,cs),
(351,1116,ls),
(351,1051,o),
(346,1046,o),
(288,1046,cs),
(230,1046,o),
(225,1051,o),
(225,1116,cs)
);
}
);
width = 528;
},
{
layerId = "5B8359BC-834E-43C0-95AC-1478E595F26B";
metricRight = "=O-48";
shapes = (
{
closed = 1;
nodes = (
(459,1420,ls),
(422,1457,o),
(363,1476,o),
(288,1476,cs),
(253,1476,o),
(221,1472,o),
(192,1463,c),
(185,1470,o),
(170,1483,o),
(140,1483,cs),
(99,1483,o),
(57,1445,o),
(57,1405,cs),
(57,1379,o),
(67,1367,o),
(78,1355,c),
(68,1327,o),
(63,1296,o),
(63,1256,cs),
(63,14,ls),
(63,-8,o),
(72,-27,o),
(84,-39,cs),
(282,-237,ls),
(294,-249,o),
(318,-260,o),
(342,-260,cs),
(386,-260,o),
(423,-230,o),
(423,-184,cs),
(423,704,l),
(444,700,o),
(463,698,o),
(486,698,cs),
(629,698,o),
(711,765,o),
(711,918,cs),
(711,1058,ls),
(711,1130,o),
(694,1185,o),
(657,1222,cs)
);
}
);
width = 726;
},
{
layerId = "3FC41B90-652D-4B27-AC2B-1ACF7BE26A9E";
metricRight = "=O-48";
shapes = (
{
attr = {
strokePos = "1";
};
closed = 1;
nodes = (
(156,-2,o),
(160,2,o),
(160,14,cs),
(160,902,ls),
(160,942,o),
(159,977,o),
(154,1015,c),
(157,1016,l),
(180,973,o),
(222,956,o),
(288,956,cs),
(402,956,o),
(448,1002,o),
(448,1116,cs),
(448,1256,ls),
(448,1370,o),
(402,1416,o),
(288,1416,cs),
(239,1416,o),
(203,1407,o),
(178,1389,c),
(151,1416,ls),
(147,1420,o),
(143,1422,o),
(140,1422,cs),
(136,1422,o),
(132,1420,o),
(128,1416,cs),
(125,1413,o),
(122,1408,o),
(122,1405,cs),
(122,1401,o),
(125,1396,o),
(128,1393,cs),
(155,1366,l),
(137,1341,o),
(128,1305,o),
(128,1256,cs),
(128,14,ls),
(128,2,o),
(132,-2,o),
(144,-2,cs)
);
},
{
attr = {
strokePos = "1";
};
closed = 1;
nodes = (
(160,1256,ls),
(160,1354,o),
(192,1386,o),
(288,1386,cs),
(384,1386,o),
(416,1354,o),
(416,1256,cs),
(416,1116,ls),
(416,1018,o),
(384,986,o),
(288,986,cs),
(192,986,o),
(160,1018,o),
(160,1116,cs)
);
}
);
width = 528;
},
{
layerId = "C167734A-3797-41AB-93B1-2512951510F4";
metricRight = "=O-48";
shapes = (
{
closed = 1;
nodes = (
(381,-252,ls),
(406,-240,o),
(423,-215,o),
(423,-184,cs),
(423,635,l),
(608,721,ls),
(675,752,o),
(711,816,o),
(711,918,cs),
(711,1058,ls),
(711,1209,o),
(631,1278,o),
(486,1278,cs),
(452,1278,o),
(419,1274,o),
(390,1265,c),
(375,1276,o),
(355,1284,o),
(338,1284,cs),
(328,1284,o),
(314,1281,o),
(303,1276,cs),
(-60,1107,ls),
(-68,1103,o),
(-78,1096,o),
(-83,1091,cs),
(-94,1080,o),
(-108,1058,o),
(-108,1038,cs),
(-108,1019,o),
(-99,1002,o),
(-87,988,c),
(-97,960,o),
(-102,929,o),
(-102,889,cs),
(-102,-353,ls),
(-102,-399,o),
(-67,-429,o),
(-21,-429,cs),
(-7,-429,o),
(7,-426,o),
(18,-421,cs)
);
}
);
width = 561;
},
{
layerId = "1B23468A-8BB0-4287-A942-E04502FA5EAD";
metricRight = "=O-48";
shapes = (
{
attr = {
strokePos = "1";
};
closed = 1;
nodes = (
(181,-47,o),
(205,-22,o),
(205,14,cs),
(205,922,l),
(230,914,o),
(257,911,o),
(288,911,cs),
(427,911,o),
(493,977,o),
(493,1116,cs),
(493,1256,ls),
(493,1395,o),
(427,1461,o),
(288,1461,cs),
(249,1461,o),
(216,1456,o),
(186,1444,c),
(168,1464,o),
(156,1467,o),
(140,1467,cs),
(105,1467,o),
(77,1434,o),
(77,1405,cs),
(77,1389,o),
(81,1375,o),
(100,1358,c),
(88,1328,o),
(83,1295,o),
(83,1256,cs),
(83,14,ls),
(83,-22,o),
(107,-47,o),
(144,-47,cs)
);
},
{
attr = {
strokePos = "1";
};
closed = 1;
nodes = (
(205,1256,ls),
(205,1328,o),
(218,1341,o),
(288,1341,cs),
(358,1341,o),
(371,1328,o),
(371,1256,cs),
(371,1116,ls),
(371,1044,o),
(358,1031,o),
(288,1031,cs),
(218,1031,o),
(205,1044,o),
(205,1116,cs)
);
}
);
width = 528;
}
);
metricLeft = R;
metricRight = "=O-48";
unicode = (80,112);
},
{
glyphname = Q;
lastChange = "2025-08-22 13:15:18 +0000";
layers = (
{
layerId = "6F666F4F-1A96-4FED-ADB4-134214B8A633";
shapes = (
{
attr = {
strokePos = "1";
};
closed = 1;
nodes = (
(351,-206,o),
(386,-236,o),
(432,-236,cs),
(478,-236,o),
(513,-206,o),
(513,-160,cs),
(513,1256,ls),
(513,1409,o),
(433,1476,o),
(288,1476,cs),
(142,1476,o),
(63,1409,o),
(63,1256,cs),
(63,140,ls),
(63,-13,o),
(142,-80,o),
(288,-80,cs),
(311,-80,o),
(331,-78,o),
(351,-74,c),
(351,-160,ls)
);
},
{
attr = {
strokePos = "1";
};
closed = 1;
nodes = (
(225,1256,ls),
(225,1321,o),
(230,1326,o),
(288,1326,cs),
(346,1326,o),
(351,1321,o),
(351,1256,cs),
(351,140,ls),
(351,75,o),
(346,70,o),
(288,70,cs),
(230,70,o),
(225,75,o),
(225,140,cs)
);
}
);
width = 576;
},
{
layerId = "5B8359BC-834E-43C0-95AC-1478E595F26B";
shapes = (
{
closed = 1;
nodes = (
(459,1420,ls),
(422,1457,o),
(363,1476,o),
(288,1476,cs),
(142,1476,o),
(63,1409,o),
(63,1256,cs),
(63,140,ls),
(63,66,o),
(83,11,o),
(118,-24,cs),
(316,-222,ls),
(347,-253,o),
(385,-268,o),
(434,-274,c),
(570,-411,ls),
(582,-423,o),
(606,-434,o),
(630,-434,cs),
(674,-434,o),
(711,-404,o),
(711,-358,cs),
(711,1058,ls),
(711,1130,o),
(694,1185,o),
(657,1222,cs)
);
}
);
width = 774;
},
{
layerId = "3FC41B90-652D-4B27-AC2B-1ACF7BE26A9E";
shapes = (
{
attr = {
strokePos = "1";
};
closed = 1;
nodes = (
(416,-172,o),
(420,-176,o),
(432,-176,cs),
(444,-176,o),
(448,-172,o),
(448,-160,cs),
(448,1256,ls),
(448,1370,o),
(402,1416,o),
(288,1416,cs),
(174,1416,o),
(128,1370,o),
(128,1256,cs),
(128,140,ls),
(128,26,o),
(174,-20,o),
(288,-20,cs),
(354,-20,o),
(396,-3,o),
(419,40,c),
(422,39,l),
(417,1,o),
(416,-34,o),
(416,-74,cs),
(416,-160,ls)
);
},
{
attr = {
strokePos = "1";
};
closed = 1;
nodes = (
(160,1256,ls),
(160,1354,o),
(192,1386,o),
(288,1386,cs),
(384,1386,o),
(416,1354,o),
(416,1256,cs),
(416,140,ls),
(416,42,o),
(384,10,o),
(288,10,cs),
(192,10,o),
(160,42,o),
(160,140,cs)
);
}
);
width = 576;
},
{
layerId = "C167734A-3797-41AB-93B1-2512951510F4";
shapes = (
{
closed = 1;
nodes = (
(669,-426,ls),
(694,-414,o),
(711,-389,o),
(711,-358,cs),
(711,1058,ls),
(711,1209,o),
(631,1278,o),
(486,1278,cs),
(439,1278,o),
(395,1270,o),
(363,1255,cs),
(0,1086,ls),
(-67,1055,o),
(-102,991,o),
(-102,889,cs),
(-102,-227,ls),
(-102,-380,o),
(-23,-447,o),
(123,-447,cs),
(146,-447,o),
(166,-445,o),
(186,-441,c),
(186,-527,ls),
(186,-573,o),
(221,-603,o),
(267,-603,cs),
(281,-603,o),
(295,-600,o),
(306,-595,cs)
);
}
);
width = 609;
},
{
layerId = "1B23468A-8BB0-4287-A942-E04502FA5EAD";
shapes = (
{
attr = {
strokePos = "1";
};
closed = 1;
nodes = (
(371,-197,o),
(395,-221,o),
(432,-221,cs),
(469,-221,o),
(493,-197,o),
(493,-160,cs),
(493,1256,ls),
(493,1395,o),
(427,1461,o),
(288,1461,cs),
(149,1461,o),
(83,1395,o),
(83,1256,cs),
(83,140,ls),
(83,1,o),
(149,-65,o),
(288,-65,cs),
(319,-65,o),
(346,-62,o),
(371,-54,c),
(371,-160,ls)
);
},
{
attr = {
strokePos = "1";
};
closed = 1;
nodes = (
(205,1256,ls),
(205,1328,o),
(218,1341,o),
(288,1341,cs),
(358,1341,o),
(371,1328,o),
(371,1256,cs),
(371,140,ls),
(371,68,o),
(358,55,o),
(288,55,cs),
(218,55,o),
(205,68,o),
(205,140,cs)
);
}
);
width = 576;
}
);
metricLeft = "=O";
metricRight = "=|";
unicode = (81,113);
},
{
glyphname = R;
lastChange = "2025-08-08 05:28:35 +0000";
layers = (
{
layerId = "6F666F4F-1A96-4FED-ADB4-134214B8A633";
shapes = (
{
attr = {
strokePos = "1";
};
closed = 1;
nodes = (
(527,-70,o),
(565,-31,o),
(557,19,cs),
(473,556,ls),
(456,667,o),
(383,720,o),
(256,720,cs),
(225,720,l),
(225,902,l),
(245,898,o),
(265,896,o),
(288,896,cs),
(433,896,o),
(513,963,o),
(513,1116,cs),
(513,1256,ls),
(513,1409,o),
(433,1476,o),
(288,1476,cs),
(253,1476,o),
(221,1472,o),
(192,1463,c),
(186,1469,o),
(171,1483,o),
(140,1483,cs),
(99,1483,o),
(57,1445,o),
(57,1405,cs),
(57,1381,o),
(66,1366,o),
(78,1355,c),
(68,1327,o),
(63,1296,o),
(63,1256,cs),
(63,14,ls),
(63,-32,o),
(99,-62,o),
(144,-62,cs),
(189,-62,o),
(225,-32,o),
(225,14,cs),
(225,569,l),
(257,569,ls),
(308,569,o),
(309,569,o),
(315,527,cs),
(396,-4,ls),
(402,-45,o),
(435,-70,o),
(475,-70,cs)
);
},
{
attr = {
strokePos = "1";
};
closed = 1;
nodes = (
(230,1046,o),
(225,1051,o),
(225,1116,cs),
(225,1256,ls),
(225,1321,o),
(230,1326,o),
(288,1326,cs),
(346,1326,o),
(351,1321,o),
(351,1256,cs),
(351,1116,ls),
(351,1051,o),
(346,1046,o),
(288,1046,cs)
);
}
);
width = 544;
},
{
layerId = "5B8359BC-834E-43C0-95AC-1478E595F26B";
shapes = (
{
closed = 1;
nodes = (
(671,358,ls),
(664,404,o),
(646,441,o),
(620,467,cs),
(423,664,l),
(423,704,l),
(444,700,o),
(463,698,o),
(486,698,cs),
(629,698,o),
(711,765,o),
(711,918,cs),
(711,1058,ls),
(711,1130,o),
(694,1185,o),
(657,1222,cs),
(459,1420,ls),
(422,1457,o),
(363,1476,o),
(288,1476,cs),
(253,1476,o),
(221,1472,o),
(192,1463,c),
(186,1469,o),
(171,1483,o),
(140,1483,cs),
(99,1483,o),
(57,1445,o),
(57,1405,cs),
(57,1381,o),
(66,1366,o),
(78,1355,c),
(68,1327,o),
(63,1296,o),
(63,1256,cs),
(63,14,ls),
(63,-7,o),
(71,-26,o),
(84,-39,cs),
(282,-237,ls),
(294,-249,o),
(318,-260,o),
(342,-260,cs),
(385,-260,o),
(423,-230,o),
(423,-184,cs),
(423,-53,l),
(615,-245,ls),
(632,-262,o),
(650,-268,o),
(673,-268,cs),
(723,-268,o),
(763,-229,o),
(755,-179,cs)
);
}
);
width = 544;
},
{
layerId = "3FC41B90-652D-4B27-AC2B-1ACF7BE26A9E";
shapes = (
{
attr = {
strokePos = "1";
};
closed = 1;
nodes = (
(155,-2,o),
(160,3,o),
(160,14,cs),
(160,629,l),
(257,629,ls),
(347,629,o),
(368,606,o),
(379,536,cs),
(461,3,ls),
(462,-6,o),
(467,-10,o),
(475,-10,cs),
(489,-10,o),
(495,-3,o),
(493,8,cs),
(409,547,ls),
(397,627,o),
(352,660,o),
(256,660,cs),
(160,660,l),
(160,902,ls),
(160,942,o),
(159,977,o),
(154,1015,c),
(157,1016,l),
(179,974,o),
(221,956,o),
(288,956,cs),
(402,956,o),
(448,1002,o),
(448,1116,cs),
(448,1256,ls),
(448,1370,o),
(402,1416,o),
(288,1416,cs),
(239,1416,o),
(203,1407,o),
(178,1389,c),
(151,1416,ls),
(147,1420,o),
(143,1422,o),
(140,1422,cs),
(136,1422,o),
(132,1420,o),
(128,1416,cs),
(125,1413,o),
(122,1408,o),
(122,1405,cs),
(122,1401,o),
(125,1396,o),
(128,1393,cs),
(155,1366,l),
(137,1341,o),
(128,1305,o),
(128,1256,cs),
(128,14,ls),
(128,3,o),
(133,-2,o),
(144,-2,cs)
);
},
{
attr = {
strokePos = "1";
};
closed = 1;
nodes = (
(160,1256,ls),
(160,1354,o),
(192,1386,o),
(288,1386,cs),
(384,1386,o),
(416,1354,o),
(416,1256,cs),
(416,1116,ls),
(416,1018,o),
(384,986,o),
(288,986,cs),
(192,986,o),
(160,1018,o),
(160,1116,cs)
);
}
);
width = 544;
},
{
layerId = "C167734A-3797-41AB-93B1-2512951510F4";
shapes = (
{
closed = 1;
nodes = (
(712,-259,ls),
(742,-245,o),
(761,-215,o),
(755,-179,cs),
(671,358,ls),
(653,470,o),
(581,522,o),
(454,522,cs),
(423,522,l),
(423,635,l),
(608,721,ls),
(675,752,o),
(711,816,o),
(711,918,cs),
(711,1058,ls),
(711,1209,o),
(631,1278,o),
(486,1278,cs),
(452,1278,o),
(419,1274,o),
(390,1265,c),
(376,1275,o),
(355,1284,o),
(338,1284,cs),
(328,1284,o),
(313,1280,o),
(303,1275,cs),
(-60,1106,ls),
(-70,1101,o),
(-80,1094,o),
(-83,1091,cs),
(-94,1080,o),
(-108,1058,o),
(-108,1038,cs),
(-108,1019,o),
(-98,1001,o),
(-87,988,c),
(-97,960,o),
(-102,929,o),
(-102,889,cs),
(-102,-353,ls),
(-102,-399,o),
(-66,-429,o),
(-21,-429,cs),
(-7,-429,o),
(6,-426,o),
(18,-421,cs),
(224,-324,l),
(231,-371,ls),
(237,-412,o),
(270,-437,o),
(310,-437,cs),
(325,-437,o),
(337,-434,o),
(350,-428,cs)
);
}
);
width = 544;
},
{
layerId = "1B23468A-8BB0-4287-A942-E04502FA5EAD";
shapes = (
{
attr = {
strokePos = "1";
};
closed = 1;
nodes = (
(180,-47,o),
(205,-22,o),
(205,14,cs),
(205,584,l),
(257,584,ls),
(321,584,o),
(327,580,o),
(335,529,cs),
(416,-3,ls),
(421,-34,o),
(445,-55,o),
(475,-55,cs),
(517,-55,o),
(543,-24,o),
(537,15,cs),
(453,554,ls),
(437,659,o),
(373,705,o),
(256,705,cs),
(205,705,l),
(205,923,l),
(229,915,o),
(257,911,o),
(288,911,cs),
(427,911,o),
(493,977,o),
(493,1116,cs),
(493,1256,ls),
(493,1395,o),
(427,1461,o),
(288,1461,cs),
(249,1461,o),
(216,1456,o),
(186,1444,c),
(168,1464,o),
(156,1467,o),
(140,1467,cs),
(105,1467,o),
(77,1434,o),
(77,1405,cs),
(77,1389,o),
(81,1375,o),
(100,1358,c),
(88,1328,o),
(83,1295,o),
(83,1256,cs),
(83,14,ls),
(83,-22,o),
(108,-47,o),
(144,-47,cs)
);
},
{
attr = {
strokePos = "1";
};
closed = 1;
nodes = (
(205,1256,ls),
(205,1328,o),
(218,1341,o),
(288,1341,cs),
(358,1341,o),
(371,1328,o),
(371,1256,cs),
(371,1116,ls),
(371,1044,o),
(358,1031,o),
(288,1031,cs),
(218,1031,o),
(205,1044,o),
(205,1116,cs)
);
}
);
width = 544;
}
);
unicode = (82,114);
},
{
glyphname = S;
lastChange = "2025-08-22 13:15:18 +0000";
layers = (
{
layerId = "3FC41B90-652D-4B27-AC2B-1ACF7BE26A9E";
shapes = (
{
attr = {
strokePos = "1";
};
closed = 1;
nodes = (
(128,138,ls),
(128,30,o),
(178,-20,o),
(288,-20,cs),
(398,-20,o),
(448,30,o),
(448,138,cs),
(448,720,ls),
(448,840,o),
(410,878,o),
(288,878,cs),
(192,878,o),
(160,910,o),
(160,1008,cs),
(160,1256,ls),
(160,1354,o),
(192,1386,o),
(288,1386,cs),
(384,1386,o),
(416,1354,o),
(416,1256,cs),
(416,1158,ls),
(416,1146,o),
(420,1142,o),
(432,1142,cs),
(444,1142,o),
(448,1146,o),
(448,1158,cs),
(448,1256,ls),
(448,1370,o),
(402,1416,o),
(288,1416,cs),
(174,1416,o),
(128,1370,o),
(128,1256,cs),
(128,1008,ls),
(128,894,o),
(174,848,o),
(288,848,cs),
(392,848,o),
(416,824,o),
(416,720,cs),
(416,138,ls),
(416,46,o),
(380,10,o),
(288,10,cs),
(196,10,o),
(160,46,o),
(160,138,cs),
(160,432,ls),
(160,444,o),
(156,448,o),
(144,448,cs),
(132,448,o),
(128,444,o),
(128,432,cs)
);
}
);
width = 576;
},
{
layerId = "6F666F4F-1A96-4FED-ADB4-134214B8A633";
shapes = (
{
attr = {
strokePos = "1";
};
closed = 1;
nodes = (
(63,138,ls),
(63,-5,o),
(144,-80,o),
(288,-80,cs),
(432,-80,o),
(513,-5,o),
(513,138,cs),
(513,720,ls),
(513,873,o),
(447,938,o),
(288,938,cs),
(230,938,o),
(225,943,o),
(225,1008,cs),
(225,1256,ls),
(225,1321,o),
(230,1326,o),
(288,1326,cs),
(346,1326,o),
(351,1321,o),
(351,1256,cs),
(351,1158,ls),
(351,1112,o),
(386,1082,o),
(432,1082,cs),
(478,1082,o),
(513,1112,o),
(513,1158,cs),
(513,1256,ls),
(513,1409,o),
(433,1476,o),
(288,1476,cs),
(142,1476,o),
(63,1409,o),
(63,1256,cs),
(63,1008,ls),
(63,855,o),
(142,788,o),
(288,788,cs),
(351,788,o),
(351,788,o),
(351,720,cs),
(351,138,ls),
(351,79,o),
(343,70,o),
(288,70,cs),
(233,70,o),
(225,79,o),
(225,138,cs),
(225,432,ls),
(225,478,o),
(190,508,o),
(144,508,cs),
(98,508,o),
(63,478,o),
(63,432,cs)
);
}
);
width = 576;
},
{
layerId = "5B8359BC-834E-43C0-95AC-1478E595F26B";
shapes = (
{
closed = 1;
nodes = (
(317,-220,ls),
(354,-257,o),
(413,-278,o),
(486,-278,cs),
(628,-278,o),
(711,-203,o),
(711,-60,cs),
(711,522,ls),
(711,596,o),
(695,652,o),
(660,687,cs),
(462,885,ls),
(453,894,o),
(438,905,o),
(423,913,c),
(423,1054,l),
(570,907,ls),
(583,894,o),
(606,884,o),
(630,884,cs),
(674,884,o),
(711,914,o),
(711,960,cs),
(711,1058,ls),
(711,1130,o),
(694,1185,o),
(657,1222,cs),
(459,1420,ls),
(422,1457,o),
(363,1476,o),
(288,1476,cs),
(142,1476,o),
(63,1409,o),
(63,1256,cs),
(63,1008,ls),
(63,934,o),
(84,878,o),
(118,844,cs),
(316,646,ls),
(325,637,o),
(337,627,o),
(351,619,c),
(351,338,l),
(204,485,ls),
(192,497,o),
(168,508,o),
(144,508,cs),
(98,508,o),
(63,478,o),
(63,432,cs),
(63,138,ls),
(63,68,o),
(84,13,o),
(119,-22,cs)
);
}
);
width = 774;
},
{
layerId = "C167734A-3797-41AB-93B1-2512951510F4";
shapes = (
{
closed = 1;
nodes = (
(604,-255,ls),
(673,-223,o),
(711,-157,o),
(711,-60,cs),
(711,522,ls),
(711,673,o),
(645,740,o),
(486,740,cs),
(441,740,o),
(427,744,o),
(424,778,c),
(669,892,ls),
(694,904,o),
(711,929,o),
(711,960,cs),
(711,1058,ls),
(711,1209,o),
(631,1278,o),
(486,1278,cs),
(439,1278,o),
(395,1270,o),
(363,1255,cs),
(0,1086,ls),
(-67,1055,o),
(-102,991,o),
(-102,889,cs),
(-102,641,ls),
(-102,488,o),
(-23,421,o),
(123,421,cs),
(186,421,o),
(186,421,o),
(186,353,cs),
(186,248,l),
(-60,133,ls),
(-87,120,o),
(-102,97,o),
(-102,65,cs),
(-102,-229,ls),
(-102,-372,o),
(-21,-447,o),
(123,-447,cs),
(169,-447,o),
(208,-440,o),
(242,-424,cs)
);
}
);
width = 609;
},
{
layerId = "1B23468A-8BB0-4287-A942-E04502FA5EAD";
shapes = (
{
attr = {
strokePos = "1";
};
closed = 1;
nodes = (
(83,138,ls),
(83,5,o),
(153,-65,o),
(288,-65,cs),
(423,-65,o),
(493,5,o),
(493,138,cs),
(493,720,ls),
(493,865,o),
(435,923,o),
(288,923,cs),
(218,923,o),
(205,936,o),
(205,1008,cs),
(205,1256,ls),
(205,1328,o),
(218,1341,o),
(288,1341,cs),
(358,1341,o),
(371,1328,o),
(371,1256,cs),
(371,1158,ls),
(371,1121,o),
(395,1097,o),
(432,1097,cs),
(469,1097,o),
(493,1121,o),
(493,1158,cs),
(493,1256,ls),
(493,1395,o),
(427,1461,o),
(288,1461,cs),
(149,1461,o),
(83,1395,o),
(83,1256,cs),
(83,1008,ls),
(83,869,o),
(149,803,o),
(288,803,cs),
(366,803,o),
(371,798,o),
(371,720,cs),
(371,138,ls),
(371,71,o),
(355,55,o),
(288,55,cs),
(221,55,o),
(205,71,o),
(205,138,cs),
(205,432,ls),
(205,469,o),
(181,493,o),
(144,493,cs),
(107,493,o),
(83,469,o),
(83,432,cs)
);
}
);
width = 576;
}
);
metricLeft = O;
metricRight = O;
unicode = (83,115);
},
{
glyphname = T;
kernLeft = Y;
kernRight = Y;
lastChange = "2025-08-22 13:15:18 +0000";
layers = (
{
layerId = "6F666F4F-1A96-4FED-ADB4-134214B8A633";
shapes = (
{
attr = {
strokePos = 0;
};
closed = 1;
nodes = (
(46,1460,ls),
(2,1460,o),
(-33,1430,o),
(-33,1386,cs),
(-33,1384,ls),
(-33,1340,o),
(2,1310,o),
(46,1310,cs),
(111,1310,l),
(111,14,ls),
(111,-32,o),
(146,-62,o),
(192,-62,cs),
(238,-62,o),
(273,-32,o),
(273,14,cs),
(273,1310,l),
(336,1310,ls),
(382,1310,o),
(417,1340,o),
(417,1384,cs),
(417,1386,ls),
(417,1430,o),
(382,1460,o),
(336,1460,cs)
);
}
);
width = 384;
},
{
layerId = "5B8359BC-834E-43C0-95AC-1478E595F26B";
shapes = (
{
closed = 1;
nodes = (
(111,1210,l),
(111,14,ls),
(111,-8,o),
(122,-29,o),
(132,-39,cs),
(330,-237,ls),
(342,-249,o),
(366,-260,o),
(390,-260,cs),
(434,-260,o),
(471,-230,o),
(471,-184,cs),
(471,1112,l),
(534,1112,ls),
(578,1112,o),
(615,1142,o),
(615,1186,cs),
(615,1188,ls),
(615,1207,o),
(607,1227,o),
(595,1239,cs),
(397,1437,ls),
(385,1449,o),
(361,1460,o),
(336,1460,cs),
(46,1460,ls),
(2,1460,o),
(-33,1430,o),
(-33,1386,cs),
(-33,1384,ls),
(-33,1363,o),
(-22,1343,o),
(-12,1333,cs)
);
}
);
width = 582;
},
{
layerId = "3FC41B90-652D-4B27-AC2B-1ACF7BE26A9E";
shapes = (
{
attr = {
strokePos = 0;
};
closed = 1;
nodes = (
(46,1400,ls),
(36,1400,o),
(32,1396,o),
(32,1386,cs),
(32,1384,ls),
(32,1374,o),
(36,1370,o),
(46,1370,cs),
(176,1370,l),
(176,14,ls),
(176,2,o),
(180,-2,o),
(192,-2,cs),
(204,-2,o),
(208,2,o),
(208,14,cs),
(208,1370,l),
(336,1370,ls),
(348,1370,o),
(352,1374,o),
(352,1384,cs),
(352,1386,ls),
(352,1396,o),
(348,1400,o),
(336,1400,cs)
);
}
);
width = 384;
},
{
layerId = "C167734A-3797-41AB-93B1-2512951510F4";
shapes = (
{
closed = 1;
nodes = (
(-156,1085,ls),
(-182,1073,o),
(-198,1050,o),
(-198,1019,cs),
(-198,1017,ls),
(-198,973,o),
(-163,943,o),
(-119,943,cs),
(-54,943,l),
(-54,-353,ls),
(-54,-399,o),
(-19,-429,o),
(27,-429,cs),
(41,-429,o),
(55,-426,o),
(66,-421,cs),
(429,-252,ls),
(454,-240,o),
(471,-215,o),
(471,-184,cs),
(471,1073,l),
(573,1121,ls),
(599,1133,o),
(615,1156,o),
(615,1186,cs),
(615,1188,ls),
(615,1230,o),
(580,1262,o),
(534,1262,cs),
(244,1262,ls),
(232,1262,o),
(217,1259,o),
(207,1254,cs)
);
}
);
width = 417;
},
{
layerId = "1B23468A-8BB0-4287-A942-E04502FA5EAD";
shapes = (
{
attr = {
strokePos = 0;
};
closed = 1;
nodes = (
(46,1445,ls),
(12,1445,o),
(-13,1421,o),
(-13,1386,cs),
(-13,1384,ls),
(-13,1349,o),
(12,1325,o),
(46,1325,cs),
(131,1325,l),
(131,14,ls),
(131,-22,o),
(155,-47,o),
(192,-47,cs),
(229,-47,o),
(253,-22,o),
(253,14,cs),
(253,1325,l),
(336,1325,ls),
(370,1325,o),
(397,1346,o),
(397,1384,cs),
(397,1386,ls),
(397,1424,o),
(370,1445,o),
(336,1445,cs)
);
}
);
width = 384;
}
);
metricRight = "=|";
unicode = (84,116);
},
{
glyphname = U;
lastChange = "2025-08-22 13:15:18 +0000";
layers = (
{
layerId = "6F666F4F-1A96-4FED-ADB4-134214B8A633";
shapes = (
{
attr = {
strokePos = "1";
};
closed = 1;
nodes = (
(351,140,ls),
(351,75,o),
(346,70,o),
(288,70,cs),
(230,70,o),
(225,75,o),
(225,140,cs),
(225,1386,ls),
(225,1432,o),
(190,1462,o),
(144,1462,cs),
(98,1462,o),
(63,1432,o),
(63,1386,cs),
(63,140,ls),
(63,-13,o),
(142,-80,o),
(288,-80,cs),
(433,-80,o),
(513,-13,o),
(513,140,cs),
(513,1386,ls),
(513,1432,o),
(478,1462,o),
(432,1462,cs),
(386,1462,o),
(351,1432,o),
(351,1386,cs)
);
}
);
width = 576;
},
{
layerId = "5B8359BC-834E-43C0-95AC-1478E595F26B";
shapes = (
{
closed = 1;
nodes = (
(316,-222,ls),
(353,-259,o),
(411,-278,o),
(486,-278,cs),
(629,-278,o),
(711,-211,o),
(711,-58,cs),
(711,1188,ls),
(711,1208,o),
(702,1229,o),
(690,1241,cs),
(492,1439,ls),
(480,1451,o),
(456,1462,o),
(432,1462,cs),
(386,1462,o),
(351,1432,o),
(351,1386,cs),
(351,1292,l),
(204,1439,ls),
(192,1451,o),
(168,1462,o),
(144,1462,cs),
(98,1462,o),
(63,1432,o),
(63,1386,cs),
(63,140,ls),
(63,66,o),
(83,11,o),
(118,-24,cs)
);
}
);
width = 774;
},
{
layerId = "3FC41B90-652D-4B27-AC2B-1ACF7BE26A9E";
shapes = (
{
attr = {
strokePos = "1";
};
closed = 1;
nodes = (
(416,140,ls),
(416,42,o),
(384,10,o),
(288,10,cs),
(192,10,o),
(160,42,o),
(160,140,cs),
(160,1386,ls),
(160,1398,o),
(156,1402,o),
(144,1402,cs),
(132,1402,o),
(128,1398,o),
(128,1386,cs),
(128,140,ls),
(128,26,o),
(174,-20,o),
(288,-20,cs),
(402,-20,o),
(448,26,o),
(448,140,cs),
(448,1386,ls),
(448,1398,o),
(444,1402,o),
(432,1402,cs),
(420,1402,o),
(416,1398,o),
(416,1386,cs)
);
}
);
width = 576;
},
{
layerId = "C167734A-3797-41AB-93B1-2512951510F4";
shapes = (
{
closed = 1;
nodes = (
(-60,1087,ls),
(-87,1075,o),
(-102,1051,o),
(-102,1019,cs),
(-102,-227,ls),
(-102,-380,o),
(-23,-447,o),
(123,-447,cs),
(171,-447,o),
(212,-440,o),
(246,-424,cs),
(608,-255,ls),
(675,-224,o),
(711,-160,o),
(711,-58,cs),
(711,1188,ls),
(711,1232,o),
(676,1264,o),
(630,1264,cs),
(617,1264,o),
(602,1261,o),
(591,1256,cs),
(423,1178,l),
(423,1188,ls),
(423,1232,o),
(388,1264,o),
(342,1264,cs),
(329,1264,o),
(314,1261,o),
(303,1256,cs)
);
}
);
width = 609;
},
{
layerId = "1B23468A-8BB0-4287-A942-E04502FA5EAD";
shapes = (
{
attr = {
strokePos = "1";
};
closed = 1;
nodes = (
(371,140,ls),
(371,68,o),
(358,55,o),
(288,55,cs),
(218,55,o),
(205,68,o),
(205,140,cs),
(205,1386,ls),
(205,1423,o),
(181,1447,o),
(144,1447,cs),
(107,1447,o),
(83,1423,o),
(83,1386,cs),
(83,140,ls),
(83,1,o),
(149,-65,o),
(288,-65,cs),
(427,-65,o),
(493,1,o),
(493,140,cs),
(493,1386,ls),
(493,1423,o),
(469,1447,o),
(432,1447,cs),
(395,1447,o),
(371,1423,o),
(371,1386,cs)
);
}
);
width = 576;
}
);
metricLeft = "=O";
metricRight = "=|";
unicode = (85,117);
},
{
glyphname = V;
kernLeft = V;
kernRight = V;
lastChange = "2025-08-22 13:15:18 +0000";
layers = (
{
layerId = "6F666F4F-1A96-4FED-ADB4-134214B8A633";
shapes = (
{
closed = 1;
nodes = (
(255,-60,ls),
(309,-60,o),
(350,-33,o),
(356,31,cs),
(472,1379,ls),
(476,1427,o),
(438,1461,o),
(389,1461,cs),
(348,1461,o),
(314,1433,o),
(310,1392,cs),
(240,578,l),
(170,1392,ls),
(166,1433,o),
(132,1461,o),
(91,1461,cs),
(44,1461,o),
(8,1430,o),
(8,1386,cs),
(8,1379,l),
(124,31,ls),
(130,-33,o),
(171,-60,o),
(225,-60,cs)
);
}
);
width = 480;
},
{
layerId = "5B8359BC-834E-43C0-95AC-1478E595F26B";
shapes = (
{
closed = 1;
nodes = (
(452,1437,ls),
(439,1450,o),
(414,1461,o),
(389,1461,cs),
(348,1461,o),
(313,1433,o),
(310,1392,cs),
(301,1286,l),
(149,1438,ls),
(137,1450,o),
(114,1461,o),
(91,1461,cs),
(44,1461,o),
(8,1430,o),
(8,1386,cs),
(8,1379,l),
(124,31,ls),
(126,3,o),
(139,-21,o),
(151,-33,cs),
(349,-231,ls),
(365,-247,o),
(393,-258,o),
(423,-258,cs),
(453,-258,ls),
(505,-258,o),
(548,-231,o),
(554,-167,cs),
(670,1181,ls),
(672,1204,o),
(662,1227,o),
(650,1239,cs)
);
}
);
width = 678;
},
{
layerId = "3FC41B90-652D-4B27-AC2B-1ACF7BE26A9E";
shapes = (
{
closed = 1;
nodes = (
(255,0,ls),
(281,0,o),
(289,10,o),
(291,36,cs),
(407,1384,ls),
(408,1396,o),
(401,1401,o),
(389,1401,cs),
(380,1401,o),
(376,1396,o),
(375,1386,cs),
(258,30,l),
(222,30,l),
(105,1386,ls),
(104,1396,o),
(100,1401,o),
(91,1401,cs),
(80,1401,o),
(73,1397,o),
(73,1386,cs),
(73,1385,o),
(73,1385,o),
(73,1384,cs),
(189,36,ls),
(191,10,o),
(199,0,o),
(225,0,cs)
);
}
);
width = 480;
},
{
layerId = "C167734A-3797-41AB-93B1-2512951510F4";
shapes = (
{
closed = 1;
nodes = (
(504,-248,ls),
(531,-235,o),
(550,-209,o),
(554,-167,cs),
(670,1181,ls),
(674,1228,o),
(636,1263,o),
(587,1263,cs),
(575,1263,o),
(562,1261,o),
(551,1256,cs),
(370,1171,l),
(368,1194,ls),
(364,1236,o),
(330,1263,o),
(289,1263,cs),
(276,1263,o),
(260,1260,o),
(249,1255,cs),
(-114,1086,ls),
(-140,1074,o),
(-157,1050,o),
(-157,1019,cs),
(-157,1012,l),
(-41,-336,ls),
(-35,-400,o),
(6,-427,o),
(60,-427,cs),
(90,-427,ls),
(109,-427,o),
(126,-424,o),
(141,-417,cs)
);
}
);
width = 513;
},
{
layerId = "1B23468A-8BB0-4287-A942-E04502FA5EAD";
shapes = (
{
closed = 1;
nodes = (
(255,-45,ls),
(305,-45,o),
(332,-18,o),
(336,32,cs),
(452,1380,ls),
(455,1418,o),
(427,1446,o),
(389,1446,cs),
(357,1446,o),
(333,1423,o),
(330,1390,cs),
(240,343,l),
(150,1390,ls),
(147,1423,o),
(123,1446,o),
(91,1446,cs),
(54,1446,o),
(28,1421,o),
(28,1386,cs),
(28,1380,l),
(144,32,ls),
(148,-18,o),
(175,-45,o),
(225,-45,cs)
);
}
);
width = 480;
}
);
metricRight = "=|";
unicode = (86,118);
},
{
glyphname = W;
lastChange = "2025-08-22 13:15:18 +0000";
layers = (
{
layerId = "6F666F4F-1A96-4FED-ADB4-134214B8A633";
shapes = (
{
attr = {
strokePos = "1";
};
closed = 1;
nodes = (
(319,124,ls),
(319,71,o),
(318,70,o),
(272,70,cs),
(226,70,o),
(225,71,o),
(225,124,cs),
(225,1386,ls),
(225,1432,o),
(190,1462,o),
(144,1462,cs),
(98,1462,o),
(63,1432,o),
(63,1386,cs),
(63,124,ls),
(63,-15,o),
(137,-80,o),
(272,-80,cs),
(328,-80,o),
(369,-67,o),
(400,-46,c),
(431,-67,o),
(472,-80,o),
(528,-80,cs),
(663,-80,o),
(737,-15,o),
(737,124,cs),
(737,1386,ls),
(737,1432,o),
(702,1462,o),
(656,1462,cs),
(610,1462,o),
(575,1432,o),
(575,1386,cs),
(575,124,ls),
(575,71,o),
(574,70,o),
(528,70,cs),
(482,70,o),
(481,71,o),
(481,124,cs),
(481,1386,ls),
(481,1432,o),
(446,1462,o),
(400,1462,cs),
(354,1462,o),
(319,1432,o),
(319,1386,cs)
);
}
);
width = 800;
},
{
layerId = "5B8359BC-834E-43C0-95AC-1478E595F26B";
shapes = (
{
closed = 1;
nodes = (
(312,-225,ls),
(347,-260,o),
(401,-278,o),
(470,-278,cs),
(525,-278,o),
(568,-264,o),
(598,-244,c),
(629,-264,o),
(670,-278,o),
(726,-278,cs),
(859,-278,o),
(935,-213,o),
(935,-74,cs),
(935,1188,ls),
(935,1208,o),
(926,1229,o),
(914,1241,cs),
(716,1439,ls),
(704,1451,o),
(680,1462,o),
(656,1462,cs),
(610,1462,o),
(575,1432,o),
(575,1386,cs),
(575,1324,l),
(460,1439,ls),
(448,1451,o),
(424,1462,o),
(400,1462,cs),
(354,1462,o),
(319,1432,o),
(319,1386,cs),
(319,1324,l),
(204,1439,ls),
(192,1451,o),
(168,1462,o),
(144,1462,cs),
(98,1462,o),
(63,1432,o),
(63,1386,cs),
(63,124,ls),
(63,57,o),
(81,6,o),
(114,-27,cs)
);
}
);
width = 998;
},
{
layerId = "3FC41B90-652D-4B27-AC2B-1ACF7BE26A9E";
shapes = (
{
attr = {
strokePos = "1";
};
closed = 1;
nodes = (
(384,124,ls),
(384,38,o),
(356,10,o),
(272,10,cs),
(188,10,o),
(160,38,o),
(160,124,cs),
(160,1386,ls),
(160,1398,o),
(156,1402,o),
(144,1402,cs),
(132,1402,o),
(128,1398,o),
(128,1386,cs),
(128,124,ls),
(128,22,o),
(170,-20,o),
(272,-20,cs),
(358,-20,o),
(390,18,o),
(398,58,c),
(402,58,l),
(410,18,o),
(442,-20,o),
(528,-20,cs),
(630,-20,o),
(672,22,o),
(672,124,cs),
(672,1386,ls),
(672,1398,o),
(668,1402,o),
(656,1402,cs),
(644,1402,o),
(640,1398,o),
(640,1386,cs),
(640,124,ls),
(640,38,o),
(612,10,o),
(528,10,cs),
(444,10,o),
(416,38,o),
(416,124,cs),
(416,1386,ls),
(416,1398,o),
(412,1402,o),
(400,1402,cs),
(388,1402,o),
(384,1398,o),
(384,1386,cs)
);
}
);
width = 800;
},
{
layerId = "C167734A-3797-41AB-93B1-2512951510F4";
shapes = (
{
closed = 1;
nodes = (
(-60,1087,ls),
(-87,1075,o),
(-102,1051,o),
(-102,1019,cs),
(-102,-243,ls),
(-102,-382,o),
(-28,-447,o),
(107,-447,cs),
(150,-447,o),
(184,-438,o),
(212,-426,cs),
(237,-415,l),
(267,-434,o),
(308,-447,o),
(363,-447,cs),
(408,-447,o),
(444,-441,o),
(476,-426,cs),
(839,-256,ls),
(901,-227,o),
(935,-167,o),
(935,-74,cs),
(935,1188,ls),
(935,1232,o),
(900,1264,o),
(854,1264,cs),
(841,1264,o),
(826,1261,o),
(815,1256,cs),
(678,1192,l),
(676,1236,o),
(642,1264,o),
(598,1264,cs),
(585,1264,o),
(570,1261,o),
(559,1256,cs),
(422,1192,l),
(420,1236,o),
(386,1264,o),
(342,1264,cs),
(329,1264,o),
(314,1261,o),
(303,1256,cs)
);
},
{
closed = 1;
nodes = (
(316,-213,l),
(316,-230,l),
(314,-228,o),
(309,-223,o),
(305,-218,c)
);
}
);
width = 833;
},
{
layerId = "1B23468A-8BB0-4287-A942-E04502FA5EAD";
shapes = (
{
attr = {
strokePos = "1";
};
closed = 1;
nodes = (
(339,124,ls),
(339,64,o),
(330,55,o),
(272,55,cs),
(214,55,o),
(205,64,o),
(205,124,cs),
(205,1386,ls),
(205,1423,o),
(181,1447,o),
(144,1447,cs),
(107,1447,o),
(83,1423,o),
(83,1386,cs),
(83,124,ls),
(83,-3,o),
(145,-65,o),
(272,-65,cs),
(331,-65,o),
(373,-48,o),
(400,-24,c),
(427,-48,o),
(469,-65,o),
(528,-65,cs),
(655,-65,o),
(717,-3,o),
(717,124,cs),
(717,1386,ls),
(717,1423,o),
(693,1447,o),
(656,1447,cs),
(619,1447,o),
(595,1423,o),
(595,1386,cs),
(595,124,ls),
(595,64,o),
(586,55,o),
(528,55,cs),
(470,55,o),
(461,64,o),
(461,124,cs),
(461,1386,ls),
(461,1423,o),
(437,1447,o),
(400,1447,cs),
(363,1447,o),
(339,1423,o),
(339,1386,cs)
);
}
);
width = 800;
}
);
metricLeft = "=O";
metricRight = "=|";
unicode = (87,119);
},
{
glyphname = X;
lastChange = "2025-08-08 05:30:59 +0000";
layers = (
{
layerId = "6F666F4F-1A96-4FED-ADB4-134214B8A633";
shapes = (
{
closed = 1;
nodes = (
(445,-62,o),
(481,-32,o),
(481,14,cs),
(481,708,ls),
(481,786,o),
(453,840,o),
(380,887,c),
(389,882,l),
(488,1372,ls),
(500,1429,o),
(448,1462,o),
(407,1462,cs),
(370,1462,o),
(337,1439,o),
(329,1400,cs),
(242,977,l),
(232,983,ls),
(200,1004,o),
(193,1014,o),
(193,1046,cs),
(193,1386,ls),
(193,1431,o),
(157,1462,o),
(112,1462,cs),
(67,1462,o),
(31,1431,o),
(31,1386,cs),
(31,1046,ls),
(31,943,o),
(87,894,o),
(144,857,c),
(131,865,l),
(5,41,ls),
(3,30,o),
(2,24,o),
(2,15,cs),
(2,-32,o),
(37,-62,o),
(82,-62,cs),
(121,-62,o),
(155,-39,o),
(162,1,cs),
(162,3,l),
(279,769,l),
(292,760,ls),
(315,746,o),
(319,738,o),
(319,708,cs),
(319,14,ls),
(319,-32,o),
(355,-62,o),
(400,-62,cs)
);
}
);
width = 512;
},
{
layerId = "5B8359BC-834E-43C0-95AC-1478E595F26B";
shapes = (
{
closed = 1;
nodes = (
(588,689,l),
(686,1174,ls),
(692,1202,o),
(684,1224,o),
(668,1240,cs),
(470,1438,ls),
(456,1452,o),
(430,1462,o),
(407,1462,cs),
(369,1462,o),
(337,1439,o),
(329,1400,cs),
(309,1302,l),
(172,1439,ls),
(160,1451,o),
(136,1462,o),
(112,1462,cs),
(67,1462,o),
(31,1431,o),
(31,1386,cs),
(31,1046,ls),
(31,978,o),
(58,932,o),
(89,901,cs),
(130,859,l),
(3,28,ls),
(2,24,o),
(2,20,o),
(2,16,cs),
(2,-6,o),
(11,-26,o),
(23,-38,cs),
(221,-236,ls),
(236,-251,o),
(261,-260,o),
(280,-260,cs),
(319,-260,o),
(353,-237,o),
(360,-197,cs),
(360,-195,l),
(378,-77,l),
(538,-237,ls),
(550,-249,o),
(574,-260,o),
(598,-260,cs),
(641,-260,o),
(679,-230,o),
(679,-184,cs),
(679,510,ls),
(679,567,o),
(663,614,o),
(625,652,cs)
);
},
{
closed = 0;
nodes = (
(221,-2,l)
);
}
);
width = 512;
},
{
layerId = "3FC41B90-652D-4B27-AC2B-1ACF7BE26A9E";
shapes = (
{
closed = 1;
nodes = (
(411,-2,o),
(416,3,o),
(416,14,cs),
(416,708,ls),
(416,767,o),
(397,803,o),
(345,837,cs),
(317,855,l),
(424,1382,ls),
(427,1398,o),
(415,1402,o),
(406,1402,cs),
(399,1402,o),
(395,1398,o),
(393,1389,cs),
(287,874,l),
(197,933,ls),
(155,960,o),
(128,985,o),
(128,1046,cs),
(128,1386,ls),
(128,1397,o),
(123,1402,o),
(112,1402,cs),
(101,1402,o),
(96,1397,o),
(96,1386,cs),
(96,1046,ls),
(96,971,o),
(133,937,o),
(179,907,cs),
(201,893,l),
(67,17,ls),
(65,4,o),
(70,-2,o),
(83,-2,cs),
(92,-2,o),
(96,2,o),
(98,12,cs),
(230,874,l),
(327,811,ls),
(369,784,o),
(384,757,o),
(384,708,cs),
(384,14,ls),
(384,3,o),
(389,-2,o),
(400,-2,cs)
);
}
);
width = 512;
},
{
layerId = "C167734A-3797-41AB-93B1-2512951510F4";
shapes = (
{
closed = 1;
nodes = (
(276,-420,l),
(636,-252,ls),
(663,-240,o),
(679,-215,o),
(679,-184,cs),
(679,510,ls),
(679,583,o),
(654,638,o),
(587,684,c),
(686,1174,ls),
(687,1179,o),
(687,1184,o),
(687,1189,cs),
(687,1227,o),
(661,1255,o),
(622,1262,cs),
(616,1263,o),
(610,1264,o),
(604,1264,cs),
(591,1264,o),
(578,1261,o),
(568,1256,cs),
(391,1173,l),
(391,1188,ls),
(391,1231,o),
(355,1264,o),
(310,1264,cs),
(298,1264,o),
(283,1261,o),
(272,1256,cs),
(-91,1087,ls),
(-117,1075,o),
(-134,1051,o),
(-134,1019,cs),
(-134,679,ls),
(-134,584,o),
(-86,535,o),
(-33,499,c),
(-162,-339,ls),
(-163,-344,o),
(-163,-349,o),
(-163,-354,cs),
(-163,-404,o),
(-123,-428,o),
(-82,-429,cs),
(-68,-429,o),
(-56,-426,o),
(-45,-421,cs),
(154,-328,l),
(154,-353,ls),
(154,-399,o),
(190,-429,o),
(235,-429,cs),
(249,-429,o),
(262,-426,o),
(274,-421,cs)
);
}
);
width = 512;
},
{
layerId = "1B23468A-8BB0-4287-A942-E04502FA5EAD";
shapes = (
{
closed = 1;
nodes = (
(436,-47,o),
(461,-22,o),
(461,14,cs),
(461,708,ls),
(461,782,o),
(435,832,o),
(369,875,cs),
(367,876,l),
(468,1374,ls),
(477,1417,o),
(451,1445,o),
(407,1445,cs),
(379,1445,o),
(356,1430,o),
(349,1398,cs),
(256,948,l),
(222,970,ls),
(186,993,o),
(173,1007,o),
(173,1046,cs),
(173,1386,ls),
(173,1422,o),
(148,1447,o),
(112,1447,cs),
(76,1447,o),
(51,1422,o),
(51,1386,cs),
(51,1046,ls),
(51,951,o),
(102,904,o),
(152,871,c),
(23,24,ls),
(22,19,o),
(22,15,o),
(22,10,cs),
(22,-27,o),
(51,-45,o),
(82,-45,cs),
(112,-45,o),
(137,-27,o),
(142,5,cs),
(264,798,l),
(303,773,ls),
(333,754,o),
(339,742,o),
(339,708,cs),
(339,14,ls),
(339,-22,o),
(364,-47,o),
(400,-47,cs)
);
}
);
width = 512;
}
);
unicode = (88,120);
},
{
glyphname = Y;
kernRight = Y;
lastChange = "2025-08-22 13:15:18 +0000";
layers = (
{
layerId = "6F666F4F-1A96-4FED-ADB4-134214B8A633";
shapes = (
{
closed = 1;
nodes = (
(270,-62,o),
(305,-32,o),
(305,14,cs),
(305,901,l),
(404,925,o),
(449,995,o),
(449,1112,cs),
(449,1386,ls),
(449,1432,o),
(414,1462,o),
(368,1462,cs),
(322,1462,o),
(287,1432,o),
(287,1386,cs),
(287,1112,ls),
(287,1047,o),
(282,1042,o),
(224,1042,cs),
(166,1042,o),
(161,1047,o),
(161,1112,cs),
(161,1386,ls),
(161,1432,o),
(126,1462,o),
(80,1462,cs),
(34,1462,o),
(-1,1432,o),
(-1,1386,cs),
(-1,1112,ls),
(-1,995,o),
(44,925,o),
(143,901,c),
(143,14,ls),
(143,-32,o),
(178,-62,o),
(224,-62,cs)
);
}
);
width = 448;
},
{
layerId = "5B8359BC-834E-43C0-95AC-1478E595F26B";
shapes = (
{
closed = 1;
nodes = (
(428,1439,ls),
(416,1451,o),
(392,1462,o),
(368,1462,cs),
(322,1462,o),
(287,1432,o),
(287,1386,cs),
(287,1292,l),
(140,1439,ls),
(128,1451,o),
(104,1462,o),
(80,1462,cs),
(34,1462,o),
(-1,1430,o),
(-1,1386,cs),
(-1,1112,ls),
(-1,1041,o),
(19,983,o),
(53,949,cs),
(143,859,l),
(143,14,ls),
(143,-8,o),
(154,-29,o),
(164,-39,cs),
(362,-237,ls),
(374,-249,o),
(398,-260,o),
(422,-260,cs),
(466,-260,o),
(503,-230,o),
(503,-184,cs),
(503,703,l),
(602,727,o),
(647,797,o),
(647,914,cs),
(647,1188,ls),
(647,1208,o),
(638,1229,o),
(626,1241,cs)
);
}
);
width = 646;
},
{
layerId = "3FC41B90-652D-4B27-AC2B-1ACF7BE26A9E";
shapes = (
{
closed = 1;
nodes = (
(236,-2,o),
(240,2,o),
(240,14,cs),
(240,952,l),
(343,957,o),
(384,1003,o),
(384,1112,cs),
(384,1386,ls),
(384,1398,o),
(380,1402,o),
(368,1402,cs),
(356,1402,o),
(352,1398,o),
(352,1386,cs),
(352,1112,ls),
(352,1014,o),
(320,982,o),
(224,982,cs),
(128,982,o),
(96,1014,o),
(96,1112,cs),
(96,1386,ls),
(96,1398,o),
(92,1402,o),
(80,1402,cs),
(68,1402,o),
(64,1398,o),
(64,1386,cs),
(64,1112,ls),
(64,1003,o),
(105,957,o),
(208,952,c),
(208,14,ls),
(208,2,o),
(212,-2,o),
(224,-2,cs)
);
}
);
width = 448;
},
{
layerId = "C167734A-3797-41AB-93B1-2512951510F4";
shapes = (
{
closed = 1;
nodes = (
(461,-252,ls),
(486,-240,o),
(503,-215,o),
(503,-184,cs),
(503,698,l),
(545,718,ls),
(613,750,o),
(647,816,o),
(647,914,cs),
(647,1188,ls),
(647,1232,o),
(612,1264,o),
(566,1264,cs),
(553,1264,o),
(538,1261,o),
(527,1256,cs),
(359,1178,l),
(359,1188,ls),
(359,1232,o),
(324,1264,o),
(278,1264,cs),
(265,1264,o),
(250,1261,o),
(239,1256,cs),
(-124,1087,ls),
(-151,1075,o),
(-166,1051,o),
(-166,1019,cs),
(-166,745,ls),
(-166,628,o),
(-121,558,o),
(-22,534,c),
(-22,-353,ls),
(-22,-399,o),
(13,-429,o),
(59,-429,cs),
(73,-429,o),
(87,-426,o),
(98,-421,cs)
);
}
);
width = 481;
},
{
layerId = "1B23468A-8BB0-4287-A942-E04502FA5EAD";
shapes = (
{
closed = 1;
nodes = (
(261,-47,o),
(285,-22,o),
(285,14,cs),
(285,912,l),
(383,930,o),
(429,995,o),
(429,1112,cs),
(429,1386,ls),
(429,1423,o),
(405,1447,o),
(368,1447,cs),
(331,1447,o),
(307,1423,o),
(307,1386,cs),
(307,1112,ls),
(307,1040,o),
(294,1027,o),
(224,1027,cs),
(154,1027,o),
(141,1040,o),
(141,1112,cs),
(141,1386,ls),
(141,1423,o),
(117,1447,o),
(80,1447,cs),
(43,1447,o),
(19,1423,o),
(19,1386,cs),
(19,1112,ls),
(19,995,o),
(65,930,o),
(163,912,c),
(163,14,ls),
(163,-22,o),
(187,-47,o),
(224,-47,cs)
);
}
);
width = 448;
}
);
metricRight = "=|";
unicode = (89,121);
},
{
glyphname = Z;
lastChange = "2025-07-16 14:26:09 +0000";
layers = (
{
layerId = "6F666F4F-1A96-4FED-ADB4-134214B8A633";
shapes = (
{
closed = 1;
nodes = (
(177,90,l),
(444,1338,ls),
(447,1353,o),
(449,1370,o),
(449,1382,cs),
(449,1386,ls),
(449,1430,o),
(414,1460,o),
(370,1460,cs),
(102,1460,ls),
(58,1460,o),
(23,1430,o),
(23,1386,cs),
(23,1384,ls),
(23,1340,o),
(58,1310,o),
(102,1310,cs),
(272,1310,l),
(4,62,ls),
(1,47,o),
(-1,30,o),
(-1,18,cs),
(-1,14,ls),
(-1,-30,o),
(34,-60,o),
(78,-60,cs),
(374,-60,ls),
(418,-60,o),
(453,-30,o),
(453,14,cs),
(453,16,ls),
(453,60,o),
(418,90,o),
(374,90,cs)
);
}
);
width = 464;
},
{
layerId = "5B8359BC-834E-43C0-95AC-1478E595F26B";
shapes = (
{
closed = 1;
nodes = (
(429,1437,ls),
(415,1451,o),
(393,1460,o),
(370,1460,cs),
(102,1460,ls),
(58,1460,o),
(23,1430,o),
(23,1386,cs),
(23,1384,ls),
(23,1363,o),
(34,1343,o),
(44,1333,cs),
(236,1141,l),
(4,62,ls),
(1,47,o),
(-1,28,o),
(-1,18,cs),
(-1,14,ls),
(-1,-7,o),
(9,-26,o),
(20,-37,cs),
(218,-235,ls),
(231,-248,o),
(253,-258,o),
(276,-258,cs),
(572,-258,ls),
(614,-258,o),
(651,-228,o),
(651,-184,cs),
(651,-182,ls),
(651,-163,o),
(641,-141,o),
(631,-131,cs),
(433,67,ls),
(430,70,o),
(422,76,o),
(415,80,c),
(642,1140,ls),
(645,1155,o),
(647,1172,o),
(647,1184,cs),
(647,1188,ls),
(647,1207,o),
(639,1227,o),
(627,1239,cs)
);
}
);
width = 464;
},
{
layerId = "3FC41B90-652D-4B27-AC2B-1ACF7BE26A9E";
shapes = (
{
closed = 1;
nodes = (
(98,30,l),
(380,1350,ls),
(382,1360,o),
(384,1372,o),
(384,1382,cs),
(384,1386,ls),
(384,1396,o),
(380,1400,o),
(370,1400,cs),
(102,1400,ls),
(92,1400,o),
(88,1396,o),
(88,1386,cs),
(88,1384,ls),
(88,1374,o),
(92,1370,o),
(102,1370,cs),
(351,1370,l),
(68,50,ls),
(66,40,o),
(64,28,o),
(64,18,cs),
(64,14,ls),
(64,4,o),
(68,0,o),
(78,0,cs),
(374,0,ls),
(384,0,o),
(388,4,o),
(388,14,cs),
(388,16,ls),
(388,26,o),
(384,30,o),
(374,30,cs)
);
}
);
width = 464;
},
{
layerId = "C167734A-3797-41AB-93B1-2512951510F4";
shapes = (
{
closed = 1;
nodes = (
(-100,1085,ls),
(-126,1073,o),
(-142,1050,o),
(-142,1019,cs),
(-142,1017,ls),
(-142,973,o),
(-107,943,o),
(-63,943,cs),
(107,943,l),
(-161,-305,ls),
(-164,-320,o),
(-166,-337,o),
(-166,-349,cs),
(-166,-353,ls),
(-166,-397,o),
(-131,-427,o),
(-87,-427,cs),
(209,-427,ls),
(223,-427,o),
(235,-424,o),
(246,-419,cs),
(609,-250,ls),
(633,-239,o),
(651,-214,o),
(651,-184,cs),
(651,-182,ls),
(651,-140,o),
(616,-108,o),
(572,-108,cs),
(375,-108,l),
(642,1140,ls),
(645,1154,o),
(647,1172,o),
(647,1184,cs),
(647,1188,ls),
(647,1230,o),
(612,1262,o),
(568,1262,cs),
(300,1262,ls),
(288,1262,o),
(273,1259,o),
(263,1254,cs)
);
}
);
width = 464;
},
{
layerId = "1B23468A-8BB0-4287-A942-E04502FA5EAD";
shapes = (
{
closed = 1;
nodes = (
(154,75,l),
(424,1341,ls),
(426,1351,o),
(429,1368,o),
(429,1382,cs),
(429,1386,ls),
(429,1421,o),
(405,1445,o),
(370,1445,cs),
(102,1445,ls),
(67,1445,o),
(43,1421,o),
(43,1386,cs),
(43,1384,ls),
(43,1349,o),
(67,1325,o),
(102,1325,cs),
(295,1325,l),
(24,59,ls),
(22,49,o),
(19,32,o),
(19,18,cs),
(19,14,ls),
(19,-20,o),
(44,-45,o),
(78,-45,cs),
(374,-45,ls),
(409,-45,o),
(433,-20,o),
(433,14,cs),
(433,16,ls),
(433,50,o),
(409,75,o),
(374,75,cs)
);
}
);
width = 464;
}
);
unicode = (90,122);
},
{
glyphname = zero;
lastChange = "2025-08-22 13:15:18 +0000";
layers = (
{
layerId = "6F666F4F-1A96-4FED-ADB4-134214B8A633";
shapes = (
{
attr = {
strokePos = "1";
};
closed = 1;
nodes = (
(225,1300,o),
(251,1326,o),
(288,1326,cs),
(325,1326,o),
(351,1300,o),
(351,1256,cs),
(351,140,ls),
(351,96,o),
(325,70,o),
(288,70,cs),
(251,70,o),
(225,96,o),
(225,140,cs),
(225,1256,ls)
);
},
{
attr = {
strokePos = "1";
};
closed = 1;
nodes = (
(63,140,ls),
(63,16,o),
(159,-80,o),
(288,-80,cs),
(417,-80,o),
(513,16,o),
(513,140,cs),
(513,1256,ls),
(513,1380,o),
(417,1476,o),
(288,1476,cs),
(159,1476,o),
(63,1380,o),
(63,1256,cs)
);
}
);
width = 576;
},
{
layerId = "5B8359BC-834E-43C0-95AC-1478E595F26B";
shapes = (
{
closed = 1;
nodes = (
(324,-213,ls),
(364,-253,o),
(421,-278,o),
(486,-278,cs),
(614,-278,o),
(711,-182,o),
(711,-58,cs),
(711,1058,ls),
(711,1119,o),
(688,1174,o),
(648,1214,cs),
(450,1412,ls),
(409,1453,o),
(353,1476,o),
(288,1476,cs),
(159,1476,o),
(63,1380,o),
(63,1256,cs),
(63,140,ls),
(63,79,o),
(88,23,o),
(126,-15,cs)
);
}
);
width = 774;
},
{
layerId = "3FC41B90-652D-4B27-AC2B-1ACF7BE26A9E";
shapes = (
{
attr = {
strokePos = "1";
};
closed = 1;
nodes = (
(160,1332,o),
(214,1386,o),
(288,1386,cs),
(362,1386,o),
(416,1332,o),
(416,1256,cs),
(416,140,ls),
(416,64,o),
(362,10,o),
(288,10,cs),
(214,10,o),
(160,64,o),
(160,140,cs),
(160,1256,ls)
);
},
{
attr = {
strokePos = "1";
};
closed = 1;
nodes = (
(128,140,ls),
(128,48,o),
(196,-20,o),
(288,-20,cs),
(380,-20,o),
(448,48,o),
(448,140,cs),
(448,1256,ls),
(448,1348,o),
(380,1416,o),
(288,1416,cs),
(196,1416,o),
(128,1348,o),
(128,1256,cs)
);
}
);
width = 576;
},
{
layerId = "C167734A-3797-41AB-93B1-2512951510F4";
shapes = (
{
closed = 1;
nodes = (
(586,-256,ls),
(660,-221,o),
(711,-146,o),
(711,-58,cs),
(711,1058,ls),
(711,1180,o),
(615,1278,o),
(486,1278,cs),
(451,1278,o),
(415,1271,o),
(385,1257,cs),
(23,1088,ls),
(-52,1053,o),
(-102,978,o),
(-102,889,cs),
(-102,-227,ls),
(-102,-351,o),
(-6,-447,o),
(123,-447,cs),
(160,-447,o),
(194,-439,o),
(224,-425,cs)
);
}
);
width = 609;
},
{
layerId = "1B23468A-8BB0-4287-A942-E04502FA5EAD";
shapes = (
{
attr = {
strokePos = "1";
};
closed = 1;
nodes = (
(405,-65,o),
(493,24,o),
(493,140,cs),
(493,1256,ls),
(493,1373,o),
(405,1461,o),
(288,1461,cs),
(171,1461,o),
(83,1373,o),
(83,1256,cs),
(83,140,ls),
(83,24,o),
(171,-65,o),
(288,-65,cs)
);
},
{
attr = {
strokePos = "1";
};
closed = 1;
nodes = (
(239,55,o),
(205,89,o),
(205,140,cs),
(205,1256,ls),
(205,1307,o),
(239,1341,o),
(288,1341,cs),
(337,1341,o),
(371,1307,o),
(371,1256,cs),
(371,140,ls),
(371,89,o),
(337,55,o),
(288,55,cs)
);
}
);
width = 576;
}
);
metricLeft = O;
metricRight = "=|";
unicode = 48;
},
{
glyphname = one;
lastChange = "2025-08-22 13:15:18 +0000";
layers = (
{
layerId = "6F666F4F-1A96-4FED-ADB4-134214B8A633";
shapes = (
{
attr = {
strokePos = "1";
};
closed = 1;
nodes = (
(1,1346,o),
(28,1318,o),
(63,1312,c),
(63,14,ls),
(63,-32,o),
(98,-62,o),
(144,-62,cs),
(190,-62,o),
(225,-32,o),
(225,14,cs),
(225,1338,ls),
(225,1417,o),
(177,1460,o),
(98,1460,cs),
(80,1460,ls),
(36,1460,o),
(1,1430,o),
(1,1386,cs),
(1,1384,ls)
);
}
);
width = 288;
},
{
layerId = "5B8359BC-834E-43C0-95AC-1478E595F26B";
shapes = (
{
closed = 1;
nodes = (
(282,-237,ls),
(296,-251,o),
(318,-260,o),
(342,-260,cs),
(387,-260,o),
(423,-230,o),
(423,-184,cs),
(423,1140,ls),
(423,1178,o),
(412,1208,o),
(391,1229,cs),
(193,1427,ls),
(173,1447,o),
(139,1460,o),
(98,1460,cs),
(80,1460,ls),
(36,1460,o),
(1,1429,o),
(1,1386,cs),
(1,1384,ls),
(1,1364,o),
(11,1344,o),
(22,1333,cs),
(63,1292,l),
(63,14,ls),
(63,-8,o),
(72,-27,o),
(84,-39,cs)
);
}
);
width = 486;
},
{
layerId = "3FC41B90-652D-4B27-AC2B-1ACF7BE26A9E";
shapes = (
{
attr = {
strokePos = "1";
};
closed = 1;
nodes = (
(124,1370,o),
(128,1366,o),
(128,1338,cs),
(128,14,ls),
(128,2,o),
(132,-2,o),
(144,-2,cs),
(156,-2,o),
(160,2,o),
(160,14,cs),
(160,1338,ls),
(160,1382,o),
(142,1400,o),
(98,1400,cs),
(80,1400,ls),
(70,1400,o),
(66,1396,o),
(66,1386,cs),
(66,1384,ls),
(66,1374,o),
(70,1370,o),
(80,1370,cs),
(98,1370,ls)
);
}
);
width = 288;
},
{
layerId = "C167734A-3797-41AB-93B1-2512951510F4";
shapes = (
{
closed = 1;
nodes = (
(381,-252,ls),
(406,-240,o),
(423,-215,o),
(423,-184,cs),
(423,1140,ls),
(423,1217,o),
(375,1262,o),
(296,1262,cs),
(278,1262,ls),
(266,1262,o),
(251,1259,o),
(241,1254,cs),
(-122,1085,ls),
(-148,1073,o),
(-164,1050,o),
(-164,1019,cs),
(-164,1017,ls),
(-164,979,o),
(-137,951,o),
(-102,945,c),
(-102,-353,ls),
(-102,-399,o),
(-67,-429,o),
(-21,-429,cs),
(-7,-429,o),
(7,-426,o),
(18,-421,cs)
);
}
);
width = 321;
},
{
layerId = "1B23468A-8BB0-4287-A942-E04502FA5EAD";
shapes = (
{
attr = {
strokePos = "1";
};
closed = 1;
nodes = (
(181,-47,o),
(205,-22,o),
(205,14,cs),
(205,1338,ls),
(205,1407,o),
(167,1445,o),
(98,1445,cs),
(80,1445,ls),
(46,1445,o),
(21,1421,o),
(21,1386,cs),
(21,1384,ls),
(21,1349,o),
(46,1325,o),
(80,1325,cs),
(83,1325,l),
(83,14,ls),
(83,-22,o),
(107,-47,o),
(144,-47,cs)
);
}
);
width = 288;
}
);
metricRight = H;
unicode = 49;
},
{
glyphname = two;
lastChange = "2025-07-16 14:24:14 +0000";
layers = (
{
layerId = "6F666F4F-1A96-4FED-ADB4-134214B8A633";
shapes = (
{
attr = {
strokePos = 1;
};
closed = 1;
nodes = (
(225,1256,ls),
(225,1321,o),
(230,1326,o),
(288,1326,cs),
(346,1326,o),
(351,1321,o),
(351,1256,cs),
(351,1010,ls),
(351,945,o),
(346,940,o),
(288,940,cs),
(144,940,o),
(63,865,o),
(63,722,cs),
(63,14,ls),
(63,-30,o),
(98,-60,o),
(142,-60,cs),
(448,-60,ls),
(492,-60,o),
(527,-30,o),
(527,14,cs),
(527,16,ls),
(527,60,o),
(492,90,o),
(448,90,cs),
(225,90,l),
(225,722,ls),
(225,781,o),
(233,790,o),
(288,790,cs),
(433,790,o),
(513,857,o),
(513,1010,cs),
(513,1256,ls),
(513,1409,o),
(433,1476,o),
(288,1476,cs),
(142,1476,o),
(63,1409,o),
(63,1256,cs),
(63,1110,ls),
(63,1064,o),
(98,1034,o),
(144,1034,cs),
(190,1034,o),
(225,1064,o),
(225,1110,cs)
);
}
);
width = 560;
},
{
layerId = "5B8359BC-834E-43C0-95AC-1478E595F26B";
shapes = (
{
closed = 1;
nodes = (
(282,-235,ls),
(296,-249,o),
(317,-258,o),
(340,-258,cs),
(646,-258,ls),
(689,-258,o),
(725,-228,o),
(725,-184,cs),
(725,-182,ls),
(725,-162,o),
(716,-142,o),
(705,-131,cs),
(507,67,ls),
(492,82,o),
(471,90,o),
(448,90,cs),
(423,90,l),
(423,524,ls),
(423,582,o),
(431,592,o),
(486,592,cs),
(630,592,o),
(711,659,o),
(711,812,cs),
(711,1058,ls),
(711,1131,o),
(694,1185,o),
(657,1222,cs),
(459,1420,ls),
(422,1457,o),
(363,1476,o),
(288,1476,cs),
(142,1476,o),
(63,1409,o),
(63,1256,cs),
(63,1110,ls),
(63,1088,o),
(73,1068,o),
(84,1057,cs),
(210,931,l),
(114,907,o),
(63,837,o),
(63,722,cs),
(63,14,ls),
(63,-7,o),
(72,-25,o),
(84,-37,cs)
);
}
);
width = 560;
},
{
layerId = "3FC41B90-652D-4B27-AC2B-1ACF7BE26A9E";
shapes = (
{
attr = {
strokePos = 1;
};
closed = 1;
nodes = (
(160,1256,ls),
(160,1354,o),
(192,1386,o),
(288,1386,cs),
(384,1386,o),
(416,1354,o),
(416,1256,cs),
(416,1010,ls),
(416,912,o),
(384,880,o),
(288,880,cs),
(178,880,o),
(128,830,o),
(128,722,cs),
(128,14,ls),
(128,4,o),
(132,0,o),
(142,0,cs),
(448,0,ls),
(458,0,o),
(462,4,o),
(462,14,cs),
(462,16,ls),
(462,26,o),
(458,30,o),
(448,30,cs),
(160,30,l),
(160,722,ls),
(160,814,o),
(196,850,o),
(288,850,cs),
(402,850,o),
(448,896,o),
(448,1010,cs),
(448,1256,ls),
(448,1370,o),
(402,1416,o),
(288,1416,cs),
(174,1416,o),
(128,1370,o),
(128,1256,cs),
(128,1110,ls),
(128,1098,o),
(132,1094,o),
(144,1094,cs),
(156,1094,o),
(160,1098,o),
(160,1110,cs)
);
}
);
width = 560;
},
{
layerId = "C167734A-3797-41AB-93B1-2512951510F4";
shapes = (
{
closed = 1;
nodes = (
(683,-250,ls),
(707,-239,o),
(725,-214,o),
(725,-184,cs),
(725,-182,ls),
(725,-140,o),
(690,-108,o),
(646,-108,cs),
(423,-108,l),
(423,529,l),
(608,615,ls),
(675,646,o),
(711,710,o),
(711,812,cs),
(711,1058,ls),
(711,1209,o),
(631,1278,o),
(486,1278,cs),
(439,1278,o),
(395,1270,o),
(363,1255,cs),
(0,1086,ls),
(-67,1055,o),
(-102,991,o),
(-102,889,cs),
(-102,743,ls),
(-102,697,o),
(-67,667,o),
(-21,667,cs),
(-7,667,o),
(7,670,o),
(18,675,cs),
(186,754,l),
(186,635,l),
(5,550,ls),
(-65,517,o),
(-102,452,o),
(-102,355,cs),
(-102,-353,ls),
(-102,-397,o),
(-67,-427,o),
(-23,-427,cs),
(283,-427,ls),
(297,-427,o),
(309,-424,o),
(320,-419,cs)
);
}
);
width = 560;
},
{
layerId = "1B23468A-8BB0-4287-A942-E04502FA5EAD";
shapes = (
{
attr = {
strokePos = 1;
};
closed = 1;
nodes = (
(448,-45,ls),
(483,-45,o),
(507,-20,o),
(507,14,cs),
(507,16,ls),
(507,50,o),
(483,75,o),
(448,75,cs),
(205,75,l),
(205,722,ls),
(205,789,o),
(221,805,o),
(288,805,cs),
(427,805,o),
(493,871,o),
(493,1010,cs),
(493,1256,ls),
(493,1395,o),
(427,1461,o),
(288,1461,cs),
(149,1461,o),
(83,1395,o),
(83,1256,cs),
(83,1110,ls),
(83,1073,o),
(107,1049,o),
(144,1049,cs),
(181,1049,o),
(205,1073,o),
(205,1110,cs),
(205,1256,ls),
(205,1328,o),
(218,1341,o),
(288,1341,cs),
(358,1341,o),
(371,1328,o),
(371,1256,cs),
(371,1010,ls),
(371,938,o),
(358,925,o),
(288,925,cs),
(153,925,o),
(83,855,o),
(83,722,cs),
(83,14,ls),
(83,-20,o),
(107,-45,o),
(142,-45,cs)
);
}
);
width = 560;
}
);
unicode = 50;
},
{
glyphname = three;
lastChange = "2025-07-16 14:24:14 +0000";
layers = (
{
layerId = "6F666F4F-1A96-4FED-ADB4-134214B8A633";
shapes = (
{
attr = {
strokePos = "1";
};
closed = 1;
nodes = (
(415,-80,o),
(497,2,o),
(497,140,cs),
(497,718,ls),
(497,779,o),
(484,828,o),
(455,862,c),
(483,895,o),
(497,944,o),
(497,1008,cs),
(497,1256,ls),
(497,1409,o),
(417,1476,o),
(272,1476,cs),
(126,1476,o),
(47,1409,o),
(47,1256,cs),
(47,1158,ls),
(47,1113,o),
(83,1082,o),
(128,1082,cs),
(173,1082,o),
(209,1113,o),
(209,1158,cs),
(209,1256,ls),
(209,1321,o),
(214,1326,o),
(272,1326,cs),
(330,1326,o),
(335,1321,o),
(335,1256,cs),
(335,1008,ls),
(335,943,o),
(330,938,o),
(272,938,cs),
(199,938,ls),
(154,938,o),
(119,908,o),
(119,863,cs),
(119,818,o),
(154,788,o),
(199,788,cs),
(272,788,ls),
(323,788,o),
(335,775,o),
(335,718,cs),
(335,140,ls),
(335,83,o),
(323,70,o),
(272,70,cs),
(221,70,o),
(209,83,o),
(209,140,cs),
(209,256,ls),
(209,301,o),
(173,332,o),
(128,332,cs),
(83,332,o),
(47,301,o),
(47,256,cs),
(47,140,ls),
(47,2,o),
(128,-80,o),
(272,-80,cs)
);
}
);
width = 560;
},
{
layerId = "5B8359BC-834E-43C0-95AC-1478E595F26B";
shapes = (
{
closed = 1;
nodes = (
(443,1420,ls),
(406,1457,o),
(347,1476,o),
(272,1476,cs),
(126,1476,o),
(47,1409,o),
(47,1256,cs),
(47,1158,ls),
(47,1137,o),
(57,1117,o),
(68,1106,cs),
(236,938,l),
(199,938,ls),
(154,938,o),
(119,908,o),
(119,863,cs),
(119,842,o),
(129,822,o),
(140,811,cs),
(335,616,l),
(335,162,l),
(188,309,ls),
(174,323,o),
(152,332,o),
(128,332,cs),
(83,332,o),
(47,301,o),
(47,256,cs),
(47,140,ls),
(47,72,o),
(69,15,o),
(105,-21,cs),
(303,-219,ls),
(340,-256,o),
(398,-278,o),
(470,-278,cs),
(612,-278,o),
(695,-196,o),
(695,-58,cs),
(695,520,ls),
(695,581,o),
(682,630,o),
(653,664,c),
(681,697,o),
(695,746,o),
(695,810,cs),
(695,1058,ls),
(695,1131,o),
(678,1185,o),
(641,1222,cs)
);
}
);
width = 560;
},
{
layerId = "3FC41B90-652D-4B27-AC2B-1ACF7BE26A9E";
shapes = (
{
attr = {
strokePos = "1";
};
closed = 1;
nodes = (
(378,-20,o),
(432,34,o),
(432,140,cs),
(432,718,ls),
(432,798,o),
(411,847,o),
(332,860,c),
(332,864,l),
(413,878,o),
(432,926,o),
(432,1008,cs),
(432,1256,ls),
(432,1370,o),
(386,1416,o),
(272,1416,cs),
(158,1416,o),
(112,1370,o),
(112,1256,cs),
(112,1158,ls),
(112,1147,o),
(117,1142,o),
(128,1142,cs),
(139,1142,o),
(144,1147,o),
(144,1158,cs),
(144,1256,ls),
(144,1354,o),
(176,1386,o),
(272,1386,cs),
(368,1386,o),
(400,1354,o),
(400,1256,cs),
(400,1008,ls),
(400,910,o),
(368,878,o),
(272,878,cs),
(199,878,ls),
(188,878,o),
(184,874,o),
(184,863,cs),
(184,852,o),
(188,848,o),
(199,848,cs),
(272,848,ls),
(360,848,o),
(400,808,o),
(400,718,cs),
(400,140,ls),
(400,50,o),
(360,10,o),
(272,10,cs),
(184,10,o),
(144,50,o),
(144,140,cs),
(144,256,ls),
(144,267,o),
(139,272,o),
(128,272,cs),
(117,272,o),
(112,267,o),
(112,256,cs),
(112,140,ls),
(112,34,o),
(166,-20,o),
(272,-20,cs)
);
}
);
width = 560;
},
{
layerId = "C167734A-3797-41AB-93B1-2512951510F4";
shapes = (
{
closed = 1;
nodes = (
(584,-255,ls),
(655,-222,o),
(695,-153,o),
(695,-58,cs),
(695,520,ls),
(695,580,o),
(682,630,o),
(653,664,c),
(679,696,o),
(695,746,o),
(695,810,cs),
(695,1058,ls),
(695,1209,o),
(615,1278,o),
(470,1278,cs),
(423,1278,o),
(379,1270,o),
(347,1255,cs),
(-16,1086,ls),
(-83,1055,o),
(-118,991,o),
(-118,889,cs),
(-118,791,ls),
(-118,746,o),
(-82,715,o),
(-37,715,cs),
(-23,715,o),
(-10,718,o),
(1,723,cs),
(170,802,l),
(170,644,l),
(-4,563,ls),
(-29,551,o),
(-46,527,o),
(-46,496,cs),
(-46,451,o),
(-11,421,o),
(34,421,cs),
(107,421,ls),
(158,421,o),
(170,408,o),
(170,351,cs),
(170,71,l),
(-75,-43,ls),
(-101,-55,o),
(-118,-79,o),
(-118,-111,cs),
(-118,-227,ls),
(-118,-365,o),
(-37,-447,o),
(107,-447,cs),
(151,-447,o),
(189,-439,o),
(222,-424,cs)
);
}
);
width = 560;
},
{
layerId = "1B23468A-8BB0-4287-A942-E04502FA5EAD";
shapes = (
{
attr = {
strokePos = "1";
};
closed = 1;
nodes = (
(403,-65,o),
(477,9,o),
(477,140,cs),
(477,718,ls),
(477,776,o),
(464,829,o),
(431,862,c),
(466,896,o),
(477,948,o),
(477,1008,cs),
(477,1256,ls),
(477,1395,o),
(411,1461,o),
(272,1461,cs),
(133,1461,o),
(67,1395,o),
(67,1256,cs),
(67,1158,ls),
(67,1122,o),
(92,1097,o),
(128,1097,cs),
(164,1097,o),
(189,1122,o),
(189,1158,cs),
(189,1256,ls),
(189,1328,o),
(202,1341,o),
(272,1341,cs),
(342,1341,o),
(355,1328,o),
(355,1256,cs),
(355,1008,ls),
(355,936,o),
(342,923,o),
(272,923,cs),
(199,923,ls),
(163,923,o),
(139,899,o),
(139,863,cs),
(139,827,o),
(163,803,o),
(199,803,cs),
(272,803,ls),
(335,803,o),
(355,783,o),
(355,718,cs),
(355,140,ls),
(355,75,o),
(335,55,o),
(272,55,cs),
(209,55,o),
(189,75,o),
(189,140,cs),
(189,256,ls),
(189,292,o),
(164,317,o),
(128,317,cs),
(92,317,o),
(67,292,o),
(67,256,cs),
(67,140,ls),
(67,9,o),
(141,-65,o),
(272,-65,cs)
);
}
);
width = 560;
}
);
unicode = 51;
},
{
glyphname = four;
lastChange = "2025-07-16 14:24:14 +0000";
layers = (
{
layerId = "6F666F4F-1A96-4FED-ADB4-134214B8A633";
shapes = (
{
attr = {
strokePos = "1";
};
closed = 1;
nodes = (
(271,1042,l),
(208,1042,ls),
(150,1042,o),
(145,1047,o),
(145,1112,cs),
(145,1386,ls),
(145,1431,o),
(109,1462,o),
(64,1462,cs),
(19,1462,o),
(-17,1431,o),
(-17,1386,cs),
(-17,1112,ls),
(-17,959,o),
(62,892,o),
(208,892,cs),
(271,892,l),
(271,14,ls),
(271,-32,o),
(307,-62,o),
(352,-62,cs),
(397,-62,o),
(433,-32,o),
(433,14,cs),
(433,898,l),
(461,909,o),
(480,934,o),
(480,967,cs),
(480,1000,o),
(461,1025,o),
(433,1036,c),
(433,1386,ls),
(433,1431,o),
(397,1462,o),
(352,1462,cs),
(307,1462,o),
(271,1431,o),
(271,1386,cs)
);
}
);
width = 496;
},
{
layerId = "5B8359BC-834E-43C0-95AC-1478E595F26B";
shapes = (
{
closed = 1;
nodes = (
(236,750,ls),
(244,742,o),
(257,731,o),
(271,723,c),
(271,14,ls),
(271,-7,o),
(280,-27,o),
(292,-39,cs),
(490,-237,ls),
(504,-251,o),
(526,-260,o),
(550,-260,cs),
(594,-260,o),
(631,-230,o),
(631,-184,cs),
(631,700,l),
(658,710,o),
(678,736,o),
(678,769,cs),
(678,790,o),
(670,808,o),
(657,821,cs),
(631,848,l),
(631,1188,ls),
(631,1209,o),
(622,1229,o),
(610,1241,cs),
(412,1439,ls),
(400,1451,o),
(376,1462,o),
(352,1462,cs),
(307,1462,o),
(271,1431,o),
(271,1386,cs),
(271,1292,l),
(124,1439,ls),
(112,1451,o),
(88,1462,o),
(64,1462,cs),
(19,1462,o),
(-17,1431,o),
(-17,1386,cs),
(-17,1112,ls),
(-17,1038,o),
(4,982,o),
(38,948,cs)
);
}
);
width = 496;
},
{
layerId = "3FC41B90-652D-4B27-AC2B-1ACF7BE26A9E";
shapes = (
{
attr = {
strokePos = "1";
};
closed = 1;
nodes = (
(336,982,l),
(208,982,ls),
(112,982,o),
(80,1014,o),
(80,1112,cs),
(80,1386,ls),
(80,1397,o),
(75,1402,o),
(64,1402,cs),
(53,1402,o),
(48,1397,o),
(48,1386,cs),
(48,1112,ls),
(48,998,o),
(94,952,o),
(208,952,cs),
(336,952,l),
(336,14,ls),
(336,3,o),
(341,-2,o),
(352,-2,cs),
(363,-2,o),
(368,3,o),
(368,14,cs),
(368,952,l),
(400,952,ls),
(411,952,o),
(415,956,o),
(415,967,cs),
(415,978,o),
(411,982,o),
(400,982,cs),
(368,982,l),
(368,1386,ls),
(368,1397,o),
(363,1402,o),
(352,1402,cs),
(341,1402,o),
(336,1397,o),
(336,1386,cs)
);
}
);
width = 496;
},
{
layerId = "C167734A-3797-41AB-93B1-2512951510F4";
shapes = (
{
closed = 1;
nodes = (
(-139,1087,ls),
(-165,1075,o),
(-182,1051,o),
(-182,1019,cs),
(-182,745,ls),
(-182,592,o),
(-103,525,o),
(43,525,cs),
(106,525,l),
(106,-353,ls),
(106,-399,o),
(142,-429,o),
(187,-429,cs),
(201,-429,o),
(214,-426,o),
(226,-421,cs),
(228,-420,l),
(588,-252,ls),
(615,-240,o),
(631,-215,o),
(631,-184,cs),
(631,700,l),
(636,702,ls),
(660,714,o),
(678,738,o),
(678,769,cs),
(678,800,o),
(658,827,o),
(631,838,c),
(631,1188,ls),
(631,1231,o),
(595,1264,o),
(550,1264,cs),
(538,1264,o),
(523,1261,o),
(512,1256,cs),
(343,1177,l),
(343,1188,ls),
(343,1231,o),
(307,1264,o),
(262,1264,cs),
(250,1264,o),
(235,1261,o),
(224,1256,cs)
);
}
);
width = 496;
},
{
layerId = "1B23468A-8BB0-4287-A942-E04502FA5EAD";
shapes = (
{
attr = {
strokePos = "1";
};
closed = 1;
nodes = (
(388,-47,o),
(413,-22,o),
(413,14,cs),
(413,908,l),
(441,913,o),
(460,936,o),
(460,967,cs),
(460,998,o),
(441,1021,o),
(413,1026,c),
(413,1386,ls),
(413,1422,o),
(388,1447,o),
(352,1447,cs),
(316,1447,o),
(291,1422,o),
(291,1386,cs),
(291,1027,l),
(208,1027,ls),
(138,1027,o),
(125,1040,o),
(125,1112,cs),
(125,1386,ls),
(125,1422,o),
(100,1447,o),
(64,1447,cs),
(28,1447,o),
(3,1422,o),
(3,1386,cs),
(3,1112,ls),
(3,973,o),
(69,907,o),
(208,907,cs),
(291,907,l),
(291,14,ls),
(291,-22,o),
(316,-47,o),
(352,-47,cs)
);
}
);
width = 496;
}
);
unicode = 52;
},
{
glyphname = five;
lastChange = "2025-08-08 05:31:57 +0000";
layers = (
{
layerId = "6F666F4F-1A96-4FED-ADB4-134214B8A633";
shapes = (
{
attr = {
strokePos = "1";
};
closed = 1;
nodes = (
(159,1458,ls),
(116,1458,o),
(79,1426,o),
(79,1383,cs),
(79,519,ls),
(79,476,o),
(116,444,o),
(159,444,cs),
(288,444,ls),
(339,444,o),
(351,431,o),
(351,374,cs),
(351,138,ls),
(351,81,o),
(339,68,o),
(288,68,cs),
(237,68,o),
(225,81,o),
(225,138,cs),
(225,238,ls),
(225,283,o),
(189,314,o),
(144,314,cs),
(99,314,o),
(63,283,o),
(63,238,cs),
(63,138,ls),
(63,0,o),
(144,-82,o),
(288,-82,cs),
(431,-82,o),
(513,0,o),
(513,138,cs),
(513,374,ls),
(513,512,o),
(431,594,o),
(288,594,cs),
(241,594,l),
(241,1308,l),
(448,1308,ls),
(493,1308,o),
(528,1338,o),
(528,1383,cs),
(528,1428,o),
(493,1458,o),
(448,1458,cs)
);
}
);
width = 560;
},
{
layerId = "5B8359BC-834E-43C0-95AC-1478E595F26B";
shapes = (
{
closed = 1;
nodes = (
(299,270,ls),
(312,258,o),
(330,248,o),
(351,246,c),
(351,144,l),
(204,291,ls),
(190,305,o),
(168,314,o),
(144,314,cs),
(99,314,o),
(63,283,o),
(63,238,cs),
(63,138,ls),
(63,70,o),
(85,13,o),
(121,-23,cs),
(319,-221,ls),
(356,-258,o),
(414,-280,o),
(486,-280,cs),
(628,-280,o),
(711,-198,o),
(711,-60,cs),
(711,176,ls),
(711,244,o),
(690,300,o),
(653,337,cs),
(439,550,l),
(439,1110,l),
(646,1110,ls),
(690,1110,o),
(726,1140,o),
(726,1185,cs),
(726,1206,o),
(717,1225,o),
(705,1237,cs),
(507,1435,ls),
(494,1448,o),
(472,1458,o),
(448,1458,cs),
(159,1458,ls),
(116,1458,o),
(79,1426,o),
(79,1383,cs),
(79,519,ls),
(79,499,o),
(86,481,o),
(101,467,cs)
);
}
);
width = 560;
},
{
layerId = "3FC41B90-652D-4B27-AC2B-1ACF7BE26A9E";
shapes = (
{
attr = {
strokePos = "1";
};
closed = 1;
nodes = (
(159,1398,ls),
(150,1398,o),
(144,1392,o),
(144,1383,cs),
(144,519,ls),
(144,510,o),
(150,504,o),
(159,504,cs),
(288,504,ls),
(376,504,o),
(416,464,o),
(416,374,cs),
(416,138,ls),
(416,48,o),
(376,8,o),
(288,8,cs),
(200,8,o),
(160,48,o),
(160,138,cs),
(160,238,ls),
(160,249,o),
(155,254,o),
(144,254,cs),
(133,254,o),
(128,249,o),
(128,238,cs),
(128,138,ls),
(128,32,o),
(182,-22,o),
(288,-22,cs),
(394,-22,o),
(448,32,o),
(448,138,cs),
(448,374,ls),
(448,480,o),
(394,534,o),
(288,534,cs),
(176,534,l),
(176,1368,l),
(448,1368,ls),
(459,1368,o),
(463,1372,o),
(463,1383,cs),
(463,1394,o),
(459,1398,o),
(448,1398,cs)
);
}
);
width = 560;
},
{
layerId = "C167734A-3797-41AB-93B1-2512951510F4";
shapes = (
{
closed = 1;
nodes = (
(-42,1083,ls),
(-67,1071,o),
(-86,1047,o),
(-86,1016,cs),
(-86,152,ls),
(-86,109,o),
(-49,77,o),
(-6,77,cs),
(123,77,ls),
(157,77,o),
(174,71,o),
(181,51,c),
(-59,-61,ls),
(-85,-73,o),
(-102,-97,o),
(-102,-129,cs),
(-102,-229,ls),
(-102,-367,o),
(-21,-449,o),
(123,-449,cs),
(167,-449,o),
(205,-441,o),
(238,-426,cs),
(600,-257,ls),
(671,-224,o),
(711,-155,o),
(711,-60,cs),
(711,176,ls),
(711,312,o),
(629,396,o),
(486,396,cs),
(439,396,l),
(439,1004,l),
(684,1118,ls),
(708,1129,o),
(726,1154,o),
(726,1185,cs),
(726,1228,o),
(691,1260,o),
(646,1260,cs),
(357,1260,ls),
(346,1260,o),
(332,1257,o),
(321,1252,cs)
);
}
);
width = 560;
},
{
layerId = "1B23468A-8BB0-4287-A942-E04502FA5EAD";
shapes = (
{
attr = {
strokePos = "1";
};
closed = 1;
nodes = (
(419,-67,o),
(493,7,o),
(493,138,cs),
(493,374,ls),
(493,505,o),
(419,579,o),
(288,579,cs),
(221,579,l),
(221,1323,l),
(448,1323,ls),
(484,1323,o),
(508,1347,o),
(508,1383,cs),
(508,1419,o),
(484,1443,o),
(448,1443,cs),
(159,1443,ls),
(125,1443,o),
(99,1417,o),
(99,1383,cs),
(99,519,ls),
(99,485,o),
(125,459,o),
(159,459,cs),
(288,459,ls),
(351,459,o),
(371,439,o),
(371,374,cs),
(371,138,ls),
(371,73,o),
(351,53,o),
(288,53,cs),
(225,53,o),
(205,73,o),
(205,138,cs),
(205,238,ls),
(205,274,o),
(180,299,o),
(144,299,cs),
(108,299,o),
(83,274,o),
(83,238,cs),
(83,138,ls),
(83,7,o),
(157,-67,o),
(288,-67,cs)
);
}
);
width = 560;
}
);
unicode = 53;
},
{
glyphname = six;
lastChange = "2025-07-16 14:24:14 +0000";
layers = (
{
layerId = "6F666F4F-1A96-4FED-ADB4-134214B8A633";
shapes = (
{
attr = {
strokePos = "1";
};
closed = 1;
nodes = (
(433,-80,o),
(513,-13,o),
(513,140,cs),
(513,282,ls),
(513,435,o),
(433,502,o),
(288,502,cs),
(265,502,o),
(245,500,o),
(225,496,c),
(225,1256,ls),
(225,1321,o),
(230,1326,o),
(288,1326,cs),
(346,1326,o),
(351,1321,o),
(351,1256,cs),
(351,1158,ls),
(351,1112,o),
(386,1082,o),
(432,1082,cs),
(478,1082,o),
(513,1112,o),
(513,1158,cs),
(513,1256,ls),
(513,1409,o),
(433,1476,o),
(288,1476,cs),
(142,1476,o),
(63,1409,o),
(63,1256,cs),
(63,140,ls),
(63,-13,o),
(142,-80,o),
(288,-80,cs)
);
},
{
attr = {
strokePos = "1";
};
closed = 1;
nodes = (
(230,70,o),
(225,75,o),
(225,140,cs),
(225,282,ls),
(225,347,o),
(230,352,o),
(288,352,cs),
(346,352,o),
(351,347,o),
(351,282,cs),
(351,140,ls),
(351,75,o),
(346,70,o),
(288,70,cs)
);
}
);
width = 560;
},
{
layerId = "5B8359BC-834E-43C0-95AC-1478E595F26B";
shapes = (
{
closed = 1;
nodes = (
(316,-222,ls),
(353,-259,o),
(411,-278,o),
(486,-278,cs),
(630,-278,o),
(711,-211,o),
(711,-58,cs),
(711,84,ls),
(711,157,o),
(694,211,o),
(657,248,cs),
(459,446,ls),
(447,458,o),
(436,466,o),
(423,473,c),
(423,1054,l),
(570,907,ls),
(584,893,o),
(606,884,o),
(630,884,cs),
(675,884,o),
(711,914,o),
(711,960,cs),
(711,1058,ls),
(711,1131,o),
(694,1185,o),
(657,1222,cs),
(459,1420,ls),
(422,1457,o),
(363,1476,o),
(288,1476,cs),
(142,1476,o),
(63,1409,o),
(63,1256,cs),
(63,140,ls),
(63,66,o),
(83,11,o),
(118,-24,cs)
);
}
);
width = 560;
},
{
layerId = "3FC41B90-652D-4B27-AC2B-1ACF7BE26A9E";
shapes = (
{
attr = {
strokePos = "1";
};
closed = 1;
nodes = (
(160,380,o),
(192,412,o),
(288,412,cs),
(384,412,o),
(416,380,o),
(416,282,cs),
(416,140,ls),
(416,42,o),
(384,10,o),
(288,10,cs),
(192,10,o),
(160,42,o),
(160,140,cs),
(160,282,ls)
);
},
{
attr = {
strokePos = "1";
};
closed = 1;
nodes = (
(128,26,o),
(174,-20,o),
(288,-20,cs),
(402,-20,o),
(448,26,o),
(448,140,cs),
(448,282,ls),
(448,396,o),
(402,442,o),
(288,442,cs),
(224,442,o),
(183,426,o),
(160,387,c),
(160,1256,ls),
(160,1354,o),
(192,1386,o),
(288,1386,cs),
(384,1386,o),
(416,1354,o),
(416,1256,cs),
(416,1158,ls),
(416,1146,o),
(420,1142,o),
(432,1142,cs),
(444,1142,o),
(448,1146,o),
(448,1158,cs),
(448,1256,ls),
(448,1370,o),
(402,1416,o),
(288,1416,cs),
(174,1416,o),
(128,1370,o),
(128,1256,cs),
(128,140,ls)
);
}
);
width = 560;
},
{
layerId = "C167734A-3797-41AB-93B1-2512951510F4";
shapes = (
{
closed = 1;
nodes = (
(608,-255,ls),
(675,-224,o),
(711,-160,o),
(711,-58,cs),
(711,84,ls),
(711,235,o),
(631,304,o),
(486,304,cs),
(464,304,o),
(443,302,o),
(423,298,c),
(423,778,l),
(669,892,ls),
(694,904,o),
(711,929,o),
(711,960,cs),
(711,1058,ls),
(711,1209,o),
(631,1278,o),
(486,1278,cs),
(439,1278,o),
(395,1270,o),
(363,1255,cs),
(0,1086,ls),
(-67,1055,o),
(-102,991,o),
(-102,889,cs),
(-102,-227,ls),
(-102,-380,o),
(-23,-447,o),
(123,-447,cs),
(171,-447,o),
(212,-440,o),
(246,-424,cs)
);
}
);
width = 560;
},
{
layerId = "1B23468A-8BB0-4287-A942-E04502FA5EAD";
shapes = (
{
attr = {
strokePos = "1";
};
closed = 1;
nodes = (
(427,-65,o),
(493,1,o),
(493,140,cs),
(493,282,ls),
(493,421,o),
(427,487,o),
(288,487,cs),
(257,487,o),
(230,484,o),
(205,476,c),
(205,1256,ls),
(205,1328,o),
(218,1341,o),
(288,1341,cs),
(358,1341,o),
(371,1328,o),
(371,1256,cs),
(371,1158,ls),
(371,1121,o),
(395,1097,o),
(432,1097,cs),
(469,1097,o),
(493,1121,o),
(493,1158,cs),
(493,1256,ls),
(493,1395,o),
(427,1461,o),
(288,1461,cs),
(149,1461,o),
(83,1395,o),
(83,1256,cs),
(83,140,ls),
(83,1,o),
(149,-65,o),
(288,-65,cs)
);
},
{
attr = {
strokePos = "1";
};
closed = 1;
nodes = (
(218,55,o),
(205,68,o),
(205,140,cs),
(205,282,ls),
(205,354,o),
(218,367,o),
(288,367,cs),
(358,367,o),
(371,354,o),
(371,282,cs),
(371,140,ls),
(371,68,o),
(358,55,o),
(288,55,cs)
);
}
);
width = 560;
}
);
unicode = 54;
},
{
glyphname = seven;
lastChange = "2025-07-16 14:24:14 +0000";
layers = (
{
layerId = "6F666F4F-1A96-4FED-ADB4-134214B8A633";
shapes = (
{
closed = 1;
nodes = (
(45,-25,o),
(73,-62,o),
(133,-62,cs),
(172,-62,o),
(206,-39,o),
(212,-1,cs),
(433,1349,ls),
(434,1358,o),
(435,1368,o),
(435,1377,cs),
(435,1385,ls),
(435,1428,o),
(398,1460,o),
(355,1460,cs),
(79,1460,ls),
(35,1460,o),
(-1,1430,o),
(-1,1385,cs),
(-1,1340,o),
(35,1310,o),
(79,1310,cs),
(262,1310,l),
(53,27,ls)
);
}
);
width = 416;
},
{
layerId = "5B8359BC-834E-43C0-95AC-1478E595F26B";
shapes = (
{
closed = 1;
nodes = (
(414,1436,ls),
(401,1449,o),
(378,1460,o),
(355,1460,cs),
(79,1460,ls),
(35,1460,o),
(-1,1429,o),
(-1,1385,cs),
(-1,1365,o),
(9,1344,o),
(20,1333,cs),
(218,1135,ls),
(220,1133,o),
(227,1128,o),
(232,1125,c),
(53,27,ls),
(51,16,o),
(48,-18,o),
(68,-38,cs),
(271,-236,ls),
(287,-252,o),
(313,-260,o),
(332,-260,cs),
(370,-260,o),
(403,-239,o),
(410,-199,cs),
(631,1151,ls),
(632,1160,o),
(633,1170,o),
(633,1179,cs),
(633,1187,ls),
(633,1207,o),
(626,1226,o),
(612,1239,cs)
);
}
);
width = 416;
},
{
layerId = "3FC41B90-652D-4B27-AC2B-1ACF7BE26A9E";
shapes = (
{
closed = 1;
nodes = (
(119,-2,o),
(133,-2,cs),
(142,-2,o),
(146,2,o),
(148,11,cs),
(369,1359,ls),
(370,1365,o),
(370,1371,o),
(370,1377,cs),
(370,1385,ls),
(370,1394,o),
(364,1400,o),
(355,1400,cs),
(79,1400,ls),
(69,1400,o),
(64,1396,o),
(64,1385,cs),
(64,1374,o),
(69,1370,o),
(79,1370,cs),
(337,1370,l),
(117,17,ls),
(115,4,o)
);
}
);
width = 416;
},
{
layerId = "C167734A-3797-41AB-93B1-2512951510F4";
shapes = (
{
closed = 1;
nodes = (
(368,-253,ls),
(389,-243,o),
(405,-228,o),
(410,-199,cs),
(631,1151,ls),
(632,1159,o),
(633,1170,o),
(633,1179,cs),
(633,1187,ls),
(633,1228,o),
(596,1262,o),
(553,1262,cs),
(277,1262,ls),
(265,1262,o),
(251,1259,o),
(239,1254,cs),
(-123,1085,ls),
(-148,1073,o),
(-166,1049,o),
(-166,1018,cs),
(-166,973,o),
(-130,943,o),
(-86,943,cs),
(97,943,l),
(-112,-339,ls),
(-120,-391,o),
(-83,-428,o),
(-31,-429,cs),
(-17,-429,o),
(-5,-426,o),
(6,-421,cs)
);
}
);
width = 416;
},
{
layerId = "1B23468A-8BB0-4287-A942-E04502FA5EAD";
shapes = (
{
closed = 1;
nodes = (
(163,-47,o),
(187,-27,o),
(192,3,cs),
(413,1352,ls),
(414,1358,o),
(415,1370,o),
(415,1377,cs),
(415,1385,ls),
(415,1419,o),
(389,1445,o),
(355,1445,cs),
(79,1445,ls),
(45,1445,o),
(19,1421,o),
(19,1385,cs),
(19,1349,o),
(45,1325,o),
(79,1325,cs),
(284,1325,l),
(73,25,ls),
(65,-22,o),
(90,-47,o),
(132,-47,cs)
);
}
);
width = 416;
}
);
unicode = 55;
},
{
glyphname = eight;
lastChange = "2025-08-22 13:15:18 +0000";
layers = (
{
layerId = "6F666F4F-1A96-4FED-ADB4-134214B8A633";
shapes = (
{
attr = {
strokePos = "1";
};
closed = 1;
nodes = (
(433,-80,o),
(513,-13,o),
(513,140,cs),
(513,818,ls),
(513,878,o),
(499,932,o),
(467,969,c),
(499,1007,o),
(513,1061,o),
(513,1116,cs),
(513,1256,ls),
(513,1409,o),
(433,1476,o),
(288,1476,cs),
(142,1476,o),
(63,1409,o),
(63,1256,cs),
(63,1116,ls),
(63,1060,o),
(76,1008,o),
(109,969,c),
(76,931,o),
(63,878,o),
(63,818,cs),
(63,140,ls),
(63,-13,o),
(142,-80,o),
(288,-80,cs)
);
},
{
attr = {
strokePos = "1";
};
closed = 1;
nodes = (
(230,70,o),
(225,75,o),
(225,140,cs),
(225,822,ls),
(225,887,o),
(230,892,o),
(288,892,cs),
(346,892,o),
(351,887,o),
(351,822,cs),
(351,140,ls),
(351,75,o),
(346,70,o),
(288,70,cs)
);
},
{
attr = {
strokePos = "1";
};
closed = 1;
nodes = (
(230,1042,o),
(225,1047,o),
(225,1112,cs),
(225,1256,ls),
(225,1321,o),
(230,1326,o),
(288,1326,cs),
(346,1326,o),
(351,1321,o),
(351,1256,cs),
(351,1112,ls),
(351,1047,o),
(346,1042,o),
(288,1042,cs)
);
}
);
width = 576;
},
{
layerId = "5B8359BC-834E-43C0-95AC-1478E595F26B";
shapes = (
{
closed = 1;
nodes = (
(459,1420,ls),
(422,1457,o),
(363,1476,o),
(288,1476,cs),
(142,1476,o),
(63,1409,o),
(63,1256,cs),
(63,1116,ls),
(63,1061,o),
(76,1008,o),
(109,969,c),
(77,932,o),
(63,878,o),
(63,818,cs),
(63,140,ls),
(63,66,o),
(83,11,o),
(118,-24,cs),
(316,-222,ls),
(353,-259,o),
(411,-278,o),
(486,-278,cs),
(630,-278,o),
(711,-211,o),
(711,-58,cs),
(711,620,ls),
(711,679,o),
(698,733,o),
(665,771,c),
(698,810,o),
(711,863,o),
(711,918,cs),
(711,1058,ls),
(711,1131,o),
(694,1185,o),
(657,1222,cs)
);
}
);
width = 774;
},
{
layerId = "3FC41B90-652D-4B27-AC2B-1ACF7BE26A9E";
shapes = (
{
attr = {
strokePos = "1";
};
closed = 1;
nodes = (
(402,-20,o),
(448,26,o),
(448,140,cs),
(448,818,ls),
(448,886,o),
(432,952,o),
(348,966,c),
(348,970,l),
(432,984,o),
(448,1056,o),
(448,1116,cs),
(448,1256,ls),
(448,1370,o),
(402,1416,o),
(288,1416,cs),
(174,1416,o),
(128,1370,o),
(128,1256,cs),
(128,1116,ls),
(128,1056,o),
(144,984,o),
(228,970,c),
(228,966,l),
(144,952,o),
(128,886,o),
(128,818,cs),
(128,140,ls),
(128,26,o),
(174,-20,o),
(288,-20,cs)
);
},
{
attr = {
strokePos = "1";
};
closed = 1;
nodes = (
(192,10,o),
(160,42,o),
(160,140,cs),
(160,822,ls),
(160,920,o),
(192,952,o),
(288,952,cs),
(384,952,o),
(416,920,o),
(416,822,cs),
(416,140,ls),
(416,42,o),
(384,10,o),
(288,10,cs)
);
},
{
attr = {
strokePos = "1";
};
closed = 1;
nodes = (
(192,982,o),
(160,1014,o),
(160,1112,cs),
(160,1256,ls),
(160,1354,o),
(192,1386,o),
(288,1386,cs),
(384,1386,o),
(416,1354,o),
(416,1256,cs),
(416,1112,ls),
(416,1014,o),
(384,982,o),
(288,982,cs)
);
}
);
width = 576;
},
{
layerId = "C167734A-3797-41AB-93B1-2512951510F4";
shapes = (
{
closed = 1;
nodes = (
(608,-255,ls),
(675,-224,o),
(711,-160,o),
(711,-58,cs),
(711,620,ls),
(711,679,o),
(698,734,o),
(665,771,c),
(699,812,o),
(711,863,o),
(711,918,cs),
(711,1058,ls),
(711,1209,o),
(631,1278,o),
(486,1278,cs),
(439,1278,o),
(395,1270,o),
(363,1255,cs),
(0,1086,ls),
(-67,1055,o),
(-102,991,o),
(-102,889,cs),
(-102,749,ls),
(-102,694,o),
(-89,641,o),
(-56,602,c),
(-89,564,o),
(-102,511,o),
(-102,451,cs),
(-102,-227,ls),
(-102,-380,o),
(-23,-447,o),
(123,-447,cs),
(171,-447,o),
(212,-440,o),
(246,-424,cs)
);
}
);
width = 609;
},
{
layerId = "1B23468A-8BB0-4287-A942-E04502FA5EAD";
shapes = (
{
attr = {
strokePos = "1";
};
closed = 1;
nodes = (
(427,-65,o),
(493,1,o),
(493,140,cs),
(493,818,ls),
(493,870,o),
(483,929,o),
(442,969,c),
(483,1010,o),
(493,1071,o),
(493,1116,cs),
(493,1256,ls),
(493,1395,o),
(427,1461,o),
(288,1461,cs),
(149,1461,o),
(83,1395,o),
(83,1256,cs),
(83,1116,ls),
(83,1071,o),
(94,1009,o),
(134,969,c),
(93,929,o),
(83,870,o),
(83,818,cs),
(83,140,ls),
(83,1,o),
(149,-65,o),
(288,-65,cs)
);
},
{
attr = {
strokePos = "1";
};
closed = 1;
nodes = (
(218,55,o),
(205,68,o),
(205,140,cs),
(205,822,ls),
(205,894,o),
(218,907,o),
(288,907,cs),
(358,907,o),
(371,894,o),
(371,822,cs),
(371,140,ls),
(371,68,o),
(358,55,o),
(288,55,cs)
);
},
{
attr = {
strokePos = "1";
};
closed = 1;
nodes = (
(218,1027,o),
(205,1040,o),
(205,1112,cs),
(205,1256,ls),
(205,1328,o),
(218,1341,o),
(288,1341,cs),
(358,1341,o),
(371,1328,o),
(371,1256,cs),
(371,1112,ls),
(371,1040,o),
(358,1027,o),
(288,1027,cs)
);
}
);
width = 576;
}
);
metricLeft = O;
metricRight = "=|";
unicode = 56;
},
{
glyphname = nine;
lastChange = "2025-07-16 14:24:14 +0000";
layers = (
{
layerId = "3FC41B90-652D-4B27-AC2B-1ACF7BE26A9E";
shapes = (
{
attr = {
identifier = ID0x32fd786d0;
strokePos = "1";
};
closed = 1;
nodes = (
(400,1016,o),
(368,984,o),
(272,984,cs),
(176,984,o),
(144,1016,o),
(144,1114,cs),
(144,1256,ls),
(144,1354,o),
(176,1386,o),
(272,1386,cs),
(368,1386,o),
(400,1354,o),
(400,1256,cs),
(400,1114,ls)
);
},
{
attr = {
identifier = ID0x32fd786d0;
strokePos = "1";
};
closed = 1;
nodes = (
(112,26,o),
(158,-20,o),
(272,-20,cs),
(386,-20,o),
(432,26,o),
(432,140,cs),
(432,1256,ls),
(432,1370,o),
(386,1416,o),
(272,1416,cs),
(158,1416,o),
(112,1370,o),
(112,1256,cs),
(112,1114,ls),
(112,1000,o),
(158,954,o),
(272,954,cs),
(336,954,o),
(377,970,o),
(400,1009,c),
(400,140,ls),
(400,42,o),
(368,10,o),
(272,10,cs),
(176,10,o),
(144,42,o),
(144,140,cs),
(144,238,ls),
(144,250,o),
(140,254,o),
(128,254,cs),
(116,254,o),
(112,250,o),
(112,238,cs),
(112,140,ls)
);
}
);
width = 560;
},
{
layerId = "6F666F4F-1A96-4FED-ADB4-134214B8A633";
shapes = (
{
attr = {
identifier = ID0x32fd786d0;
strokePos = "1";
};
closed = 1;
nodes = (
(417,-80,o),
(497,-13,o),
(497,140,cs),
(497,1256,ls),
(497,1409,o),
(417,1476,o),
(272,1476,cs),
(126,1476,o),
(47,1409,o),
(47,1256,cs),
(47,1114,ls),
(47,961,o),
(126,894,o),
(272,894,cs),
(295,894,o),
(315,896,o),
(335,900,c),
(335,140,ls),
(335,75,o),
(330,70,o),
(272,70,cs),
(214,70,o),
(209,75,o),
(209,140,cs),
(209,238,ls),
(209,284,o),
(174,314,o),
(128,314,cs),
(82,314,o),
(47,284,o),
(47,238,cs),
(47,140,ls),
(47,-13,o),
(126,-80,o),
(272,-80,cs)
);
},
{
attr = {
identifier = ID0x32fd786d0;
strokePos = "1";
};
closed = 1;
nodes = (
(214,1044,o),
(209,1049,o),
(209,1114,cs),
(209,1256,ls),
(209,1321,o),
(214,1326,o),
(272,1326,cs),
(330,1326,o),
(335,1321,o),
(335,1256,cs),
(335,1114,ls),
(335,1049,o),
(330,1044,o),
(272,1044,cs)
);
}
);
width = 560;
},
{
layerId = "5B8359BC-834E-43C0-95AC-1478E595F26B";
shapes = (
{
closed = 1;
nodes = (
(300,-222,ls),
(337,-259,o),
(395,-278,o),
(470,-278,cs),
(614,-278,o),
(695,-211,o),
(695,-58,cs),
(695,1058,ls),
(695,1131,o),
(678,1185,o),
(641,1222,cs),
(443,1420,ls),
(406,1457,o),
(347,1476,o),
(272,1476,cs),
(126,1476,o),
(47,1409,o),
(47,1256,cs),
(47,1114,ls),
(47,1040,o),
(67,985,o),
(102,950,cs),
(300,752,ls),
(309,743,o),
(321,733,o),
(335,725,c),
(335,144,l),
(188,291,ls),
(174,305,o),
(152,314,o),
(128,314,cs),
(82,314,o),
(47,284,o),
(47,238,cs),
(47,140,ls),
(47,66,o),
(67,11,o),
(102,-24,cs)
);
}
);
width = 560;
},
{
layerId = "C167734A-3797-41AB-93B1-2512951510F4";
shapes = (
{
closed = 1;
nodes = (
(592,-255,ls),
(659,-224,o),
(695,-160,o),
(695,-58,cs),
(695,1058,ls),
(695,1209,o),
(615,1278,o),
(470,1278,cs),
(423,1278,o),
(379,1270,o),
(347,1255,cs),
(-16,1086,ls),
(-83,1055,o),
(-118,991,o),
(-118,889,cs),
(-118,747,ls),
(-118,594,o),
(-39,527,o),
(107,527,cs),
(130,527,o),
(150,529,o),
(170,533,c),
(170,54,l),
(-76,-61,ls),
(-103,-74,o),
(-118,-97,o),
(-118,-129,cs),
(-118,-227,ls),
(-118,-380,o),
(-39,-447,o),
(107,-447,cs),
(155,-447,o),
(196,-440,o),
(230,-424,cs)
);
}
);
width = 560;
},
{
layerId = "1B23468A-8BB0-4287-A942-E04502FA5EAD";
shapes = (
{
attr = {
identifier = ID0x32fd786d0;
strokePos = "1";
};
closed = 1;
nodes = (
(411,-65,o),
(477,1,o),
(477,140,cs),
(477,1256,ls),
(477,1395,o),
(411,1461,o),
(272,1461,cs),
(133,1461,o),
(67,1395,o),
(67,1256,cs),
(67,1114,ls),
(67,975,o),
(133,909,o),
(272,909,cs),
(303,909,o),
(330,912,o),
(355,920,c),
(355,140,ls),
(355,68,o),
(342,55,o),
(272,55,cs),
(202,55,o),
(189,68,o),
(189,140,cs),
(189,238,ls),
(189,275,o),
(165,299,o),
(128,299,cs),
(91,299,o),
(67,275,o),
(67,238,cs),
(67,140,ls),
(67,1,o),
(133,-65,o),
(272,-65,cs)
);
},
{
attr = {
identifier = ID0x32fd786d0;
strokePos = "1";
};
closed = 1;
nodes = (
(202,1029,o),
(189,1042,o),
(189,1114,cs),
(189,1256,ls),
(189,1328,o),
(202,1341,o),
(272,1341,cs),
(342,1341,o),
(355,1328,o),
(355,1256,cs),
(355,1114,ls),
(355,1042,o),
(342,1029,o),
(272,1029,cs)
);
}
);
width = 560;
}
);
metricLeft = "=|6";
metricRight = "=|6";
unicode = 57;
},
{
glyphname = .notdef;
lastChange = "2025-08-22 13:15:18 +0000";
layers = (
{
layerId = "6F666F4F-1A96-4FED-ADB4-134214B8A633";
shapes = (
{
closed = 1;
nodes = (
(612,-130,l),
(612,1333,l),
(148,1333,l),
(148,-130,l)
);
},
{
closed = 1;
nodes = (
(257,20,l),
(360,89,l),
(257,89,l),
(257,137,l),
(500,137,l),
(500,89,l),
(453,89,l),
(351,20,l),
(500,20,l),
(500,-28,l),
(257,-28,l)
);
},
{
closed = 1;
nodes = (
(257,337,l),
(500,337,l),
(500,170,l),
(257,170,l)
);
},
{
closed = 1;
nodes = (
(453,218,l),
(453,288,l),
(305,288,l),
(305,218,l)
);
},
{
closed = 1;
nodes = (
(257,589,l),
(305,589,l),
(305,472,l),
(453,472,l),
(453,541,l),
(403,541,l),
(403,506,l),
(354,506,l),
(354,589,l),
(500,589,l),
(500,422,l),
(257,422,l)
);
},
{
closed = 1;
nodes = (
(257,670,l),
(453,670,l),
(453,767,l),
(500,767,l),
(500,620,l),
(257,620,l)
);
},
{
closed = 1;
nodes = (
(257,752,l),
(354,752,l),
(354,806,l),
(257,806,l),
(257,854,l),
(500,854,l),
(500,806,l),
(403,806,l),
(403,705,l),
(257,705,l)
);
},
{
closed = 1;
nodes = (
(257,1045,l),
(403,1045,l),
(403,943,l),
(500,943,l),
(500,894,l),
(257,894,l)
);
},
{
closed = 1;
nodes = (
(354,943,l),
(354,998,l),
(305,998,l),
(305,943,l)
);
},
{
closed = 1;
nodes = (
(257,1132,l),
(354,1132,l),
(354,1187,l),
(260,1187,l),
(260,1234,l),
(500,1234,l),
(500,1187,l),
(403,1187,l),
(403,1132,l),
(500,1132,l),
(500,1083,l),
(257,1083,l)
);
}
);
width = 760;
},
{
layerId = "5B8359BC-834E-43C0-95AC-1478E595F26B";
shapes = (
{
closed = 1;
nodes = (
(662,-180,l),
(662,1283,l),
(198,1283,l),
(198,-180,l)
);
},
{
closed = 1;
nodes = (
(307,-30,l),
(410,39,l),
(307,39,l),
(307,87,l),
(550,87,l),
(550,39,l),
(503,39,l),
(401,-30,l),
(550,-30,l),
(550,-78,l),
(307,-78,l)
);
},
{
closed = 1;
nodes = (
(307,287,l),
(550,287,l),
(550,120,l),
(307,120,l)
);
},
{
closed = 1;
nodes = (
(503,168,l),
(503,238,l),
(355,238,l),
(355,168,l)
);
},
{
closed = 1;
nodes = (
(307,539,l),
(355,539,l),
(355,422,l),
(503,422,l),
(503,491,l),
(453,491,l),
(453,456,l),
(404,456,l),
(404,539,l),
(550,539,l),
(550,372,l),
(307,372,l)
);
},
{
closed = 1;
nodes = (
(307,620,l),
(503,620,l),
(503,717,l),
(550,717,l),
(550,570,l),
(307,570,l)
);
},
{
closed = 1;
nodes = (
(307,702,l),
(404,702,l),
(404,756,l),
(307,756,l),
(307,804,l),
(550,804,l),
(550,756,l),
(453,756,l),
(453,655,l),
(307,655,l)
);
},
{
closed = 1;
nodes = (
(307,995,l),
(453,995,l),
(453,893,l),
(550,893,l),
(550,844,l),
(307,844,l)
);
},
{
closed = 1;
nodes = (
(404,893,l),
(404,948,l),
(355,948,l),
(355,893,l)
);
},
{
closed = 1;
nodes = (
(307,1082,l),
(404,1082,l),
(404,1137,l),
(310,1137,l),
(310,1184,l),
(550,1184,l),
(550,1137,l),
(453,1137,l),
(453,1082,l),
(550,1082,l),
(550,1033,l),
(307,1033,l)
);
}
);
width = 860;
},
{
layerId = "3FC41B90-652D-4B27-AC2B-1ACF7BE26A9E";
shapes = (
{
closed = 1;
nodes = (
(512,-30,l),
(512,1433,l),
(48,1433,l),
(48,-30,l)
);
},
{
closed = 1;
nodes = (
(157,120,l),
(260,189,l),
(157,189,l),
(157,237,l),
(400,237,l),
(400,189,l),
(353,189,l),
(251,120,l),
(400,120,l),
(400,72,l),
(157,72,l)
);
},
{
closed = 1;
nodes = (
(157,437,l),
(400,437,l),
(400,270,l),
(157,270,l)
);
},
{
closed = 1;
nodes = (
(353,318,l),
(353,388,l),
(205,388,l),
(205,318,l)
);
},
{
closed = 1;
nodes = (
(157,689,l),
(205,689,l),
(205,572,l),
(353,572,l),
(353,641,l),
(303,641,l),
(303,606,l),
(254,606,l),
(254,689,l),
(400,689,l),
(400,522,l),
(157,522,l)
);
},
{
closed = 1;
nodes = (
(157,770,l),
(353,770,l),
(353,867,l),
(400,867,l),
(400,720,l),
(157,720,l)
);
},
{
closed = 1;
nodes = (
(157,852,l),
(254,852,l),
(254,906,l),
(157,906,l),
(157,954,l),
(400,954,l),
(400,906,l),
(303,906,l),
(303,805,l),
(157,805,l)
);
},
{
closed = 1;
nodes = (
(157,1145,l),
(303,1145,l),
(303,1043,l),
(400,1043,l),
(400,994,l),
(157,994,l)
);
},
{
closed = 1;
nodes = (
(254,1043,l),
(254,1098,l),
(205,1098,l),
(205,1043,l)
);
},
{
closed = 1;
nodes = (
(157,1232,l),
(254,1232,l),
(254,1287,l),
(160,1287,l),
(160,1334,l),
(400,1334,l),
(400,1287,l),
(303,1287,l),
(303,1232,l),
(400,1232,l),
(400,1183,l),
(157,1183,l)
);
}
);
width = 560;
},
{
layerId = "C167734A-3797-41AB-93B1-2512951510F4";
shapes = (
{
closed = 1;
nodes = (
(412,-230,l),
(412,1233,l),
(-52,1233,l),
(-52,-230,l)
);
},
{
closed = 1;
nodes = (
(57,-80,l),
(160,-11,l),
(57,-11,l),
(57,37,l),
(300,37,l),
(300,-11,l),
(253,-11,l),
(151,-80,l),
(300,-80,l),
(300,-128,l),
(57,-128,l)
);
},
{
closed = 1;
nodes = (
(57,237,l),
(300,237,l),
(300,70,l),
(57,70,l)
);
},
{
closed = 1;
nodes = (
(253,118,l),
(253,188,l),
(105,188,l),
(105,118,l)
);
},
{
closed = 1;
nodes = (
(57,489,l),
(105,489,l),
(105,372,l),
(253,372,l),
(253,441,l),
(203,441,l),
(203,406,l),
(154,406,l),
(154,489,l),
(300,489,l),
(300,322,l),
(57,322,l)
);
},
{
closed = 1;
nodes = (
(57,570,l),
(253,570,l),
(253,667,l),
(300,667,l),
(300,520,l),
(57,520,l)
);
},
{
closed = 1;
nodes = (
(57,652,l),
(154,652,l),
(154,706,l),
(57,706,l),
(57,754,l),
(300,754,l),
(300,706,l),
(203,706,l),
(203,605,l),
(57,605,l)
);
},
{
closed = 1;
nodes = (
(57,945,l),
(203,945,l),
(203,843,l),
(300,843,l),
(300,794,l),
(57,794,l)
);
},
{
closed = 1;
nodes = (
(154,843,l),
(154,898,l),
(105,898,l),
(105,843,l)
);
},
{
closed = 1;
nodes = (
(57,1032,l),
(154,1032,l),
(154,1087,l),
(60,1087,l),
(60,1134,l),
(300,1134,l),
(300,1087,l),
(203,1087,l),
(203,1032,l),
(300,1032,l),
(300,983,l),
(57,983,l)
);
}
);
width = 360;
},
{
layerId = "1B23468A-8BB0-4287-A942-E04502FA5EAD";
shapes = (
{
closed = 1;
nodes = (
(562,-80,l),
(562,1383,l),
(98,1383,l),
(98,-80,l)
);
},
{
closed = 1;
nodes = (
(207,70,l),
(310,139,l),
(207,139,l),
(207,187,l),
(450,187,l),
(450,139,l),
(403,139,l),
(301,70,l),
(450,70,l),
(450,22,l),
(207,22,l)
);
},
{
closed = 1;
nodes = (
(207,387,l),
(450,387,l),
(450,220,l),
(207,220,l)
);
},
{
closed = 1;
nodes = (
(403,268,l),
(403,338,l),
(255,338,l),
(255,268,l)
);
},
{
closed = 1;
nodes = (
(207,639,l),
(255,639,l),
(255,522,l),
(403,522,l),
(403,591,l),
(353,591,l),
(353,556,l),
(304,556,l),
(304,639,l),
(450,639,l),
(450,472,l),
(207,472,l)
);
},
{
closed = 1;
nodes = (
(207,720,l),
(403,720,l),
(403,817,l),
(450,817,l),
(450,670,l),
(207,670,l)
);
},
{
closed = 1;
nodes = (
(207,802,l),
(304,802,l),
(304,856,l),
(207,856,l),
(207,904,l),
(450,904,l),
(450,856,l),
(353,856,l),
(353,755,l),
(207,755,l)
);
},
{
closed = 1;
nodes = (
(207,1095,l),
(353,1095,l),
(353,993,l),
(450,993,l),
(450,944,l),
(207,944,l)
);
},
{
closed = 1;
nodes = (
(304,993,l),
(304,1048,l),
(255,1048,l),
(255,993,l)
);
},
{
closed = 1;
nodes = (
(207,1182,l),
(304,1182,l),
(304,1237,l),
(210,1237,l),
(210,1284,l),
(450,1284,l),
(450,1237,l),
(353,1237,l),
(353,1182,l),
(450,1182,l),
(450,1133,l),
(207,1133,l)
);
}
);
width = 660;
}
);
metricRight = "=|";
},
{
glyphname = period;
lastChange = "2025-07-16 14:24:14 +0000";
layers = (
{
layerId = "6F666F4F-1A96-4FED-ADB4-134214B8A633";
shapes = (
{
closed = 1;
nodes = (
(27,0,ls),
(27,-48,o),
(64,-80,o),
(112,-80,cs),
(160,-80,o),
(197,-48,o),
(197,0,cs),
(197,126,ls),
(197,174,o),
(160,206,o),
(112,206,cs),
(64,206,o),
(27,174,o),
(27,126,cs)
);
}
);
width = 224;
},
{
layerId = "5B8359BC-834E-43C0-95AC-1478E595F26B";
shapes = (
{
closed = 1;
nodes = (
(247,-254,ls),
(263,-270,o),
(285,-278,o),
(310,-278,cs),
(357,-278,o),
(395,-246,o),
(395,-198,cs),
(395,-72,ls),
(395,-50,o),
(387,-30,o),
(373,-16,cs),
(175,182,ls),
(160,197,o),
(137,206,o),
(112,206,cs),
(64,206,o),
(27,174,o),
(27,126,cs),
(27,0,ls),
(27,-23,o),
(34,-41,o),
(49,-56,cs)
);
}
);
width = 224;
},
{
layerId = "3FC41B90-652D-4B27-AC2B-1ACF7BE26A9E";
shapes = (
{
closed = 1;
nodes = (
(92,0,ls),
(92,-14,o),
(98,-20,o),
(112,-20,cs),
(126,-20,o),
(132,-14,o),
(132,0,cs),
(132,126,ls),
(132,140,o),
(126,146,o),
(112,146,cs),
(98,146,o),
(92,140,o),
(92,126,cs)
);
}
);
width = 224;
},
{
layerId = "C167734A-3797-41AB-93B1-2512951510F4";
shapes = (
{
closed = 1;
nodes = (
(350,-269,ls),
(375,-257,o),
(395,-231,o),
(395,-198,cs),
(395,-72,ls),
(395,-26,o),
(358,8,o),
(310,8,cs),
(297,8,o),
(280,5,o),
(269,-1,cs),
(-93,-169,ls),
(-119,-181,o),
(-138,-207,o),
(-138,-241,cs),
(-138,-367,ls),
(-138,-415,o),
(-101,-447,o),
(-53,-447,cs),
(-38,-447,o),
(-25,-444,o),
(-13,-438,cs)
);
}
);
width = 224;
},
{
layerId = "1B23468A-8BB0-4287-A942-E04502FA5EAD";
shapes = (
{
closed = 1;
nodes = (
(47,0,ls),
(47,-39,o),
(73,-65,o),
(112,-65,cs),
(151,-65,o),
(177,-39,o),
(177,0,cs),
(177,126,ls),
(177,165,o),
(151,191,o),
(112,191,cs),
(73,191,o),
(47,165,o),
(47,126,cs)
);
}
);
width = 224;
}
);
unicode = 46;
},
{
glyphname = comma;
lastChange = "2025-08-08 05:33:25 +0000";
layers = (
{
layerId = "6F666F4F-1A96-4FED-ADB4-134214B8A633";
shapes = (
{
closed = 1;
nodes = (
(-20,-179,ls),
(-23,-189,o),
(-24,-197,o),
(-24,-206,cs),
(-24,-257,o),
(22,-283,o),
(64,-283,cs),
(103,-283,o),
(133,-258,o),
(143,-225,cs),
(248,133,ls),
(263,182,o),
(237,220,o),
(187,233,cs),
(178,235,o),
(169,236,o),
(164,236,cs),
(125,236,o),
(95,211,o),
(85,178,cs)
);
}
);
width = 224;
},
{
layerId = "5B8359BC-834E-43C0-95AC-1478E595F26B";
shapes = (
{
closed = 1;
nodes = (
(195,-455,ls),
(211,-471,o),
(238,-481,o),
(262,-481,cs),
(300,-481,o),
(332,-457,o),
(342,-423,cs),
(446,-65,ls),
(455,-35,o),
(447,-6,o),
(430,11,cs),
(232,209,ls),
(214,227,o),
(191,236,o),
(164,236,cs),
(125,236,o),
(94,210,o),
(85,178,cs),
(-20,-179,ls),
(-23,-189,o),
(-24,-197,o),
(-24,-206,cs),
(-24,-227,o),
(-14,-246,o),
(-3,-257,cs)
);
}
);
width = 224;
},
{
layerId = "3FC41B90-652D-4B27-AC2B-1ACF7BE26A9E";
shapes = (
{
closed = 1;
nodes = (
(42,-197,ls),
(41,-200,o),
(41,-203,o),
(41,-206,cs),
(41,-219,o),
(53,-223,o),
(64,-223,cs),
(72,-223,o),
(78,-218,o),
(81,-208,cs),
(186,150,ls),
(190,163,o),
(186,171,o),
(172,175,cs),
(169,176,o),
(166,176,o),
(164,176,cs),
(156,176,o),
(150,171,o),
(147,161,cs)
);
}
);
width = 224;
},
{
layerId = "C167734A-3797-41AB-93B1-2512951510F4";
shapes = (
{
closed = 1;
nodes = (
(297,-473,ls),
(318,-463,o),
(334,-446,o),
(341,-423,cs),
(447,-65,ls),
(461,-17,o),
(435,22,o),
(385,35,cs),
(376,37,o),
(367,38,o),
(362,38,cs),
(350,38,o),
(337,36,o),
(326,31,cs),
(-36,-138,ls),
(-59,-149,o),
(-73,-166,o),
(-80,-189,cs),
(-185,-545,ls),
(-187,-553,o),
(-189,-564,o),
(-189,-573,cs),
(-189,-624,o),
(-143,-650,o),
(-101,-650,cs),
(-88,-650,o),
(-77,-647,o),
(-65,-642,cs)
);
}
);
width = 224;
},
{
layerId = "1B23468A-8BB0-4287-A942-E04502FA5EAD";
shapes = (
{
closed = 1;
nodes = (
(-1,-184,ls),
(-3,-191,o),
(-4,-200,o),
(-4,-206,cs),
(-4,-246,o),
(30,-268,o),
(64,-268,cs),
(92,-268,o),
(115,-251,o),
(124,-221,cs),
(229,137,ls),
(240,173,o),
(223,207,o),
(185,218,cs),
(178,220,o),
(169,221,o),
(164,221,cs),
(136,221,o),
(113,204,o),
(104,174,cs)
);
}
);
width = 224;
}
);
unicode = 44;
},
{
glyphname = colon;
lastChange = "2025-07-16 14:26:41 +0000";
layers = (
{
layerId = "6F666F4F-1A96-4FED-ADB4-134214B8A633";
shapes = (
{
closed = 1;
nodes = (
(27,0,ls),
(27,-48,o),
(64,-80,o),
(112,-80,cs),
(160,-80,o),
(197,-48,o),
(197,0,cs),
(197,126,ls),
(197,174,o),
(160,206,o),
(112,206,cs),
(64,206,o),
(27,174,o),
(27,126,cs)
);
},
{
closed = 1;
nodes = (
(27,1060,ls),
(27,1012,o),
(64,980,o),
(112,980,cs),
(160,980,o),
(197,1012,o),
(197,1060,cs),
(197,1186,ls),
(197,1234,o),
(160,1266,o),
(112,1266,cs),
(64,1266,o),
(27,1234,o),
(27,1186,cs)
);
}
);
width = 224;
},
{
layerId = "5B8359BC-834E-43C0-95AC-1478E595F26B";
shapes = (
{
closed = 1;
nodes = (
(247,-254,ls),
(263,-270,o),
(285,-278,o),
(310,-278,cs),
(357,-278,o),
(395,-246,o),
(395,-198,cs),
(395,-72,ls),
(395,-50,o),
(387,-30,o),
(373,-16,cs),
(175,182,ls),
(160,197,o),
(137,206,o),
(112,206,cs),
(64,206,o),
(27,174,o),
(27,126,cs),
(27,0,ls),
(27,-23,o),
(34,-41,o),
(49,-56,cs)
);
},
{
closed = 1;
nodes = (
(247,806,ls),
(263,790,o),
(285,782,o),
(310,782,cs),
(357,782,o),
(395,814,o),
(395,862,cs),
(395,988,ls),
(395,1010,o),
(387,1029,o),
(373,1044,cs),
(175,1242,ls),
(161,1256,o),
(137,1266,o),
(112,1266,cs),
(64,1266,o),
(27,1234,o),
(27,1186,cs),
(27,1060,ls),
(27,1038,o),
(34,1019,o),
(49,1004,cs)
);
}
);
width = 224;
},
{
layerId = "3FC41B90-652D-4B27-AC2B-1ACF7BE26A9E";
shapes = (
{
closed = 1;
nodes = (
(92,0,ls),
(92,-14,o),
(98,-20,o),
(112,-20,cs),
(126,-20,o),
(132,-14,o),
(132,0,cs),
(132,126,ls),
(132,140,o),
(126,146,o),
(112,146,cs),
(98,146,o),
(92,140,o),
(92,126,cs)
);
},
{
closed = 1;
nodes = (
(92,1060,ls),
(92,1046,o),
(98,1040,o),
(112,1040,cs),
(126,1040,o),
(132,1046,o),
(132,1060,cs),
(132,1186,ls),
(132,1200,o),
(126,1206,o),
(112,1206,cs),
(98,1206,o),
(92,1200,o),
(92,1186,cs)
);
}
);
width = 224;
},
{
layerId = "C167734A-3797-41AB-93B1-2512951510F4";
shapes = (
{
closed = 1;
nodes = (
(350,-269,ls),
(375,-257,o),
(395,-231,o),
(395,-198,cs),
(395,-72,ls),
(395,-26,o),
(358,8,o),
(310,8,cs),
(297,8,o),
(280,5,o),
(270,0,cs),
(-93,-169,ls),
(-119,-181,o),
(-138,-207,o),
(-138,-241,cs),
(-138,-367,ls),
(-138,-415,o),
(-101,-447,o),
(-53,-447,cs),
(-38,-447,o),
(-25,-444,o),
(-12,-438,cs)
);
},
{
closed = 1;
nodes = (
(350,791,ls),
(375,803,o),
(395,829,o),
(395,862,cs),
(395,988,ls),
(395,1034,o),
(358,1068,o),
(310,1068,cs),
(297,1068,o),
(280,1065,o),
(270,1060,cs),
(-93,891,ls),
(-119,879,o),
(-138,853,o),
(-138,819,cs),
(-138,693,ls),
(-138,645,o),
(-101,613,o),
(-53,613,cs),
(-38,613,o),
(-25,616,o),
(-12,622,cs)
);
}
);
width = 224;
},
{
layerId = "1B23468A-8BB0-4287-A942-E04502FA5EAD";
shapes = (
{
closed = 1;
nodes = (
(47,0,ls),
(47,-39,o),
(73,-65,o),
(112,-65,cs),
(151,-65,o),
(177,-39,o),
(177,0,cs),
(177,126,ls),
(177,165,o),
(151,191,o),
(112,191,cs),
(73,191,o),
(47,165,o),
(47,126,cs)
);
},
{
closed = 1;
nodes = (
(47,1060,ls),
(47,1021,o),
(73,995,o),
(112,995,cs),
(151,995,o),
(177,1021,o),
(177,1060,cs),
(177,1186,ls),
(177,1225,o),
(151,1251,o),
(112,1251,cs),
(73,1251,o),
(47,1225,o),
(47,1186,cs)
);
}
);
width = 224;
}
);
unicode = 58;
},
{
glyphname = semicolon;
lastChange = "2025-07-16 14:24:14 +0000";
layers = (
{
layerId = "6F666F4F-1A96-4FED-ADB4-134214B8A633";
shapes = (
{
closed = 1;
nodes = (
(-20,-178,ls),
(-22,-186,o),
(-24,-197,o),
(-24,-206,cs),
(-24,-257,o),
(22,-283,o),
(64,-283,cs),
(103,-283,o),
(133,-258,o),
(143,-225,cs),
(248,133,ls),
(267,196,o),
(220,236,o),
(164,236,cs),
(125,236,o),
(95,211,o),
(85,178,cs)
);
},
{
closed = 1;
nodes = (
(27,1060,ls),
(27,1012,o),
(64,980,o),
(112,980,cs),
(160,980,o),
(197,1012,o),
(197,1060,cs),
(197,1186,ls),
(197,1234,o),
(160,1266,o),
(112,1266,cs),
(64,1266,o),
(27,1234,o),
(27,1186,cs)
);
}
